<svg width="380" height="387" viewBox="0 0 380 387" fill="none" xmlns="http://www.w3.org/2000/svg">
<circle cx="185" cy="169" r="169" fill="#FFED9C"/>
<path d="M41.17 81C50.41 81 55.877 75.225 55.877 65.523C55.877 59.055 52.797 54.358 47.407 52.202C52.104 50.123 54.799 45.888 54.799 40.267C54.799 31.104 49.332 25.714 40.092 25.714H28.773C28.157 25.714 27.849 26.022 27.849 26.638V80.076C27.849 80.692 28.157 81 28.773 81H41.17ZM38.937 34.184C43.172 34.184 44.173 36.109 44.173 41.191C44.173 46.427 43.095 48.044 38.937 48.198V34.184ZM38.937 57.13C43.711 57.207 44.789 59.44 44.789 64.676C44.789 69.142 44.019 72.376 38.937 72.53V57.13ZM59.8822 80.076C59.8822 80.692 60.1902 81 60.8062 81H83.2132C83.8292 81 84.1372 80.692 84.1372 80.076V72.992C84.1372 72.376 83.8292 72.068 83.2132 72.068H70.9702V57.592H79.3632C79.9792 57.592 80.2872 57.284 80.2872 56.668V49.122C80.2872 48.506 79.9792 48.198 79.3632 48.198H70.9702V34.646H82.6742C83.2902 34.646 83.5982 34.338 83.5982 33.722V26.638C83.5982 26.022 83.2902 25.714 82.6742 25.714H60.8062C60.1902 25.714 59.8822 26.022 59.8822 26.638V80.076ZM113.98 45.888C114.596 45.888 114.904 45.58 114.904 44.964C114.904 35.185 111.824 24.636 100.813 24.636C91.4185 24.636 85.8745 32.413 85.8745 53.357C85.8745 71.375 89.4935 82.078 100.582 82.078C111.978 82.078 114.827 70.682 114.904 61.288C114.904 60.672 114.596 60.364 113.98 60.364H105.51C104.894 60.364 104.586 60.672 104.586 61.288C104.355 68.68 103.354 73.146 101.044 73.146C99.5035 73.146 97.4245 71.221 97.4245 53.357C97.4245 35.031 99.5035 33.568 101.044 33.568C103.277 33.568 104.278 36.494 104.355 45.041C104.355 45.58 104.663 45.888 105.279 45.888H113.98ZM119.287 31.874V74.84C119.287 78.228 121.982 81 125.37 81H142.541C145.929 81 148.624 78.228 148.624 74.84V31.874C148.624 28.486 145.929 25.714 142.541 25.714H125.37C121.982 25.714 119.287 28.486 119.287 31.874ZM133.917 72.761C131.607 72.761 129.605 70.759 129.605 68.449V38.265C129.605 35.955 131.607 33.953 133.917 33.953C136.304 33.953 138.306 35.955 138.306 38.265V68.449C138.306 70.759 136.304 72.761 133.917 72.761ZM180.123 25.714C179.584 25.714 179.353 26.022 179.199 26.561L173.501 51.509L167.803 26.561C167.649 26.022 167.418 25.714 166.879 25.714H155.252C154.636 25.714 154.328 26.022 154.328 26.638V80.076C154.328 80.692 154.636 81 155.252 81H163.414C164.03 81 164.338 80.692 164.338 80.076V48.352H164.877L171.037 80.153C171.114 80.692 171.422 81 171.961 81H175.041C175.58 81 175.888 80.692 175.965 80.153L182.125 48.352H182.664V80.076C182.664 80.692 182.972 81 183.588 81H191.75C192.366 81 192.674 80.692 192.674 80.076V26.638C192.674 26.022 192.366 25.714 191.75 25.714H180.123ZM198.392 80.076C198.392 80.692 198.7 81 199.316 81H221.723C222.339 81 222.647 80.692 222.647 80.076V72.992C222.647 72.376 222.339 72.068 221.723 72.068H209.48V57.592H217.873C218.489 57.592 218.797 57.284 218.797 56.668V49.122C218.797 48.506 218.489 48.198 217.873 48.198H209.48V34.646H221.184C221.8 34.646 222.108 34.338 222.108 33.722V26.638C222.108 26.022 221.8 25.714 221.184 25.714H199.316C198.7 25.714 198.392 26.022 198.392 26.638V80.076ZM49.563 111.561C49.486 111.022 49.178 110.714 48.562 110.714H34.086C33.47 110.714 33.162 111.022 33.085 111.561L25.385 164.999C25.308 165.615 25.616 166 26.309 166H35.395C36.011 166 36.319 165.692 36.396 165.153L38.167 149.137H44.481L46.252 165.153C46.329 165.692 46.637 166 47.253 166H56.339C57.032 166 57.34 165.615 57.263 164.999L49.563 111.561ZM38.398 140.821L40.862 121.109H41.786L44.25 140.821H38.398ZM102.295 110.714C101.756 110.714 101.525 111.022 101.371 111.561L95.6734 136.509L89.9754 111.561C89.8214 111.022 89.5904 110.714 89.0514 110.714H77.4244C76.8084 110.714 76.5004 111.022 76.5004 111.638V165.076C76.5004 165.692 76.8084 166 77.4244 166H85.5864C86.2024 166 86.5104 165.692 86.5104 165.076V133.352H87.0494L93.2094 165.153C93.2864 165.692 93.5944 166 94.1334 166H97.2134C97.7524 166 98.0604 165.692 98.1374 165.153L104.297 133.352H104.836V165.076C104.836 165.692 105.144 166 105.76 166H113.922C114.538 166 114.846 165.692 114.846 165.076V111.638C114.846 111.022 114.538 110.714 113.922 110.714H102.295ZM120.565 165.076C120.565 165.692 120.873 166 121.489 166H143.896C144.512 166 144.82 165.692 144.82 165.076V157.992C144.82 157.376 144.512 157.068 143.896 157.068H131.653V142.592H140.046C140.662 142.592 140.97 142.284 140.97 141.668V134.122C140.97 133.506 140.662 133.198 140.046 133.198H131.653V119.646H143.357C143.973 119.646 144.281 119.338 144.281 118.722V111.638C144.281 111.022 143.973 110.714 143.357 110.714H121.489C120.873 110.714 120.565 111.022 120.565 111.638V165.076ZM174.182 110.714C173.643 110.714 173.412 111.022 173.258 111.561L167.56 136.509L161.862 111.561C161.708 111.022 161.477 110.714 160.938 110.714H149.311C148.695 110.714 148.387 111.022 148.387 111.638V165.076C148.387 165.692 148.695 166 149.311 166H157.473C158.089 166 158.397 165.692 158.397 165.076V133.352H158.936L165.096 165.153C165.173 165.692 165.481 166 166.02 166H169.1C169.639 166 169.947 165.692 170.024 165.153L176.184 133.352H176.723V165.076C176.723 165.692 177.031 166 177.647 166H185.809C186.425 166 186.733 165.692 186.733 165.076V111.638C186.733 111.022 186.425 110.714 185.809 110.714H174.182ZM205.773 166C215.013 166 220.48 160.225 220.48 150.523C220.48 144.055 217.4 139.358 212.01 137.202C216.707 135.123 219.402 130.888 219.402 125.267C219.402 116.104 213.935 110.714 204.695 110.714H193.376C192.76 110.714 192.452 111.022 192.452 111.638V165.076C192.452 165.692 192.76 166 193.376 166H205.773ZM203.54 119.184C207.775 119.184 208.776 121.109 208.776 126.191C208.776 131.427 207.698 133.044 203.54 133.198V119.184ZM203.54 142.13C208.314 142.207 209.392 144.44 209.392 149.676C209.392 154.142 208.622 157.376 203.54 157.53V142.13ZM224.485 165.076C224.485 165.692 224.793 166 225.409 166H247.816C248.432 166 248.74 165.692 248.74 165.076V157.992C248.74 157.376 248.432 157.068 247.816 157.068H235.573V142.592H243.966C244.582 142.592 244.89 142.284 244.89 141.668V134.122C244.89 133.506 244.582 133.198 243.966 133.198H235.573V119.646H247.277C247.893 119.646 248.201 119.338 248.201 118.722V111.638C248.201 111.022 247.893 110.714 247.277 110.714H225.409C224.793 110.714 224.485 111.022 224.485 111.638V165.076ZM263.395 165.076V142.438H264.627L269.709 165.153C269.863 165.692 270.171 166 270.787 166H280.027C280.72 166 281.028 165.615 280.874 164.999L274.329 140.128C279.411 136.586 280.489 131.119 280.489 126.499C280.489 114.41 273.328 110.714 264.088 110.714H253.231C252.615 110.714 252.307 111.022 252.307 111.638V165.076C252.307 165.692 252.615 166 253.231 166H262.471C263.087 166 263.395 165.692 263.395 165.076ZM263.395 119.184H264.396C267.322 119.184 269.401 121.417 269.401 126.576C269.401 130.657 268.092 133.968 264.858 133.968H263.395V119.184ZM33.778 250.076C33.778 250.692 34.086 251 34.702 251H43.942C44.558 251 44.866 250.692 44.866 250.076V204.646H52.566C53.182 204.646 53.49 204.338 53.49 203.722V196.638C53.49 196.022 53.182 195.714 52.566 195.714H26.078C25.462 195.714 25.154 196.022 25.154 196.638V203.722C25.154 204.338 25.462 204.646 26.078 204.646H33.778V250.076ZM69.0855 252.078C78.2485 252.078 84.2545 244.994 84.2545 223.357C84.2545 201.72 78.2485 194.636 69.0855 194.636C59.9225 194.636 53.9165 201.72 53.9165 223.357C53.9165 244.994 59.9225 252.078 69.0855 252.078ZM65.9285 217.582C65.9285 205.878 67.3145 203.568 69.0855 203.568C70.8565 203.568 72.2425 205.878 72.2425 217.582V229.132C72.2425 240.836 70.8565 243.146 69.0855 243.146C67.3145 243.146 65.9285 240.836 65.9285 229.132V217.582ZM88.9076 250.076C88.9076 250.692 89.2156 251 89.8316 251H99.7646C115.781 251 117.09 239.219 117.09 223.357C117.09 206.725 115.473 195.714 98.1476 195.714H89.8316C89.2156 195.714 88.9076 196.022 88.9076 196.638V250.076ZM99.9956 204.646C105.309 204.646 105.54 206.494 105.54 223.28C105.54 240.143 105.309 242.068 99.9956 242.068V204.646ZM142.655 196.561C142.578 196.022 142.27 195.714 141.654 195.714H127.178C126.562 195.714 126.254 196.022 126.177 196.561L118.477 249.999C118.4 250.615 118.708 251 119.401 251H128.487C129.103 251 129.411 250.692 129.488 250.153L131.259 234.137H137.573L139.344 250.153C139.421 250.692 139.729 251 140.345 251H149.431C150.124 251 150.432 250.615 150.355 249.999L142.655 196.561ZM131.49 225.821L133.954 206.109H134.878L137.342 225.821H131.49ZM168.588 251C169.204 251 169.512 250.692 169.512 250.076V228.67L179.83 196.715C180.061 196.099 179.676 195.714 179.06 195.714H170.051C169.512 195.714 169.204 195.945 169.05 196.484L163.968 217.813L158.886 196.561C158.732 195.945 158.424 195.714 157.808 195.714H148.876C148.26 195.714 147.875 196.099 148.106 196.715L158.424 228.67V250.076C158.424 250.692 158.732 251 159.348 251H168.588ZM199.565 233.752C199.565 234.368 199.95 234.676 200.566 234.676H205.109C205.725 234.676 206.11 234.368 206.11 233.752L207.958 196.638C207.958 196.022 207.727 195.714 207.111 195.714H198.564C197.948 195.714 197.717 196.022 197.717 196.638L199.565 233.752ZM202.799 241.529C199.95 241.529 197.717 243.916 197.717 246.765C197.717 249.691 199.95 252.078 202.799 252.078C205.648 252.078 207.881 249.691 207.881 246.765C207.881 243.916 205.648 241.529 202.799 241.529Z" fill="#2B2B2B"/>
<path d="M234.895 299.016C234.79 298.799 234.351 298.325 233.888 297.923C233.437 297.546 232.642 296.768 232.121 296.185C231.612 295.626 230.77 294.812 230.271 294.397C229.772 293.983 228.668 293.057 227.812 292.338C225.484 290.425 220.912 287.451 220.549 287.627C220.356 287.72 220.246 287.863 220.281 287.935C220.352 288.08 221.898 289.18 223.684 290.342C225.922 291.823 226.898 292.543 228.702 294.114C230.401 295.587 232.37 297.436 234.326 299.381C234.67 299.722 235.106 299.451 234.895 299.016ZM197.025 310.595C197.008 310.067 197.022 307.942 197.036 305.878C197.05 303.814 197.326 300.876 197.646 299.32C198.542 294.83 198.688 293.716 198.437 293.629C198.078 293.504 197.299 296.327 196.916 299.107C196.72 300.425 196.537 301.647 196.462 301.862C196.274 302.46 196.225 310.237 196.407 311.044C196.623 312.042 196.999 311.771 197.025 310.595ZM247.773 280.848C249.276 279.643 249.993 278.967 251.04 277.744C251.357 277.352 251.746 276.985 251.891 276.915C252.398 276.669 257.156 270.487 257.039 270.245C256.969 270.1 257.066 269.993 257.222 270.007C257.402 270.009 257.487 269.939 257.417 269.794C257.346 269.649 257.53 269.351 257.822 269.09C258.125 268.854 258.308 268.556 258.25 268.436C258.191 268.315 258.241 268.171 258.386 268.101C258.507 268.043 258.923 267.424 259.279 266.744C259.672 266.077 260.285 265.004 260.653 264.349C261.34 263.181 261.673 262.513 263.226 259.195C263.731 258.145 264.211 257.227 264.308 257.18C264.404 257.134 264.601 256.74 264.751 256.31C264.912 255.844 265.271 254.984 265.567 254.363C265.839 253.755 265.978 253.18 265.859 253.119C265.728 253.033 265.753 252.901 265.898 252.831C266.043 252.761 266.161 251.958 266.137 251.046C266.117 249.713 265.967 249.219 265.378 248.371C264.612 247.222 262.713 245.458 262.067 245.293C261.864 245.243 261.03 244.752 260.244 244.238C256.267 241.632 251.578 240.386 249.525 241.38C248.824 241.72 248.69 241.934 248.741 242.655C248.771 243.147 249.061 243.931 249.438 244.524C250.144 245.613 253.091 248.002 254.286 248.437C254.705 248.563 254.872 248.601 254.682 248.454C254.444 248.271 254.445 248.211 254.697 248.238C254.888 248.265 255.03 248.435 255.028 248.615C255.002 248.806 255.562 249.101 256.22 249.29C257.464 249.641 258.88 250.655 259.277 251.476C259.898 252.756 259.786 254.003 258.852 256.752C258.304 258.33 257.808 259.584 257.748 259.583C257.676 259.558 257.37 260.095 257.049 260.787C256.332 262.446 255.253 264.281 254.142 265.804C250.137 271.263 248.48 273.199 246.419 274.854C244.564 276.319 243.903 276.371 241.818 275.145C240.377 274.262 240.377 274.262 237.659 275.609C235.945 276.44 235.098 276.969 235.313 277.044C235.492 277.106 235.717 277.325 235.834 277.567C236.209 278.339 239.351 280.515 241.273 281.343C243.04 282.098 245.244 282.461 246.016 282.147C246.161 282.076 246.948 281.486 247.773 280.848ZM227.182 288.021C227.112 287.876 226.945 287.778 226.789 287.764C226.633 287.75 225.823 287.308 224.964 286.829C224.13 286.339 223.282 286.004 223.089 286.098C222.582 286.344 222.831 286.611 224.047 287.214C224.644 287.522 225.454 287.964 225.86 288.185C226.551 288.566 227.393 288.456 227.182 288.021ZM220.085 287.285C220.099 287.129 219.897 286.958 219.658 286.895C219.12 286.769 218.909 287.318 219.373 287.6C219.707 287.796 220.057 287.656 220.085 287.285ZM191.139 300.415C190.916 299.956 192.298 295.977 193.057 294.834C193.79 293.763 193.931 293.068 193.375 293.337C193.255 293.396 193.192 293.575 193.263 293.72C193.321 293.841 193.224 293.948 193.068 293.934C192.384 293.877 191.027 296.861 190.512 299.615C190.282 300.741 190.374 301.054 190.882 300.808C191.075 300.715 191.197 300.536 191.139 300.415ZM211.541 288.114C212.258 287.379 212.196 286.634 211.24 284.354C210.761 283.244 210.1 281.387 209.742 280.278C209.326 278.989 208.964 278.18 208.749 278.105C208.211 277.918 205.791 285.294 205.693 287.369C205.644 288.377 206.608 289.073 208.108 289.092C210.16 289.141 210.738 288.981 211.541 288.114ZM240.308 272.089C240.903 271.532 241.489 270.711 241.663 270.269C241.812 269.839 242.068 269.506 242.176 269.544C242.308 269.569 242.32 269.533 242.213 269.496C242.118 269.423 242.174 268.739 242.364 267.962C242.554 267.184 242.659 266.417 242.577 266.248C242.507 266.103 242.451 265.742 242.455 265.442C242.486 263.906 242.231 262.21 241.658 260.043C241.406 259.091 241.406 259.091 240.662 260.078C240.235 260.613 239.903 261.221 239.865 261.389C239.826 261.616 239.754 261.651 239.684 261.507C239.602 261.337 239.529 261.373 239.49 261.6C239.464 261.792 239.105 262.652 238.71 263.559C238.106 264.836 237.752 265.275 237.028 265.626C235.192 266.516 229.053 267.94 225.772 268.247C224.775 268.342 223.969 268.464 223.992 268.513C224.016 268.561 223.031 268.621 221.794 268.653C218.756 268.724 218.623 268.818 219.349 270.315C219.676 270.992 219.86 271.678 219.738 271.857C219.639 272.023 219.681 272.54 219.831 273.034C219.981 273.528 220.006 274.381 219.904 274.907C219.736 275.854 219.736 275.854 220.705 276.13C221.243 276.256 222.069 276.483 222.535 276.585C223.708 276.911 228.267 277.028 228.823 276.759C229.064 276.642 229.401 276.598 229.616 276.673C230.261 276.897 234.13 275.649 236.702 274.373C238.49 273.507 239.579 272.8 240.308 272.089ZM72.8168 348.261C73.1704 347.821 73.4047 347.32 73.3228 347.151C73.2409 346.982 73.2688 346.67 73.391 346.491C74.1751 345.217 74.3946 340.13 73.7276 338.754C73.2478 337.763 71.6924 336.4 70.9731 336.331C70.733 336.328 70.3035 336.118 69.9941 335.91C69.7087 335.691 69.1943 335.552 68.8577 335.596C68.5328 335.664 67.5976 335.58 66.7948 335.462C65.9804 335.32 64.7093 335.22 63.9534 335.199C63.1975 335.177 62.514 335.121 62.3948 335.059C62.1562 334.936 51.9187 334.857 47.8726 334.938C44.1867 335.024 43.7073 334.958 43.3657 334.438C42.8822 333.748 43.9434 333.353 46.1644 333.321C47.1486 333.321 48.6495 333.28 49.442 333.253C50.2587 333.216 51.1471 333.203 51.4471 333.206C53.5466 333.293 55.5392 333.282 55.7807 333.164C55.9256 333.094 56.1049 333.157 56.1634 333.277C56.2336 333.422 56.4253 333.449 56.6061 333.391C56.751 333.321 57.5077 333.282 58.2636 333.303C60.4472 333.379 61.6956 333.37 62.0689 333.279C62.2738 333.209 62.7172 333.263 63.0282 333.351C63.375 333.451 63.7226 333.492 63.7951 333.456C64.1815 333.269 66.8335 333.326 67.7189 333.553C68.2574 333.68 68.8333 333.699 69.0265 333.606C69.3405 333.454 69.6047 333.445 71.2248 333.465C72.2808 333.49 74.565 332.234 75.4551 331.117C76.5158 329.798 76.7516 329.177 77.0963 326.564C77.5884 322.718 77.311 319.929 76.3255 319.065C75.3518 318.225 70.5885 316.149 70.1296 316.371C69.9847 316.441 69.6012 316.389 69.3268 316.253C68.4803 315.798 66.0392 315.192 61.7527 314.346C60.6632 314.129 59.6336 313.912 59.4302 313.861C59.2626 313.823 58.5799 313.707 57.9689 313.615C57.3462 313.499 56.6759 313.347 56.4608 313.272C55.7679 313.011 52.4143 312.429 52.1969 312.535C52.0762 312.593 51.2383 312.403 50.3654 312.14C49.4683 311.888 47.9726 311.51 47.0389 311.306C43.8303 310.654 42.8505 310.294 42.7965 309.813C42.7149 308.66 43.7481 308.576 46.5213 309.499C47.155 309.699 48.2921 309.953 49.0831 310.047C49.85 310.153 50.7603 310.308 51.0713 310.396C51.7767 310.621 56.4576 311.604 57.452 311.748C59.681 312.04 60.1361 312.118 60.7698 312.317C61.6427 312.58 63.9169 313.089 65.0906 313.296C65.5816 313.386 66.4919 313.541 67.1147 313.657C67.7132 313.784 68.8986 314.015 69.7372 314.146C72.1681 314.608 74.7022 314.484 75.6823 313.86C77.8238 312.494 80.3576 305.66 79.732 302.891C79.1977 300.496 78.8511 299.412 78.4027 298.794C78.143 298.443 77.7656 297.91 77.5768 297.643C77.2345 297.183 76.5453 296.622 74.3328 295.01C72.7269 293.85 68.7822 292.54 65.9298 292.193C64.5395 292.031 63.2333 291.859 62.9941 291.796C62.7665 291.757 62.4906 291.742 62.394 291.789C61.6094 292.139 50.7953 289.207 50.8503 288.644C50.8526 288.464 50.8167 288.451 50.7069 288.594C50.6088 288.761 49.8785 288.608 49.078 288.31C48.2776 288.012 47.2971 287.711 46.8895 287.67C46.506 287.618 45.5131 287.353 44.7001 287.091C43.8872 286.829 41.8508 286.503 40.1845 286.326C38.53 286.174 37.0929 285.916 36.9993 285.723C36.9174 285.554 37.006 285.183 37.2256 284.897C37.5192 284.457 37.8558 284.413 39.3179 284.599C40.2523 284.743 41.1399 284.79 41.2365 284.743C41.3573 284.685 41.9925 284.765 42.6261 284.965C43.2722 285.129 43.8708 285.256 43.9674 285.209C44.1606 285.116 44.6392 285.242 50.7973 287.119C58.6538 289.485 60.3529 289.915 62.0089 289.947C62.7531 289.945 63.8917 290.079 64.5503 290.207C65.2088 290.335 65.8923 290.392 66.0372 290.322C66.3029 290.193 66.507 290.183 68.2472 290.205C69.279 290.242 71.6757 289.588 73.4015 288.841C74.0411 288.561 75.726 287.238 76.2019 286.619C76.8973 285.716 77.7215 282.185 77.5968 280.635C77.4721 279.085 76.1535 276.056 75.4723 275.82C75.2572 275.745 74.9843 275.489 74.879 275.272C74.4694 274.427 69.7494 271.763 68.0496 271.394C67.6069 271.28 67.1774 271.071 67.1072 270.926C67.0253 270.757 66.3214 270.412 65.5326 270.138C64.768 269.853 64.0758 269.532 63.9814 269.399C63.9229 269.278 63.1707 268.957 62.2861 268.669C61.4132 268.407 60.6727 268.109 60.6259 268.013C60.5791 267.916 59.6601 267.496 58.5969 267.087C56.4589 266.244 53.7962 265.119 51.8265 264.254C51.1344 263.933 49.63 263.29 48.5317 262.809C47.4093 262.338 46.0008 261.709 45.3445 261.401C43.6382 260.587 38.7138 258.917 37.9103 258.859C36.5309 258.782 31.0044 262.086 30.0014 263.586C29.9275 263.741 29.6969 263.942 29.5637 264.037C28.9826 264.437 28.139 266.635 28.1372 267.74C28.1414 268.364 28.1441 269.108 28.1521 269.432C28.1262 270.548 29.2831 275.952 29.8426 277.291C30.0174 277.714 30.1314 278.195 30.1174 278.351C30.091 278.543 30.4727 279.7 30.9495 280.93C31.4138 282.196 31.8906 283.426 31.9952 283.704C32.1341 284.114 32.5514 286.267 32.5922 286.844C32.6032 286.928 32.6353 287.241 32.6791 287.577C32.7784 288.275 31.3435 290.729 30.6431 291.069C30.1842 291.291 29.5144 292.063 28.305 293.752C27.5357 294.811 26.6166 297.284 26.5922 298.28C26.5738 298.796 26.458 299.419 26.3467 299.681C26.2229 299.98 26.206 300.376 26.3113 300.593C26.4166 300.81 26.4691 301.411 26.439 301.903C26.4183 302.599 26.7664 303.563 28.0177 306.208C29.9354 310.289 29.9996 310.914 28.8624 313.552C27.5393 316.668 27.1005 318.163 27.1067 319.592C27.0853 320.348 27.1129 321.02 27.1239 321.104C27.159 321.177 27.1918 321.429 27.213 321.658C27.4114 324.037 27.7916 325.314 29.5401 329.477C32.7001 336.922 33.7787 339.948 34.2507 342.522C34.4985 343.834 34.6628 345.096 34.5998 345.336C34.5492 345.539 34.6259 346.128 34.7633 346.658C35.1194 347.947 36.2007 348.824 38.0073 349.291C41.4889 350.199 43.6438 350.646 44.6281 350.646C45.1798 350.677 46.1984 350.809 46.857 350.938C47.5273 351.09 48.7025 351.177 49.4833 351.126C50.2758 351.1 50.9959 351.109 51.1152 351.171C51.2344 351.232 51.7262 351.262 52.2062 351.268C52.7104 351.263 53.6947 351.263 54.4389 351.26C56.3708 351.308 62.0399 351.007 62.5339 350.857C62.7871 350.764 63.1238 350.72 63.2913 350.758C63.4714 350.761 64.0488 350.66 64.6028 350.511C65.1326 350.373 65.6734 350.32 65.7927 350.382C65.9236 350.467 66.7052 350.357 67.5483 350.127C68.3789 349.934 69.2329 349.788 69.4005 349.826C69.6039 349.877 70.1454 349.764 70.6394 349.614C71.1217 349.44 71.664 349.266 71.8331 349.185C72.0138 349.127 72.4391 348.712 72.8168 348.261ZM340.65 218.402C342.192 216.969 344.548 214.754 345.034 214.28C345.181 214.09 345.435 213.877 345.533 213.77C345.666 213.675 346.238 213.07 346.81 212.405C347.394 211.765 348.076 211.017 348.343 210.768C348.574 210.507 348.964 210.08 349.219 209.807C349.45 209.546 349.779 209.178 349.937 209.012C350.095 208.845 350.352 208.513 350.486 208.298C350.621 208.084 351.646 206.752 352.756 205.35C353.854 203.923 354.734 202.602 354.712 202.433C354.703 202.229 354.813 202.087 354.969 202.1C355.124 202.114 355.479 201.615 355.763 200.97C356.023 200.337 356.342 199.765 356.487 199.695C356.632 199.625 357.234 198.528 357.838 197.251C358.442 195.974 358.995 194.901 359.068 194.866C359.164 194.819 359.499 193.971 359.799 192.99C360.524 190.671 360.296 189.708 358.693 188.307C355.892 185.788 353.908 183.171 351.964 179.281C348.954 173.314 346.505 169.491 344.689 167.836C344.499 167.689 344.309 167.483 344.274 167.411C343.908 166.902 341.383 165.382 340.319 165.033C337.497 164.133 337.151 164.033 336.885 164.162C336.74 164.232 336.549 164.145 336.455 163.952C336.362 163.759 336.099 163.648 335.871 163.669C335.642 163.69 334.999 163.286 334.417 162.823C333.526 162.091 333.208 161.559 332.133 159.217C331.444 157.732 330.694 156.247 330.434 155.955C328.766 153.99 326.409 152.388 324.4 151.811C323.216 151.46 318.464 151.317 317.885 151.598C317.74 151.668 317.02 151.659 316.265 151.578C314.934 151.417 314.803 151.331 312.752 149.313C312.42 148.997 312.149 148.562 310.445 145.66C309.822 144.56 308.844 143.095 308.265 142.392C307.71 141.676 306.457 140.136 305.523 138.949C303.585 136.488 301.496 134.637 300.276 134.274C298.41 133.747 294.827 134.23 291.776 135.44C289.014 136.51 288.282 137.401 287.01 141.238C286.462 142.876 286.06 144.263 286.119 144.384C286.224 144.601 286.023 145.355 284.886 148.918C284.411 150.46 284.046 151.8 284.093 151.897C284.139 151.993 283.988 152.604 283.8 153.261C283.587 153.931 283.173 155.354 282.871 156.455C282.606 157.568 282.179 159.087 281.965 159.876C281.751 160.666 281.596 161.516 281.641 161.793C281.661 162.081 281.551 162.284 281.371 162.281C281.215 162.267 281.141 162.423 281.234 162.616C281.34 162.833 281.325 163.049 281.18 163.119C280.938 163.236 279.85 167.76 280.002 168.074C280.049 168.17 279.897 168.781 279.65 169.378C278.968 171.11 278.621 172.978 278.544 175.281C278.472 177.225 278.539 177.55 279.44 179.47C280.317 181.281 280.577 181.632 281.803 182.5C283.682 183.856 284.97 184.544 285.356 184.357C285.525 184.275 285.789 184.326 285.955 184.484C286.323 184.813 288.607 184.541 289.814 184.016C290.284 183.818 291.034 183.395 291.446 183.076C291.87 182.781 292.742 182.12 293.384 181.66C294.438 180.881 297.01 177.696 297.517 176.526C297.628 176.263 297.934 175.847 298.164 175.646C298.407 175.409 298.8 174.742 299.023 174.156C299.235 173.547 299.456 173.141 299.491 173.214C299.538 173.31 299.672 173.156 299.783 172.893C299.894 172.631 299.874 172.342 299.707 172.244C299.54 172.146 299.613 172.051 299.866 172.018C300.154 171.998 300.586 171.043 301.175 169.058C301.675 167.444 302.172 166.07 302.342 165.988C302.486 165.917 303.029 164.76 303.538 163.41C305.287 158.835 306.579 156.33 308.508 153.725C309.265 152.703 309.313 152.679 309.838 152.962C310.637 153.38 310.67 153.572 310.062 154.225C309.746 154.557 309.379 155.093 309.23 155.463C309.082 155.833 308.677 156.536 308.335 157C307.993 157.464 307.525 158.406 307.277 159.063C307.017 159.696 306.685 160.304 306.541 160.375C306.371 160.456 306.284 160.767 306.34 161.068C306.396 161.369 306.271 161.788 306.052 162.013C305.638 162.452 303.683 167.217 302.289 171.172C301.879 172.295 301.483 173.263 301.386 173.31C301.289 173.356 301.068 173.762 300.882 174.239C300.4 175.398 298.917 177.876 297.769 179.446C297.207 180.195 296.245 182.272 295.561 184.184C294.529 187.039 294.313 188.009 294.324 190.002C294.335 192.054 294.46 192.62 295.138 194.081C296.518 196.931 297.856 198.4 299.851 199.193C300.15 199.317 301.344 199.812 302.478 200.306C304.508 201.171 305.585 201.425 307.29 201.374C308.442 201.352 308.974 201.035 310.227 199.742C311.358 198.568 311.848 197.794 313.436 194.609C313.977 193.511 314.801 191.949 315.267 191.127C315.71 190.316 316.055 189.552 315.997 189.432C315.938 189.311 316.011 189.216 316.179 189.254C316.359 189.256 316.481 189.078 316.508 188.826C316.551 188.298 317.917 185.579 318.231 185.426C318.352 185.368 318.475 185.129 318.49 184.914C318.504 184.698 318.788 184.053 319.095 183.517C319.671 182.552 320.374 181.048 321.29 178.875C321.55 178.242 321.905 177.682 322.074 177.6C322.243 177.519 322.365 177.34 322.367 177.22C322.356 177.076 322.739 176.204 323.244 175.214C324.806 172.161 324.66 172.351 325.234 172.491C326.215 172.731 326.199 173.067 324.885 175.463C324.529 176.143 324.356 176.525 323.702 177.945C323.628 178.1 322.951 179.472 322.188 180.975C321.437 182.442 320.832 183.778 320.831 183.899C320.841 184.043 320.743 184.209 320.598 184.28C320.453 184.35 320.135 184.862 319.863 185.471C319.604 186.044 319.198 186.867 318.964 187.308C318.73 187.749 318.384 188.573 318.149 189.134C317.938 189.684 317.533 190.447 317.264 190.816C316.971 191.196 316.479 192.15 316.109 192.926C315.775 193.714 315.171 195.051 314.776 195.898C313.961 197.724 312.058 203.03 312.3 202.913C312.396 202.866 312.356 203.214 312.194 203.68C311.895 204.6 312.306 206.31 312.903 206.557C313.105 206.668 313.532 207.057 313.816 207.457C314.111 207.821 314.587 208.187 314.862 208.262C315.125 208.313 315.399 208.509 315.493 208.702C315.574 208.871 316.133 209.286 316.717 209.63C317.301 209.973 318.099 210.511 318.538 210.865C319.061 211.267 319.887 211.494 321.242 211.583C322.897 211.675 323.415 211.574 324.827 210.919C326.433 210.171 326.554 210.052 329.008 206.746C332.695 201.799 337.623 195.475 341.817 190.282C343.486 188.25 344.37 187.673 344.721 188.397C344.885 188.735 344.662 189.261 344.015 190.141C343.49 190.843 342.967 191.424 342.858 191.447C342.774 191.458 342.627 191.708 342.576 191.972C342.5 192.247 342.244 192.58 341.978 192.708C341.737 192.825 340.994 193.692 340.346 194.632C339.698 195.573 338.735 196.785 338.176 197.354C337.64 197.912 337.105 198.529 337.042 198.708C336.944 198.875 335.857 200.386 334.624 202.027C332.196 205.201 330.985 207.071 330.918 207.61C330.904 207.766 330.673 208.027 330.431 208.144C329.924 208.39 328.856 211.233 328.706 212.708C328.607 213.919 329.647 216.128 330.741 216.97C331.645 217.666 333.706 218.904 334.781 219.337C337.276 220.425 337.575 220.488 338.396 220.09C338.831 219.88 339.861 219.112 340.65 218.402ZM269.778 250.683C270.095 250.291 270.402 249.754 270.489 249.503C270.6 249.241 270.907 248.704 271.2 248.324C271.481 247.919 271.666 247.502 271.608 247.381C271.537 247.236 271.611 247.081 271.78 246.999C271.925 246.929 272.354 246.214 272.712 245.414C273.07 244.614 273.562 243.66 273.795 243.279C274.028 242.898 274.546 241.752 274.943 240.725C275.34 239.697 275.796 238.791 275.916 238.732C276.412 238.463 277.431 234.718 277.414 233.206C277.386 231.609 277.145 230.682 276.807 230.846C276.638 230.927 275.874 231.566 274.503 232.737C274.272 232.938 273.51 233.457 272.82 233.881C271.671 234.586 270.939 235.538 271.161 235.996C271.313 236.31 270.195 239.357 269.646 240.071C269.378 240.439 269.033 241.083 268.932 241.49C268.807 241.909 268.598 242.278 268.453 242.348C268.309 242.419 267.941 243.014 267.597 243.658C267.277 244.29 266.691 245.111 266.326 245.467C265.645 246.154 265.645 246.154 266.628 248.183C267.681 250.357 267.868 251.787 267.341 253.593C267.128 254.323 267.225 254.216 268.166 252.895C268.752 252.074 269.497 251.087 269.778 250.683ZM90.9823 338.236C91.117 338.022 90.495 337.846 89.1156 337.769C86.8611 337.609 85.4862 337.172 85.1468 336.471C84.7958 335.747 85.5532 335.648 87.7916 336.144C88.9645 336.411 90.019 336.556 90.1397 336.498C90.2847 336.427 90.8372 336.398 91.4014 336.393C91.9773 336.412 92.6139 336.372 92.8188 336.303C93.2279 336.224 95.7937 335.488 96.4927 335.268C97.1433 335.072 99.5652 333.362 99.7621 332.969C99.8727 332.766 100.067 332.612 100.222 332.626C100.378 332.64 100.694 332.368 100.963 331.999C101.219 331.666 101.51 331.406 101.618 331.443C101.725 331.481 101.895 331.339 102.006 331.136C102.104 330.909 102.505 330.506 102.845 330.222C103.209 329.927 103.756 329.393 104.048 329.013C104.792 328.086 106.143 326.627 106.251 326.604C106.311 326.605 106.533 326.139 106.744 325.59C106.955 325.04 107.2 324.623 107.332 324.649C107.439 324.686 107.684 324.329 107.87 323.851C108.056 323.374 108.338 322.909 108.507 322.827C109.352 322.417 111.777 315.666 112.549 311.475C112.921 309.535 113.133 308.001 113.048 308.012C112.988 308.011 112.677 307.983 112.329 307.943C111.982 307.903 111.166 307.88 110.494 307.848C108.394 307.822 106.416 307.617 104.392 307.256C101.577 306.741 100.419 305.334 100.372 302.345C100.329 299.055 101.757 297.14 104.914 296.208C106.407 295.782 109.195 295.505 111.307 295.555C112.003 295.576 112.016 295.54 111.9 295.178C111.842 294.998 111.472 293.925 111.077 292.804C110.683 291.682 110.287 290.741 110.215 290.716C110.144 290.691 109.423 290.742 108.654 290.817C106.081 291.109 103.815 289.94 102.476 287.607C101.43 285.818 101.92 283.135 103.56 281.535C104.131 280.99 104.534 280.467 104.475 280.346C104.276 279.936 102.03 277.207 101.578 276.829C101.329 276.622 100.844 276.052 100.514 275.556C100.16 275.071 99.5796 274.428 99.2116 274.099C98.8553 273.794 98.3213 273.308 98.085 273.005C96.4514 271.172 90.3693 267.051 88.0746 266.254C87.5727 266.08 86.7971 265.71 86.38 265.465C85.4508 264.901 81.3341 263.914 78.5176 263.578C76.0487 263.284 72.3642 263.25 72.277 263.501C72.2638 263.597 72.8492 263.82 73.6028 264.021C76.881 264.878 82.27 266.83 83.7355 267.701C84.0809 267.921 84.844 268.327 85.4644 268.622C86.0491 268.906 86.5729 269.248 86.6314 269.369C86.69 269.49 87.2138 269.832 87.8101 270.14C88.3947 270.423 89.0013 270.875 89.1783 271.117C89.3436 271.335 89.8777 271.822 90.3649 272.212C90.8405 272.578 91.3395 272.993 91.4221 273.102C91.5165 273.235 91.6943 273.417 91.8011 273.515C92.867 274.668 94.5764 277.15 95.1966 278.43C96.2615 280.628 97.0009 284.862 96.373 285.166C96.2281 285.237 96.2017 285.428 96.2836 285.597C96.3538 285.742 96.2101 286.677 95.9223 287.621C95.6461 288.59 95.4674 289.452 95.5259 289.573C95.5844 289.694 95.4429 290.448 95.229 291.238C94.2505 294.634 94.0413 296.972 94.6799 297.736C94.7509 297.821 94.7837 298.074 94.7449 298.301C94.6943 298.505 94.771 299.094 94.9209 299.588C95.9716 302.926 94.3269 312.58 92.2625 315.459C91.6519 316.291 91.5098 317.106 91.4343 320.274C91.3892 321.965 90.8354 324.023 90.4278 323.982C90.2961 323.956 90.1372 324.182 90.0742 324.422C89.9101 325.068 87.5512 326.539 86.5538 326.634C85.9771 326.675 85.8198 326.781 85.9251 326.999C86.2293 327.627 85.8941 330.443 85.3618 331.745C84.3469 334.205 82.4854 336.21 78.8412 338.721C77.8121 339.429 76.854 340.221 76.7186 340.495C76.4975 340.901 76.7126 340.975 78.3935 340.936C79.4619 340.926 80.8918 340.799 81.5417 340.663C82.1915 340.527 83.1897 340.372 83.7305 340.319C84.5955 340.257 87.6538 339.491 89.8588 338.811C90.2321 338.719 90.5695 338.615 90.6419 338.58C90.7261 338.569 90.8842 338.403 90.9823 338.236ZM91.8144 337.923C91.7793 337.85 91.7076 337.825 91.6351 337.861C91.5627 337.896 91.5378 337.967 91.5729 338.04C91.608 338.112 91.6797 338.137 91.7522 338.102C91.8246 338.067 91.8495 337.995 91.8144 337.923ZM322.051 225.624C322.997 224.868 324.101 223.945 324.489 223.578C324.89 223.235 325.581 222.631 326.006 222.277C326.673 221.685 327.586 220.676 329.013 218.881C329.44 218.346 329.44 218.346 328.779 218.398C328.407 218.43 326.469 218.862 324.482 219.377C320.412 220.394 318.659 220.469 316.232 219.646C315.408 219.36 314.167 218.708 313.526 218.184C312.325 217.245 312.325 217.245 311.14 217.998C310.341 218.504 309.762 218.725 309.439 218.613C309.176 218.562 308.875 218.618 308.79 218.749C308.704 218.88 308.343 218.936 308.008 218.859C307.673 218.783 307.205 218.801 306.987 218.907C306.456 219.164 305.31 218.646 303.919 217.56C301.875 215.926 300.326 215.007 299.737 215.083C298.847 215.216 293.816 213.449 291.778 212.26C288.966 210.64 286.543 208.593 284.069 205.766C282.696 204.224 280.527 202.949 275.954 201.019C271.083 198.966 268.788 196.261 267.413 191.023C266.852 188.819 266.491 185.058 266.67 183.211C266.738 182.552 266.746 181.952 266.687 181.831C266.629 181.71 266.731 181.244 266.917 180.766C267.103 180.288 267.204 179.821 267.146 179.7C267.087 179.58 267.079 179.315 267.142 179.076C268.116 175.055 269.461 171.123 270.655 168.785C271.11 167.879 271.48 167.103 271.457 167.055C271.129 166.379 266.33 172.909 265.558 175.131C265.446 175.454 265.088 176.254 264.768 176.886C264.214 178.019 263.032 182.35 262.692 184.542C262.589 185.129 262.654 185.694 262.833 185.816C262.999 185.914 262.999 185.974 262.855 185.924C262.508 185.824 262.283 187.514 262.342 189.543C262.369 190.275 262.369 191.2 262.364 191.62C262.266 193.695 263.91 202.382 264.515 202.953C264.646 203.099 265.174 203.082 265.68 202.956C266.607 202.715 269.36 203.35 269.749 203.907C269.855 204.064 270.116 204.296 270.306 204.442C270.949 204.846 271.647 206.655 271.688 208.156C271.766 209.609 270.812 212.01 269.916 212.623C268.73 213.437 268.714 213.772 269.784 215.55C270.348 216.469 271.009 217.402 271.246 217.645C271.708 218.107 271.708 218.107 273.219 216.361C274.059 215.387 275.48 214.013 276.414 213.292C278.05 211.992 278.171 211.934 279.637 211.76C280.647 211.629 281.343 211.709 281.687 211.99C281.96 212.245 282.343 212.358 282.536 212.264C282.705 212.182 282.932 212.281 283.025 212.474C283.131 212.692 283.57 213.045 283.987 213.291C285.823 214.31 286.773 217.07 285.794 218.618C285.548 219.036 285.229 219.608 285.118 219.87C284.537 221.195 283.947 222.316 283.778 222.398C283.681 222.445 283.315 222.981 282.995 223.553C282.652 224.137 282.249 224.72 282.043 224.849C281.837 224.979 281.531 225.455 281.334 225.909C281.136 226.362 280.952 226.66 280.905 226.564C280.87 226.491 280.798 226.526 280.76 226.634C280.711 226.777 281.139 227.107 281.699 227.402C282.272 227.661 282.832 228.016 282.938 228.173C283.068 228.319 283.784 228.688 284.536 229.009C285.312 229.319 285.98 229.652 286.027 229.748C286.144 229.99 291.342 231.855 291.583 231.738C291.68 231.691 292.111 231.781 292.553 231.954C294.035 232.489 295.773 232.69 299.336 232.783C301.292 232.819 302.913 232.839 302.937 232.828C303.022 232.757 303.875 232.671 305.065 232.542C306.435 232.415 306.556 232.357 305.899 232.048C304.944 231.616 302.924 230.031 302.095 229.06C301.457 228.296 301.34 228.055 301.465 227.636C301.726 226.943 302.554 226.929 302.893 227.63C303.046 227.944 303.365 228.356 303.602 228.539C303.828 228.698 304.316 229.088 304.684 229.417C305.42 230.014 306.53 230.58 307.523 230.844C307.894 230.933 308.382 231.203 308.655 231.459C308.928 231.714 309.323 231.791 309.637 231.639C310.169 231.381 310.169 231.381 309.511 231.193C308.721 230.979 307.453 229.655 306.903 228.52C306.623 227.94 306.637 227.725 307 227.549C307.507 227.303 308.379 227.626 308.338 228.034C308.324 228.19 308.644 228.542 309.024 228.835C309.429 229.116 309.749 229.408 309.784 229.48C309.889 229.698 311.67 230.356 311.887 230.251C312.322 230.04 312.184 229.57 311.67 229.372C310.785 229.085 310.149 228.14 310.55 227.737C310.757 227.488 311.225 227.53 312.036 227.912C313.182 228.43 315.196 228.647 315.872 228.32C316.089 228.214 316.46 228.303 316.722 228.474C317.15 228.804 317.379 228.723 318.77 227.9C319.629 227.394 321.094 226.356 322.051 225.624ZM257.883 255.492C258.248 255.076 258.421 252.786 258.117 252.158C257.918 251.747 257.239 251.331 256.14 250.909C250.918 248.995 247.207 245.336 247.306 242.217C247.345 241.005 247.948 238.864 248.31 238.688C248.431 238.63 248.701 238.141 248.912 237.592C249.422 236.182 250.308 234.38 251.202 232.963C252.195 231.319 254.707 228.133 255.166 227.911C255.359 227.817 255.482 227.639 255.411 227.494C255.224 227.108 260.234 224.769 260.808 224.969C261.561 225.23 262.797 225.258 262.404 225.001C262.226 224.878 262.478 224.845 262.922 224.899C263.628 225.004 264.111 224.83 265.477 224.019C266.432 223.466 267.389 222.794 267.573 222.496C267.951 221.985 267.951 221.985 266.64 221.248C265.913 220.855 265.138 220.426 264.899 220.303C263.743 219.64 259.784 218.546 259.122 218.718C258.953 218.74 258.413 218.793 257.92 218.823C256.503 218.914 254.45 219.908 252.739 221.363C251.878 222.109 250.968 222.878 250.726 223.055C250.495 223.256 250.324 223.518 250.346 223.686C250.367 223.854 250.246 223.973 250.09 223.959C249.958 223.933 249.57 224.24 249.265 224.657C248.972 225.037 248.693 225.322 248.658 225.249C248.611 225.153 248.5 225.355 248.377 225.654C248.289 225.965 248.032 226.298 247.839 226.391C247.646 226.485 247.548 226.652 247.618 226.797C247.677 226.918 247.48 227.251 247.153 227.499C246.595 227.948 244.543 230.851 244.441 231.318C244.415 231.45 244.133 231.915 243.803 232.403C243.461 232.866 243.068 233.594 242.931 233.988C242.559 234.944 241.537 237.02 241.318 237.245C241.221 237.352 241.195 237.543 241.265 237.688C241.335 237.833 241.221 238.276 241.012 238.705C240.803 239.135 240.677 239.553 240.736 239.674C240.783 239.771 240.692 240.322 240.528 240.908C239.965 242.761 240.182 246.533 240.955 248.127C241.423 249.093 243.676 251.282 244.287 251.373C244.443 251.387 244.812 251.596 245.145 251.852C246.025 252.499 247.636 253.3 252.184 255.301C253.855 256.042 254.285 256.191 256.284 256.684C257.265 256.925 257.325 256.925 257.501 256.303C257.601 255.956 257.774 255.575 257.883 255.492ZM237.332 262.377C237.824 261.423 238.829 259.803 239.561 258.792C240.306 257.805 241.173 256.64 241.454 256.235C241.759 255.819 242.454 254.975 243.014 254.346C243.902 253.349 244.128 252.584 243.48 252.6C243.131 252.619 241.053 250.853 240.475 250.03C240.192 249.63 239.92 249.314 239.895 249.326C239.823 249.361 237.821 252.061 236.953 253.286C236 254.643 234.023 258.195 233.454 259.604C233.306 259.915 232.961 260.619 232.69 261.167C231.843 262.681 230.712 265.764 230.927 265.899C231.177 266.046 232.489 265.738 234.262 265.088C235.021 264.809 235.72 264.59 235.804 264.639C236.079 264.714 236.421 264.191 237.332 262.377ZM183.205 288.841C183.892 287.614 184.604 284.466 184.311 283.862C184.299 283.838 183.431 284.139 182.346 284.546C181.285 284.941 180.033 285.249 179.577 285.231C179.097 285.225 178.133 285.513 177.348 285.924C176.587 286.322 175.37 286.703 174.648 286.814C173.915 286.901 173.049 287.022 172.712 287.126C171.195 287.503 170.858 287.547 169.945 287.572C169.417 287.589 168.275 287.695 167.446 287.829C166.616 287.963 165.679 287.999 165.38 287.935C165.093 287.836 164.709 287.843 164.564 287.913C164.274 288.053 160.914 287.951 158.985 287.723C158.337 287.679 157.725 287.648 157.605 287.706C157.484 287.765 157.089 287.688 156.718 287.539C156.348 287.39 155.905 287.337 155.712 287.43C155.543 287.512 155.362 287.51 155.316 287.414C155.257 287.293 154.479 287.103 153.605 286.96C151.688 286.636 149.891 285.449 149.224 284.073C148.955 283.517 148.83 282.952 148.928 282.785C149.221 282.344 146.242 277.734 144.889 276.541C144.259 275.981 144.259 275.981 143.75 278.315C143.482 279.608 143.177 280.949 143.101 281.284C142.155 284.993 143.188 288.727 145.594 290.245C146.439 290.82 149.01 291.572 149.373 291.396C149.542 291.315 149.757 291.329 149.853 291.402C149.948 291.476 151.505 291.735 153.327 291.926C155.161 292.141 157.006 292.38 157.461 292.458C157.905 292.511 158.481 292.53 158.71 292.449C158.975 292.38 159.466 292.411 159.813 292.511C160.148 292.647 161.503 292.736 162.823 292.752C164.131 292.745 165.427 292.773 165.667 292.776C165.919 292.803 166.459 292.81 166.868 292.791C167.276 292.772 168.273 292.736 169.077 292.734C171.178 292.701 174.388 292.248 177.06 291.67C181.502 290.681 182.383 290.284 183.205 288.841ZM76.6379 338.298C77.0602 338.123 79.3855 336.459 79.9682 335.939C80.0897 335.82 80.4776 335.513 80.8172 335.229C82.115 334.153 83.1428 332.581 83.7902 330.717C84.1154 329.665 84.344 328.659 84.2621 328.49C84.1685 328.297 84.2088 327.949 84.3201 327.687C84.5669 327.15 84.1615 326.929 82.7338 326.875C82.0138 326.866 81.5733 326.572 80.661 325.613C80.0217 324.909 79.4159 324.397 79.3193 324.444C79.2227 324.49 79.1529 325.27 79.1534 326.194C79.1404 328.198 78.1071 331.174 77.075 332.122C76.6864 332.489 76.2128 332.927 76.0664 333.117C75.9083 333.283 75.2188 333.707 74.5543 334.059C73.1644 334.822 72.775 335.249 73.2879 335.507C73.8367 335.778 74.6274 336.856 75.2352 338.172C75.6791 339.15 75.8093 339.296 75.9697 338.95C76.0927 338.711 76.3964 338.415 76.6379 338.298ZM327.664 215.42C327.302 214.611 326.966 213.61 326.959 213.226C326.852 212.145 326.604 211.817 326.168 212.148C325.284 212.785 322.023 213.441 320.453 213.277C318.918 213.126 316.924 212.273 315.272 211.016C314.38 210.345 314.245 210.559 314.549 212.171C314.728 213.218 314.2 215.144 313.556 215.784C313.252 216.08 316.265 217.99 316.7 217.779C316.869 217.698 317.227 217.822 317.477 218.029C317.916 218.383 320.039 218.577 321.997 218.434C322.405 218.415 323.706 218.083 324.923 217.702C326.14 217.321 327.259 217.047 327.463 217.097C328.252 217.311 328.306 216.868 327.664 215.42ZM189.171 279.121C189.463 278.861 190.299 278.247 191.025 277.716C191.764 277.209 192.637 276.488 192.93 276.108C193.259 275.74 193.854 275.183 194.266 274.864C194.678 274.545 195.127 274.118 195.286 273.892C195.421 273.678 196.138 272.943 196.867 272.232C198.094 271.071 198.691 270.394 200.652 268.042C201.36 267.162 202.065 266.403 202.307 266.226C202.974 265.694 205.787 261.528 206.282 260.334C206.89 258.757 206.89 258.757 205.392 259.483C203.895 260.208 203.895 260.208 203.316 259.445C202.844 258.779 202.665 258.716 202.061 259.009C201.361 259.348 201.361 259.348 200.647 257.875C200.261 257.078 199.884 256.485 199.811 256.58C199.714 256.687 199.421 257.068 199.104 257.46C198.811 257.84 198.468 258.364 198.381 258.615C198.294 258.866 198.05 259.163 197.857 259.257C197.664 259.35 197.225 259.861 196.87 260.421C196.539 260.969 195.833 261.788 195.323 262.274C194.813 262.76 194.241 263.365 194.057 263.662C193.385 264.674 189.45 268.37 187.256 270.059C184.917 271.819 179.867 274.444 177.337 275.193C176.109 275.55 174.549 275.47 174.267 275.011C173.867 274.369 170.696 273.61 169.947 273.973C169.85 274.019 169.857 274.464 169.995 274.933C170.097 275.391 170.15 275.992 170.087 276.231C169.934 276.961 171.668 280.296 172.62 281.028C174.022 282.137 177.149 283.605 177.632 283.371C177.752 283.312 178.196 283.366 178.614 283.491C179.463 283.766 180.065 283.653 181.946 282.98C182.657 282.725 183.248 282.528 183.283 282.541C183.415 282.567 188.71 279.524 189.171 279.121ZM145.324 298.428C146.848 297.511 148.433 296.474 148.833 296.131C149.234 295.788 149.901 295.256 150.324 294.961C152.541 293.32 152.515 293.512 150.634 293.261C149.699 293.117 148.119 292.749 147.091 292.412C145.501 291.9 145.19 291.872 144.656 292.31C142.921 293.777 138.577 296.627 137.588 296.987C136.949 297.207 135.829 297.481 135.084 297.604C133.749 297.803 133.749 297.803 132.937 299.39C132.494 300.26 132.017 300.999 131.908 301.021C131.776 301.056 131.413 301.291 131.097 301.563C130.041 302.522 131.487 303.969 133.456 303.969C135.604 303.972 137.645 303.013 145.324 298.428ZM235.602 252.898C236.152 252.124 236.569 251.385 236.522 251.289C236.382 250.999 231.255 249.218 229.005 248.698C227.796 248.419 226.455 248.114 226.037 247.989C225.594 247.876 225.102 247.845 224.933 247.927C224.764 248.009 224.176 247.966 223.626 247.815C222.669 247.563 222.115 247.712 222.337 248.171C222.396 248.292 222.448 248.893 222.441 249.493C222.455 250.261 222.258 250.715 221.809 251.081C221.166 251.601 221.117 252.669 221.689 253.048C221.844 253.122 221.769 253.337 221.587 253.515C221.284 253.751 221.391 253.789 221.957 253.664C222.378 253.609 222.749 253.638 222.808 253.758C222.866 253.879 223.058 253.905 223.251 253.812C223.445 253.718 223.685 253.721 223.791 253.819C223.887 253.892 225.168 254.136 226.666 254.335C230.057 254.809 230.463 254.91 232.144 255.855C233.479 256.64 233.479 256.64 234.033 255.507C234.329 254.886 235.04 253.707 235.602 252.898ZM87.8989 323.686C87.5478 322.962 86.7138 319.579 86.5845 318.389C86.351 315.937 86.5403 311.342 86.9462 309.595C87.1997 308.518 87.4305 307.332 87.4592 306.961C87.4995 306.613 87.6723 306.231 87.8414 306.149C88.0346 306.056 88.2799 305.639 88.3692 305.208C88.5201 304.657 88.7273 304.408 89.0998 304.377C89.5564 304.334 89.6983 304.504 90.1268 305.758C90.6372 307.18 90.6372 307.18 90.8277 306.343C90.9537 305.864 91.0483 305.013 91.0675 304.437C91.1108 303.849 91.2289 303.047 91.3417 302.664C91.4545 302.281 91.6223 301.335 91.7403 300.532C91.8342 299.741 92.0658 298.496 92.2314 297.73C92.397 296.964 92.5135 296.281 92.4667 296.184C92.3848 296.015 93.1233 292.616 93.5745 291.085C93.6998 290.666 93.7533 290.223 93.6948 290.102C93.6246 289.957 93.8128 289.3 94.0977 288.595C94.3584 287.902 94.5357 287.16 94.5021 286.968C94.4568 286.751 94.5088 286.427 94.6077 286.201C94.9291 285.448 95.1946 283.411 94.9794 283.337C94.8719 283.299 94.8273 283.023 94.9152 282.712C95.1812 281.599 91.1664 274.359 89.9972 273.792C89.8179 273.73 89.0811 273.133 88.381 272.488C85.1408 269.555 76.8192 265.982 71.2967 265.109C70.4223 264.966 69.6079 264.824 69.5003 264.786C68.9625 264.6 66.8419 264.285 65.7025 264.211C64.9708 264.178 63.7114 264.102 62.9321 264.032C62.1286 263.974 61.2768 263.94 61.0368 263.937C60.8085 263.958 60.3884 263.953 60.1367 263.926C59.885 263.898 59.129 263.877 58.469 263.869C57.8089 263.86 56.9337 263.778 56.5503 263.725C56.131 263.66 55.8544 263.704 55.9129 263.825C56.0533 264.115 57.2335 264.766 58.1298 265.077C58.5484 265.202 59.2764 265.535 59.7776 265.769C60.6725 266.201 62.798 267.079 68.6026 269.396C71.6004 270.598 73.3886 271.581 75.3618 273.13C76.4197 273.959 76.6786 274.37 78.1063 277.317C79.686 280.577 79.686 280.577 79.5334 282.232C79.438 283.143 79.3917 283.97 79.4385 284.067C79.6491 284.502 78.0055 287.326 76.8504 288.512C76.3644 288.986 75.7218 289.506 75.4078 289.658C74.8523 289.927 74.8267 290.059 74.9145 292.641C74.9108 292.941 75.1829 293.256 75.6241 293.49C76.0177 293.687 76.9206 294.442 77.6675 295.184C78.8051 296.362 79.135 296.858 80.1844 299.332C80.8375 300.865 81.4664 302.409 81.5578 302.782C81.8568 303.83 81.6329 306.384 81.0727 307.997C80.8105 308.81 80.4113 310.018 80.1989 310.687C79.999 311.321 79.1775 312.703 78.3964 313.737C76.969 315.592 76.969 315.592 78.3593 318.646C80.2176 322.666 81.7531 324.666 83.2378 324.961C84.7942 325.28 86.2717 325.191 87.2978 324.723C88.1065 324.361 88.168 324.242 87.8989 323.686ZM311.215 215.815C312.284 214.76 313.027 212.969 312.787 211.981C312.684 211.584 312.56 210.898 312.458 210.441C312.245 209.262 309.751 204.177 309.017 203.4C308.543 202.914 308.22 202.802 307.858 202.978C307.556 203.094 306.751 203.156 306.068 203.099C305.373 203.019 304.629 202.961 304.401 202.982C302.697 202.973 296.209 199.616 296.113 198.678C296.103 198.474 295.938 198.256 295.759 198.194C295.579 198.131 294.874 196.922 294.16 195.509C292.849 192.804 292.426 191.13 292.514 188.851C292.554 187.579 292.061 186.685 290.929 186.01C290.44 185.74 289.96 185.734 289.008 186.046C288.309 186.266 287.624 186.389 287.493 186.304C287.35 186.194 287.062 186.214 286.844 186.32C286.313 186.577 283.357 185.892 282.703 185.344C282.395 185.076 281.645 184.574 281.037 184.243C279.964 183.629 279.87 183.496 278.337 180.332C276.745 177.047 276.745 177.047 276.789 174.491C276.808 172.991 277.068 171.374 277.39 170.562C277.676 169.797 277.839 169.211 277.743 169.258C277.574 169.34 278.102 167.354 279.328 163.42C279.591 162.547 279.943 161.243 280.12 160.501C280.273 159.771 280.689 158.228 281.039 157.104C281.39 155.92 281.558 154.914 281.392 154.756C281.143 154.549 281.07 154.584 280.86 155.073C280.736 155.372 280.553 155.669 280.432 155.728C280.335 155.775 279.627 156.774 278.856 157.953C278.073 159.107 277.255 160.25 277.012 160.487C276.745 160.735 276.597 161.046 276.655 161.166C276.725 161.311 276.641 161.382 276.46 161.38C276.305 161.366 276.196 161.449 276.254 161.569C276.313 161.69 276.067 162.107 275.75 162.499C275.398 162.879 274.846 163.772 274.501 164.476C274.157 165.18 273.825 165.788 273.752 165.823C273.463 165.964 272.43 167.955 271.772 169.676C270.581 172.757 269.199 176.797 268.982 177.827C267.666 184.16 267.841 188.459 269.572 193.078C270.641 195.9 273.239 198.309 276.918 199.807C277.407 200.017 278.672 200.597 279.734 201.127C280.796 201.656 282.18 202.297 282.801 202.533C283.387 202.757 283.804 203.002 283.707 203.049C283.61 203.095 283.765 203.229 284.052 203.329C284.338 203.429 285.006 203.761 285.53 204.104C286.042 204.422 286.592 204.633 286.713 204.574C286.858 204.504 286.941 204.553 286.904 204.661C286.854 204.804 287.092 204.987 287.439 205.088C288.072 205.288 288.322 205.435 290.334 206.756C291.037 207.221 291.634 207.468 291.66 207.337C291.721 207.218 291.864 207.327 292.004 207.617C292.145 207.907 292.382 208.09 292.503 208.031C292.648 207.961 292.982 208.097 293.255 208.353C293.659 208.694 293.661 208.574 293.204 207.692C292.22 205.723 292.207 205.759 293.036 205.686C293.866 205.612 295.323 206.158 297.601 207.351C298.507 207.806 299.712 208.445 300.272 208.74C300.833 209.036 301.713 209.683 302.247 210.169C302.757 210.668 303.884 211.702 304.775 212.494C305.653 213.261 306.884 214.632 307.486 215.504C308.087 216.376 308.666 217.139 308.797 217.225C309.106 217.433 310.243 216.763 311.215 215.815ZM305.837 215.856C305.411 215.346 304.879 214.679 304.643 214.376C304.111 213.71 300.869 210.956 299.915 210.404C297.497 208.982 296.364 208.368 296.017 208.267C295.814 208.217 295.456 208.032 295.29 207.874C295.124 207.716 295.252 208.042 295.593 208.622C295.958 209.191 296.644 209.992 297.119 210.418C297.617 210.832 298.045 211.221 298.104 211.282C298.163 211.343 298.424 211.634 298.708 211.974C299.004 212.278 299.289 212.497 299.386 212.45C299.458 212.415 300.042 212.759 300.696 213.247C301.314 213.723 301.922 214.114 302.029 214.152C302.161 214.177 302.565 214.519 302.98 214.884C304.048 215.857 306.681 217.475 306.65 217.102C306.628 216.934 306.263 216.365 305.837 215.856ZM89.6655 320.624C89.599 320.179 89.6525 319.735 89.7733 319.677C89.894 319.618 89.9513 318.875 89.9376 318.046C89.9123 317.194 89.9748 316.03 90.0423 315.431C90.2768 313.946 89.4194 307.621 89.0088 307.82C88.7915 307.926 88.2526 311.676 88.1928 313.584C88.1654 314.819 88.0538 316.066 87.9908 316.306C87.9037 316.557 87.8992 316.917 87.9811 317.086C88.0748 317.279 88.2552 318.205 88.3874 319.155C88.5196 320.105 88.7352 321.104 88.8523 321.346C89.2033 322.07 89.7618 321.561 89.6655 320.624ZM127.628 302.528C128.536 301.939 129.543 301.064 129.886 300.54C130.24 300.04 130.642 299.577 130.787 299.507C131.342 299.238 133.46 294.007 133.214 293.5C133.156 293.379 133.258 292.912 133.444 292.434C133.617 291.992 133.779 290.542 133.82 289.21C133.859 287.014 133.803 286.713 132.914 284.878C132.212 283.429 131.705 282.69 130.933 282.02C130.35 281.557 129.791 281.202 129.694 281.249C129.308 281.436 127.117 284.853 126.499 286.226C126.117 287.038 125.987 287.876 126.112 288.382C126.329 289.321 125.597 292.18 125.066 292.438C124.872 292.531 124.786 292.722 124.844 292.843C124.915 292.988 124.696 293.213 124.358 293.377C124.02 293.541 123.789 293.742 123.847 293.863C123.894 293.96 123.144 294.442 122.201 294.959C120.353 295.944 116.945 296.85 114.784 296.883C112.718 296.929 111.589 296.999 110.027 297.16C109.21 297.257 108.501 297.273 108.466 297.2C108.361 296.983 105.16 297.579 104.063 298.021C103.568 298.231 102.974 298.728 102.607 299.264C101.873 300.335 101.798 300.61 102.05 301.561C102.129 301.97 102.122 302.51 102.023 302.737C101.654 303.513 102.584 304.941 103.684 305.303C105.68 305.976 113.126 306.573 114.044 306.128C114.334 305.987 114.514 305.99 114.488 306.121C114.402 306.312 115.855 306.294 116.793 306.078C116.962 306.056 117.25 306.036 117.466 306.05C117.669 306.101 117.923 306.008 117.997 305.853C118.082 305.722 118.275 305.688 118.406 305.774C118.537 305.86 119.102 305.795 119.631 305.657C120.197 305.532 120.835 305.372 121.052 305.327C123.229 304.958 125.28 304.083 127.628 302.528ZM272.781 232.2C276.389 229.676 279.347 226.424 282.395 221.637C285.358 216.981 285.415 216.237 282.977 214.406C280.647 212.613 279.074 212.689 276.804 214.713C276.343 215.116 275.797 215.589 275.615 215.767C275.396 215.932 275.019 216.384 274.75 216.752C274.176 217.537 272.446 219.568 272.119 219.816C272.01 219.899 271.742 220.208 271.547 220.481C271.351 220.755 270.549 221.561 269.759 222.332C268.982 223.066 268.18 223.872 268.021 224.098C267.178 225.252 262.73 226.781 260.438 226.729C259.706 226.695 259.092 226.904 258.233 227.409C256.782 228.291 256.636 228.422 255.624 229.717C255.16 230.3 254.674 230.834 254.553 230.892C254.408 230.962 254.164 231.259 254.04 231.558C253.783 232.011 253.949 232.169 255.797 233.152C259.087 234.958 259.302 235.032 261.267 235.333C263.1 235.608 265.778 235.473 267.116 235.034C268.78 234.466 271.376 233.178 272.781 232.2ZM156.592 283.216C155.741 280.229 152.077 272.79 150.234 270.402C147.613 266.96 145.994 265.896 143.306 265.826C141.458 265.767 138.365 266.401 136.001 267.308C133.65 268.179 130.02 270.474 127.437 272.65C125.58 274.236 125.532 274.259 125.556 274.307C125.567 274.332 125.373 274.485 125.107 274.674C124.295 275.276 121.322 278.804 121.428 279.021C121.486 279.142 121.388 279.309 121.219 279.391C121.05 279.473 120.458 280.773 119.887 282.303C119.304 283.808 118.966 284.896 119.112 284.706C119.283 284.504 119.292 284.708 119.166 285.186C118.753 286.61 119.16 288.619 120.295 290.962C120.881 292.11 121.468 293.137 121.635 293.235C122.075 293.529 123.204 292.535 124.038 291.057C124.676 289.972 124.765 289.601 124.472 288.998C124.145 288.321 124.4 287.064 125.453 284.437C125.788 283.589 128.447 280.153 129.272 279.515C129.635 279.219 130.133 278.77 130.413 278.485C130.85 278.034 133.838 276.199 137.755 273.943C139.048 273.227 140.782 272.805 140.969 273.191C141.016 273.288 141.136 273.289 141.21 273.134C141.296 273.003 141.776 273.009 142.23 273.147C143.222 273.471 145.867 275.113 146.197 275.609C146.326 275.815 146.822 276.469 147.307 277.039C147.804 277.633 148.956 279.58 149.893 281.392C151.78 285.101 151.305 284.675 154.679 285.545C155.636 285.797 156.813 285.704 157.057 285.407C157.106 285.323 156.902 284.349 156.592 283.216ZM181.834 270.748C181.483 270.023 181.066 269.778 178.807 268.994C177.385 268.52 175.806 268.032 175.327 267.966C174.812 267.888 174.082 267.734 173.675 267.633C172.12 267.194 164.467 266.786 160.564 266.918C159.688 266.955 158.715 266.979 158.403 266.951C158.079 266.959 157.058 267.066 156.144 267.211C155.205 267.367 153.751 267.565 152.897 267.65C152.044 267.736 151.118 267.916 150.816 268.033C150.333 268.267 150.321 268.303 151.443 269.757C152.045 270.569 152.859 271.695 153.236 272.288C153.943 273.317 153.943 273.317 155.494 273.072C161.653 272.057 168.897 271.559 170.007 272.065C170.233 272.164 170.618 272.156 170.835 272.051C171.077 271.934 171.616 272.001 172.045 272.21C172.463 272.395 172.834 272.484 172.871 272.377C172.909 272.269 173.16 272.356 173.433 272.552C173.707 272.747 174.328 273.043 174.794 273.205C175.26 273.367 175.737 273.613 175.867 273.758C176.163 274.062 178.248 273.44 180.614 272.353C182.244 271.593 182.244 271.593 181.834 270.748ZM92.4772 308.824C92.4911 308.668 92.4568 308.535 92.3843 308.571C92.3119 308.606 92.2496 308.785 92.2357 308.941C92.2334 309.121 92.2561 309.229 92.3285 309.194C92.401 309.159 92.475 309.004 92.4772 308.824ZM294.566 211.058C294.531 210.985 294.459 210.961 294.387 210.996C294.314 211.031 294.289 211.103 294.324 211.175C294.36 211.247 294.431 211.272 294.504 211.237C294.576 211.202 294.601 211.13 294.566 211.058ZM179.819 265.79C180.126 265.253 180.614 264.599 180.857 264.362C181.124 264.113 181.454 263.685 181.553 263.399C181.689 263.124 182.532 261.97 183.458 260.866C184.396 259.725 185.554 258.299 186.018 257.657C186.506 257.003 186.969 256.48 187.077 256.518C187.184 256.555 187.574 256.128 187.917 255.544C188.272 254.984 188.771 254.414 189.013 254.297C189.254 254.18 189.497 253.943 189.595 253.776C189.669 253.621 190.254 252.92 190.899 252.22C191.556 251.544 192.286 250.713 192.542 250.38C192.799 250.047 193.407 249.395 193.929 248.933C194.451 248.472 194.913 247.949 195 247.758C195.074 247.603 195.317 247.366 195.558 247.249C196.138 246.968 195.868 246.473 194.925 246.065C194.507 245.88 194.126 245.647 194.067 245.526C194.009 245.405 193.901 245.428 193.791 245.571C193.705 245.702 193.561 245.712 193.479 245.543C193.397 245.374 192.848 245.103 192.25 244.975C191.221 244.698 191.138 244.649 191.123 243.881C191.12 243.197 191.073 243.1 190.901 243.422C190.802 243.649 190.194 244.301 189.586 244.894C187.837 246.577 183.153 251.56 183.079 251.775C183.041 251.882 182.871 252.084 182.701 252.226C182.071 252.71 180.583 254.624 180.676 254.817C180.723 254.914 180.577 255.104 180.335 255.221C179.925 255.42 175.899 260.591 175.151 261.878C174.93 262.284 174.392 263.081 173.928 263.664C173.501 264.258 172.987 265.044 172.778 265.414C172.457 266.106 172.457 266.106 173.741 266.17C175.06 266.246 175.216 266.26 177.237 266.862C178.649 267.251 179.047 267.088 179.819 265.79ZM294.09 210.692C294.055 210.619 293.984 210.595 293.911 210.63C293.839 210.665 293.814 210.736 293.849 210.809C293.884 210.881 293.956 210.906 294.028 210.871C294.101 210.836 294.125 210.764 294.09 210.692ZM93.2045 306.324C93.2618 305.581 93.3813 304.658 93.5175 304.324C93.6179 303.977 93.6473 303.545 93.542 303.328C93.2143 302.651 92.8679 303.475 92.7753 305.131C92.7516 306.066 92.6782 307.146 92.6495 307.518C92.5937 308.141 92.6288 308.213 92.8719 307.976C93.0175 307.846 93.159 307.092 93.2045 306.324ZM293.443 210.588C293.373 210.443 293.171 210.332 293.015 210.318C292.823 210.292 292.18 209.888 291.562 209.412C290.777 208.838 290.287 208.628 289.949 208.792C289.563 208.979 289.549 209.075 289.966 209.32C290.228 209.491 290.515 209.591 290.588 209.556C290.684 209.509 291.281 209.817 291.911 210.257C293.007 210.978 293.701 211.119 293.443 210.588ZM288.941 207.819C288.751 207.673 288.524 207.574 288.403 207.632C288.306 207.679 288.34 207.872 288.506 208.03C288.696 208.176 288.923 208.275 289.044 208.216C289.141 208.17 289.107 207.977 288.941 207.819ZM117.447 286.377C117.383 285.752 118.272 281.802 118.681 280.799C118.818 280.405 119.149 279.857 119.344 279.583C120.076 278.632 119.813 278.581 114.635 278.912C113.218 279.003 111.028 279.408 109.474 279.892C109.342 279.927 109.065 279.971 108.897 279.933C108.717 279.931 107.885 280.245 107.016 280.666C105.856 281.228 105.299 281.677 104.846 282.343C104.528 282.855 104.211 283.248 104.152 283.187C104.092 283.126 103.881 283.736 103.691 284.513C103.263 286.092 103.575 287.105 104.74 287.971C105.632 288.643 107.101 289.213 107.464 289.038C107.608 288.967 107.764 288.981 107.823 289.102C107.916 289.295 108.949 289.272 110.536 289.04C111.089 288.951 112.692 288.443 114.092 287.884C115.467 287.337 116.708 286.944 116.84 286.97C117.246 287.131 117.489 286.894 117.447 286.377ZM263.782 215.535C268.196 212.95 270.254 210.551 270.312 207.839C270.336 206.843 269.678 205.73 268.631 204.985C267.917 204.496 267.247 204.344 265.914 204.363C264.377 204.392 263.956 204.507 262.734 205.248C260.896 206.377 259.842 207.156 259.463 207.668C259.305 207.894 258.941 208.189 258.675 208.318C258.409 208.447 257.511 209.3 256.671 210.213C253.203 214.011 250.512 217.999 249.529 220.831C249.043 222.289 249.021 223.045 249.496 222.487C251.042 220.754 252.811 219.42 254.877 218.389C257.002 217.359 257.327 217.291 258.995 217.348C260.266 217.388 261.012 217.265 261.484 216.947C261.86 216.676 262.9 216.053 263.782 215.535ZM219.429 235.952C219.515 235.761 219.697 235.643 219.816 235.704C219.948 235.73 219.997 235.647 219.927 235.502C219.845 235.333 220.052 235.083 220.342 234.943C220.656 234.791 221.397 234.044 222.019 233.295C222.604 232.534 223.47 231.489 223.932 230.967C224.565 230.242 224.677 229.92 224.455 229.461C223.812 228.132 221.02 226.741 219.66 227.072C218.504 227.334 218.194 228.11 217.825 231.719C217.623 233.517 217.41 235.17 217.371 235.398C217.032 236.606 217.005 236.858 217.181 237.22C217.344 237.558 217.537 237.525 218.336 236.958C218.845 236.593 219.343 236.143 219.429 235.952ZM209.755 231.066C211.934 226.7 212.304 225.924 212.211 225.731C211.953 225.2 211.551 225.663 210.591 227.619C210 228.8 209.261 230.292 208.929 230.96C208.596 231.628 208.299 232.368 208.296 232.608C208.25 233.436 208.894 232.736 209.755 231.066ZM204.778 231.688C204.868 231.257 205.156 230.312 205.393 229.571C205.755 228.471 205.734 228.243 205.35 228.19C205.003 228.15 204.82 228.328 204.681 228.902C204.58 229.309 204.341 230.23 204.139 230.984C203.926 231.713 203.821 232.42 203.868 232.517C204.067 232.928 204.601 232.43 204.778 231.688ZM182.602 239.958C182.063 239.831 181.272 239.737 180.852 239.732C180.432 239.727 179.833 239.659 179.569 239.608C178.121 239.266 174.424 239.328 174.011 239.707C173.695 239.979 173.491 239.988 173.374 239.747C173.21 239.409 168.19 239.634 167.393 240.02C166.669 240.371 167.266 240.619 168.6 240.479C171.1 240.222 175.589 240.194 178.611 240.4C179.631 240.473 180.986 240.562 181.598 240.593C182.209 240.625 182.856 240.729 182.999 240.839C183.213 240.974 183.322 240.891 183.446 240.592C183.534 240.281 183.344 240.135 182.602 239.958ZM206.133 226.052C205.618 225.973 205.913 225.413 206.478 225.348C206.706 225.327 207.061 224.767 207.262 224.073C207.499 223.392 208.154 221.852 208.709 220.658C209.288 219.453 209.757 218.391 209.795 218.283C209.832 218.176 210.274 217.365 210.789 216.519C211.758 214.887 211.944 214.349 211.586 214.225C211.359 214.126 210.519 215.039 210.235 215.684C210.136 215.911 209.521 217.164 208.844 218.475C208.168 219.787 207.031 222.366 206.288 224.217C205.184 227.048 205.082 227.575 205.514 227.544C206.223 227.469 206.792 226.12 206.133 226.052ZM181.225 237.792C181.266 237.324 177.984 235.843 176.725 235.767C175.525 235.693 175.986 236.274 177.564 236.822C178.508 237.17 179.594 237.628 180.011 237.873C180.809 238.351 181.182 238.32 181.225 237.792ZM187.265 232.718C186.966 231.67 186.531 230.032 186.314 229.093C185.915 227.408 183.007 220.974 182.576 220.825C182.469 220.787 182.202 221.036 181.993 221.406C181.773 221.751 181.285 222.345 180.885 222.688C179.282 224.18 177.855 225.975 177.872 226.563C177.891 226.912 177.803 227.223 177.731 227.258C177.441 227.398 179.484 229.152 182.386 231.265C183.945 232.389 185.312 233.426 185.419 233.523C186.223 234.446 187.069 234.96 187.407 234.796C187.746 234.633 187.703 234.176 187.265 232.718Z" fill="#2B2B2B"/>
<path d="M40.278 347.748C38.3571 347.019 36.4993 345.449 35.556 343.726C34.7918 342.305 34.7799 342.281 35.4303 341.958C35.9603 341.696 36.0684 341.732 36.1988 342.238C36.3282 342.984 37.7041 344.792 38.7351 345.602C39.1786 345.952 40.1747 346.449 40.9551 346.752C41.7354 347.056 42.3593 347.407 42.3467 347.563C42.2965 348.128 41.5267 348.209 40.278 347.748Z" fill="#FFED9C"/>
<path d="M42.352 346.12C41.3555 345.744 39.9524 344.789 39.7257 344.331C39.666 344.211 39.8231 343.983 40.0881 343.852C40.4013 343.696 40.8336 343.842 41.313 344.265C42.008 344.881 42.8492 345.004 44.5333 344.77C44.7859 344.735 45.086 344.856 45.1934 345.073C45.3247 345.338 45.1074 345.566 44.3365 345.947C43.5174 346.353 43.0844 346.388 42.352 346.12Z" fill="#FFED9C"/>
<path d="M35.4311 328.877C33.9771 328.667 31.2696 326.048 30.1241 323.735C29.5035 322.483 29.504 322.362 30.0216 322.196C30.491 322.054 30.6469 322.186 31.2919 323.307C32.0203 324.656 33.948 326.792 34.9797 327.421C35.3156 327.614 35.7722 327.688 35.989 327.581C36.3022 327.426 36.5181 327.559 36.721 327.968C37.067 328.667 36.5366 329.05 35.4311 328.877Z" fill="#FFED9C"/>
<path d="M39.3602 326.331C38.1115 325.87 36.9844 325.048 37.0339 324.663C37.1086 323.966 37.9741 324.017 39.2937 324.804C40.5294 325.542 40.673 325.711 40.5149 326.179C40.3569 326.647 40.2126 326.659 39.3602 326.331Z" fill="#FFED9C"/>
<path d="M35.6911 326.858C34.3715 326.072 33.5587 324.794 34.1013 324.376C34.3666 324.184 34.6786 324.33 35.2294 324.957C35.6484 325.439 36.3078 325.923 36.6681 326.044C37.4246 326.3 37.6743 327.046 37.1202 327.321C36.9274 327.416 36.3031 327.185 35.6911 326.858Z" fill="#FFED9C"/>
<path d="M32.9519 303.824C31.2854 302.579 29.4772 300.625 28.8686 299.396C28.5583 298.77 28.5712 298.553 28.9566 298.362C29.2698 298.207 29.522 298.292 29.6771 298.605C29.9993 299.256 29.9036 299.123 31.2806 300.631C31.9392 301.355 33.0535 302.393 33.7249 302.901C35.1996 304 35.4745 304.434 34.8722 304.733C34.6072 304.864 33.9471 304.561 32.9519 303.824Z" fill="#FFED9C"/>
<path d="M36.0819 302.753C33.9925 302.048 32.4592 300.528 33.3747 300.074C33.6879 299.919 34.0601 300.065 34.5272 300.523C34.8866 300.885 35.5823 301.321 36.0747 301.467C37.4078 301.857 37.8392 302.243 37.6089 302.747C37.4632 303.119 37.1266 303.106 36.0819 302.753Z" fill="#FFED9C"/>
<path d="M26.747 294.507C26.7111 294.434 26.7354 294.362 26.8079 294.326C26.8804 294.29 26.9526 294.315 26.9885 294.387C27.0244 294.46 27 294.532 26.9276 294.568C26.8551 294.604 26.7829 294.579 26.747 294.507Z" fill="#FFED9C"/>
<path d="M37.0023 272.086C36.7742 271.989 36.1866 271.59 35.7552 271.203C35.0122 270.551 34.9645 270.455 35.2421 270.167C35.6647 269.688 36.3971 269.955 37.0791 270.848C37.725 271.728 37.6985 272.401 37.0023 272.086Z" fill="#FFED9C"/>
<path d="M33.9454 272.88C33.8135 272.795 33.1673 271.975 32.4975 271.047C31.5048 269.648 31.3139 269.263 31.3997 268.831C31.6194 267.942 32.3755 268.317 33.0437 269.666C33.354 270.293 33.8441 271.04 34.1557 271.306C34.4433 271.583 34.7182 272.017 34.7413 272.246C34.7877 272.703 34.2573 273.085 33.9454 272.88Z" fill="#FFED9C"/>
<path d="M30.7463 273.144C29.6935 271.746 28.6566 269.289 28.6253 268.015C28.5695 266.872 28.8842 266.296 29.4365 266.503C29.5446 266.539 29.6984 267.213 29.7795 268.043C29.883 269.282 30.1093 269.86 31.0531 271.462C32.1046 273.222 32.1521 273.378 31.7185 273.593C31.4053 273.748 31.1173 273.591 30.7463 273.144Z" fill="#FFED9C"/>
<path d="M355.248 190.653C354.733 190.159 354.055 188.244 354.32 187.993C354.574 187.717 355.053 188.2 355.841 189.549C356.2 190.152 356.235 190.405 355.933 190.644C355.74 190.8 355.416 190.81 355.248 190.653Z" fill="#FFED9C"/>
<path d="M356.598 189.564C356.287 189.359 355.286 186.974 355.49 186.963C355.598 186.939 355.851 186.844 356.044 186.749C356.622 186.462 357.576 188.57 357.141 189.206C356.936 189.457 356.694 189.637 356.598 189.564Z" fill="#FFED9C"/>
<path d="M343.236 181.122C342.888 181.085 342.733 180.591 342.321 178.365C341.909 176.08 341.934 175.587 342.32 175.396C342.922 175.097 343.125 175.627 343.642 178.731C344.03 181.029 343.993 181.197 343.236 181.122Z" fill="#FFED9C"/>
<path d="M344.789 177.353C344.645 177.244 344.36 176.485 344.17 175.679C343.898 174.584 343.924 174.151 344.237 173.996C344.574 173.829 344.766 173.974 345.124 174.697C345.816 176.094 345.593 177.825 344.789 177.353Z" fill="#FFED9C"/>
<path d="M346.349 175.05C346.217 174.965 345.954 174.435 345.788 173.918C345.301 172.269 345.301 172.209 346.035 172.235C346.576 172.237 346.719 172.406 346.969 173.153C347.349 174.465 347.045 175.485 346.349 175.05Z" fill="#FFED9C"/>
<path d="M324.302 164.399C324.182 164.339 323.981 163.568 323.876 162.69C323.771 161.812 323.487 160.693 323.236 160.187C322.424 158.549 323.004 157.782 324.034 159.072C325.218 160.555 325.442 165.125 324.302 164.399Z" fill="#FFED9C"/>
<path d="M325.811 162.962C325.727 162.793 325.669 162.252 325.671 161.771C325.685 161.314 325.471 160.46 325.197 159.906C324.779 159.063 324.768 158.858 325.166 158.631C326.118 158.07 327.525 160.973 326.896 162.245C326.496 163.073 326.014 163.372 325.811 162.962Z" fill="#FFED9C"/>
<path d="M327.642 158.785C327.129 157.749 327.117 157.545 327.515 157.438C327.852 157.331 328.127 157.584 328.605 158.428C329.178 159.404 329.19 159.548 328.756 159.763C328.323 159.978 328.179 159.869 327.642 158.785Z" fill="#FFED9C"/>
<path d="M297.82 143.764C297.653 143.607 297.487 142.849 297.49 142.068C297.446 140.889 297.28 140.372 296.491 139.082C295.631 137.648 295.583 137.492 295.993 137.289C296.571 137.003 297.649 138.149 298.065 139.473C298.279 140.147 298.398 140.328 298.531 140.112C298.652 139.932 298.546 139.415 298.319 138.957C297.997 138.307 298.01 138.09 298.371 137.911C298.998 137.601 299.656 138.445 299.807 139.78C299.924 140.622 299.815 140.946 299.405 141.149C299.068 141.316 298.886 141.736 298.872 142.313C298.843 143.648 298.383 144.295 297.82 143.764Z" fill="#FFED9C"/>
<path d="M88.6507 285.805C88.483 285.648 88.2929 285.022 88.211 284.433C88.1412 283.807 87.7965 282.748 87.4745 282.037C86.8778 280.833 86.8902 280.737 87.4319 280.558C87.9496 280.392 88.0574 280.489 88.6655 281.838C89.0352 282.644 89.4036 283.812 89.4734 284.438C89.6254 285.592 89.1899 286.288 88.6507 285.805Z" fill="#FFED9C"/>
<path d="M90.2239 283.046C90.0801 282.937 89.9731 282.6 89.9623 282.275C90.0013 281.506 89.5721 280.518 88.6035 279.108C87.8979 278.107 87.8265 277.903 88.1638 277.736C88.9829 277.33 90.6578 279.561 90.9874 281.437C91.2115 282.616 90.8237 283.409 90.2239 283.046Z" fill="#FFED9C"/>
<path d="M270.226 192.175C268.788 190.907 267.801 188.006 268.752 187.745C269.101 187.662 269.34 187.963 270.068 189.433C270.557 190.421 271.203 191.481 271.514 191.807C271.957 192.277 271.957 192.398 271.523 192.612C271.186 192.779 270.79 192.646 270.226 192.175Z" fill="#FFED9C"/>
<path d="M272.428 191.654C272.296 191.569 271.782 190.834 271.244 189.99C270.324 188.556 270.288 188.424 270.722 188.209C271.107 188.018 271.347 188.199 272.053 189.14C273.07 190.526 273.379 191.393 272.946 191.608C272.753 191.703 272.524 191.726 272.428 191.654Z" fill="#FFED9C"/>
</svg>
