<svg width="24" height="24" viewBox="0 0 24 24" fill="none" xmlns="http://www.w3.org/2000/svg">
<path d="M19.4157 0.245605H5.27815C2.82242 0.245605 0.824554 2.24301 0.824554 4.69873V9.40287V18.8367C0.824554 21.2924 2.82242 23.2898 5.27815 23.2898H19.4161C21.8719 23.2898 23.8693 21.2924 23.8693 18.8367V9.40241V4.69827C23.8688 2.24254 21.8714 0.245605 19.4157 0.245605ZM20.693 2.90121L21.2025 2.89935V3.40649V6.80537L17.3095 6.81792L17.296 2.91237L20.693 2.90121ZM9.05773 9.40241C9.79589 8.38116 10.9933 7.71134 12.3469 7.71134C13.7005 7.71134 14.8979 8.38116 15.6352 9.40241C16.1153 10.069 16.4031 10.8843 16.4031 11.7675C16.4031 14.0038 14.5818 15.8232 12.3464 15.8232C10.1097 15.8232 8.29028 14.0038 8.29028 11.7675C8.29075 10.8843 8.57755 10.069 9.05773 9.40241ZM21.6236 18.8363C21.6236 20.0546 20.6331 21.0442 19.4157 21.0442H5.27815C4.06028 21.0442 3.06971 20.0546 3.06971 18.8363V9.40241H6.5095C6.21247 10.1331 6.04559 10.9313 6.04559 11.7675C6.04559 15.2412 8.87179 18.0693 12.3469 18.0693C15.8216 18.0693 18.6478 15.2412 18.6478 11.7675C18.6478 10.9313 18.48 10.1331 18.1829 9.40241H21.6236V18.8363Z" fill="white"/>
</svg>
