<svg width="346" height="354" viewBox="0 0 346 354" fill="none" xmlns="http://www.w3.org/2000/svg">
<circle cx="169" cy="169" r="169" fill="#FFED9C"/>
<path d="M34.616 14.816C34.616 14.304 34.36 14.048 33.848 14.048H26.168C25.656 14.048 25.4 14.304 25.4 14.816V48.8C25.4 51.296 24.888 52.576 22.584 52.576H20.408C19.896 52.576 19.64 52.768 19.64 53.28V59.232C19.64 59.68 19.896 60 20.344 60.064C21.56 60.192 23.224 60.32 24.824 60.32C31.672 60.32 34.616 57.888 34.616 50.848V14.816ZM50.6425 60.896C58.2585 60.896 63.2505 55.008 63.2505 37.024C63.2505 19.04 58.2585 13.152 50.6425 13.152C43.0265 13.152 38.0345 19.04 38.0345 37.024C38.0345 55.008 43.0265 60.896 50.6425 60.896ZM48.0185 32.224C48.0185 22.496 49.1705 20.576 50.6425 20.576C52.1145 20.576 53.2665 22.496 53.2665 32.224V41.824C53.2665 51.552 52.1145 53.472 50.6425 53.472C49.1705 53.472 48.0185 51.552 48.0185 41.824V32.224ZM67.118 59.232C67.118 59.744 67.374 60 67.886 60H75.566C76.078 60 76.334 59.744 76.334 59.232V14.816C76.334 14.304 76.078 14.048 75.566 14.048H67.886C67.374 14.048 67.118 14.304 67.118 14.816V59.232ZM89.6315 59.232V34.4H89.9515L97.8875 59.36C98.0155 59.808 98.2715 60 98.7195 60H105.376C105.888 60 106.144 59.744 106.144 59.232V14.816C106.144 14.304 105.888 14.048 105.376 14.048H98.3355C97.8235 14.048 97.5675 14.304 97.5675 14.816V35.552H97.3115L90.5915 14.688C90.4635 14.24 90.2075 14.048 89.7595 14.048H81.8235C81.3115 14.048 81.0555 14.304 81.0555 14.816V59.232C81.0555 59.744 81.3115 60 81.8235 60H88.8635C89.3755 60 89.6315 59.744 89.6315 59.232ZM127.859 59.232C127.859 59.744 128.115 60 128.627 60H136.307C136.819 60 137.075 59.744 137.075 59.232V21.472H143.475C143.987 21.472 144.243 21.216 144.243 20.704V14.816C144.243 14.304 143.987 14.048 143.475 14.048H121.459C120.947 14.048 120.691 14.304 120.691 14.816V20.704C120.691 21.216 120.947 21.472 121.459 21.472H127.859V59.232ZM146.743 59.232C146.743 59.744 146.999 60 147.511 60H155.191C155.703 60 155.959 59.744 155.959 59.232V40.608H160.695V59.232C160.695 59.744 160.951 60 161.463 60H169.143C169.655 60 169.911 59.744 169.911 59.232V14.816C169.911 14.304 169.655 14.048 169.143 14.048H161.463C160.951 14.048 160.695 14.304 160.695 14.816V32.544H155.959V14.816C155.959 14.304 155.703 14.048 155.191 14.048H147.511C146.999 14.048 146.743 14.304 146.743 14.816V59.232ZM174.618 59.232C174.618 59.744 174.874 60 175.386 60H194.01C194.522 60 194.778 59.744 194.778 59.232V53.344C194.778 52.832 194.522 52.576 194.01 52.576H183.834V40.544H190.81C191.322 40.544 191.578 40.288 191.578 39.776V33.504C191.578 32.992 191.322 32.736 190.81 32.736H183.834V21.472H193.562C194.074 21.472 194.33 21.216 194.33 20.704V14.816C194.33 14.304 194.074 14.048 193.562 14.048H175.386C174.874 14.048 174.618 14.304 174.618 14.816V59.232ZM20.408 115.216C19.896 115.216 19.64 115.472 19.64 115.984C19.64 124.24 23.352 130.896 31.416 130.896C39.352 130.896 43 125.456 43 118.352C43 110.8 38.2 106.704 33.016 102.096C30.52 99.856 28.6 97.36 28.6 94.288C28.6 92.112 29.432 90.576 31.032 90.576C33.528 90.576 33.784 93.584 33.848 96.912C33.848 97.424 34.104 97.68 34.616 97.68H41.656C42.168 97.68 42.424 97.424 42.424 96.912C42.424 89.232 38.968 83.152 31.16 83.152C24.12 83.152 20.024 87.888 20.024 95.056C20.024 101.2 22.648 104.784 28.088 109.776C30.392 111.888 34.488 114.832 34.488 119.44C34.488 121.936 33.464 123.472 31.544 123.472C29.048 123.472 28.152 120.4 28.088 115.984C28.088 115.472 27.832 115.216 27.32 115.216H20.408ZM50.2335 129.232C50.2335 129.744 50.4895 130 51.0015 130H58.6815C59.1935 130 59.4495 129.744 59.4495 129.232V91.472H65.8495C66.3615 91.472 66.6175 91.216 66.6175 90.704V84.816C66.6175 84.304 66.3615 84.048 65.8495 84.048H43.8335C43.3215 84.048 43.0655 84.304 43.0655 84.816V90.704C43.0655 91.216 43.3215 91.472 43.8335 91.472H50.2335V129.232ZM83.518 84.048C83.006 84.048 82.75 84.304 82.75 84.816V117.84C82.75 121.04 82.366 123.472 80.318 123.472C78.27 123.472 77.886 121.04 77.886 117.84V84.816C77.886 84.304 77.63 84.048 77.118 84.048H69.438C68.926 84.048 68.67 84.304 68.67 84.816V118.416C68.67 127.376 73.726 130.896 80.318 130.896C86.91 130.896 91.966 127.376 91.966 118.416V84.816C91.966 84.304 91.71 84.048 91.198 84.048H83.518ZM96.243 129.232C96.243 129.744 96.499 130 97.011 130H105.267C118.579 130 119.667 120.208 119.667 107.024C119.667 93.2 118.323 84.048 103.923 84.048H97.011C96.499 84.048 96.243 84.304 96.243 84.816V129.232ZM105.459 91.472C109.875 91.472 110.067 93.008 110.067 106.96C110.067 120.976 109.875 122.576 105.459 122.576V91.472ZM123.493 129.232C123.493 129.744 123.749 130 124.261 130H142.885C143.397 130 143.653 129.744 143.653 129.232V123.344C143.653 122.832 143.397 122.576 142.885 122.576H132.709V110.544H139.685C140.197 110.544 140.453 110.288 140.453 109.776V103.504C140.453 102.992 140.197 102.736 139.685 102.736H132.709V91.472H142.437C142.949 91.472 143.205 91.216 143.205 90.704V84.816C143.205 84.304 142.949 84.048 142.437 84.048H124.261C123.749 84.048 123.493 84.304 123.493 84.816V129.232ZM155.194 129.232V104.4H155.514L163.45 129.36C163.578 129.808 163.834 130 164.282 130H170.938C171.45 130 171.706 129.744 171.706 129.232V84.816C171.706 84.304 171.45 84.048 170.938 84.048H163.898C163.386 84.048 163.13 84.304 163.13 84.816V105.552H162.874L156.154 84.688C156.026 84.24 155.77 84.048 155.322 84.048H147.386C146.874 84.048 146.618 84.304 146.618 84.816V129.232C146.618 129.744 146.874 130 147.386 130H154.426C154.938 130 155.194 129.744 155.194 129.232ZM181.359 129.232C181.359 129.744 181.615 130 182.127 130H189.807C190.319 130 190.575 129.744 190.575 129.232V91.472H196.975C197.487 91.472 197.743 91.216 197.743 90.704V84.816C197.743 84.304 197.487 84.048 196.975 84.048H174.959C174.447 84.048 174.191 84.304 174.191 84.816V90.704C174.191 91.216 174.447 91.472 174.959 91.472H181.359V129.232ZM212.306 129.232C212.306 129.744 212.562 130 213.074 130H221.33C234.642 130 235.73 120.208 235.73 107.024C235.73 93.2 234.386 84.048 219.986 84.048H213.074C212.562 84.048 212.306 84.304 212.306 84.816V129.232ZM221.522 91.472C225.938 91.472 226.13 93.008 226.13 106.96C226.13 120.976 225.938 122.576 221.522 122.576V91.472ZM239.556 129.232C239.556 129.744 239.812 130 240.324 130H258.948C259.46 130 259.716 129.744 259.716 129.232V123.344C259.716 122.832 259.46 122.576 258.948 122.576H248.772V110.544H255.748C256.26 110.544 256.516 110.288 256.516 109.776V103.504C256.516 102.992 256.26 102.736 255.748 102.736H248.772V91.472H258.5C259.012 91.472 259.268 91.216 259.268 90.704V84.816C259.268 84.304 259.012 84.048 258.5 84.048H240.324C239.812 84.048 239.556 84.304 239.556 84.816V129.232ZM273.753 130C281.433 130 285.977 125.2 285.977 117.136C285.977 111.76 283.417 107.856 278.937 106.064C282.841 104.336 285.081 100.816 285.081 96.144C285.081 88.528 280.537 84.048 272.857 84.048H263.449C262.937 84.048 262.681 84.304 262.681 84.816V129.232C262.681 129.744 262.937 130 263.449 130H273.753ZM271.897 91.088C275.417 91.088 276.249 92.688 276.249 96.912C276.249 101.264 275.353 102.608 271.897 102.736V91.088ZM271.897 110.16C275.865 110.224 276.76 112.08 276.76 116.432C276.76 120.144 276.121 122.832 271.897 122.96V110.16ZM293.609 129.232C293.609 129.744 293.865 130 294.377 130H302.057C302.569 130 302.825 129.744 302.825 129.232V91.472H309.225C309.737 91.472 309.993 91.216 309.993 90.704V84.816C309.993 84.304 309.737 84.048 309.225 84.048H287.209C286.697 84.048 286.441 84.304 286.441 84.816V90.704C286.441 91.216 286.697 91.472 287.209 91.472H293.609V129.232ZM20.408 185.216C19.896 185.216 19.64 185.472 19.64 185.984C19.64 194.24 23.352 200.896 31.416 200.896C39.352 200.896 43 195.456 43 188.352C43 180.8 38.2 176.704 33.016 172.096C30.52 169.856 28.6 167.36 28.6 164.288C28.6 162.112 29.432 160.576 31.032 160.576C33.528 160.576 33.784 163.584 33.848 166.912C33.848 167.424 34.104 167.68 34.616 167.68H41.656C42.168 167.68 42.424 167.424 42.424 166.912C42.424 159.232 38.968 153.152 31.16 153.152C24.12 153.152 20.024 157.888 20.024 165.056C20.024 171.2 22.648 174.784 28.088 179.776C30.392 181.888 34.488 184.832 34.488 189.44C34.488 191.936 33.464 193.472 31.544 193.472C29.048 193.472 28.152 190.4 28.088 185.984C28.088 185.472 27.832 185.216 27.32 185.216H20.408ZM50.2335 199.232C50.2335 199.744 50.4895 200 51.0015 200H58.6815C59.1935 200 59.4495 199.744 59.4495 199.232V161.472H65.8495C66.3615 161.472 66.6175 161.216 66.6175 160.704V154.816C66.6175 154.304 66.3615 154.048 65.8495 154.048H43.8335C43.3215 154.048 43.0655 154.304 43.0655 154.816V160.704C43.0655 161.216 43.3215 161.472 43.8335 161.472H50.2335V199.232ZM69.118 199.232C69.118 199.744 69.374 200 69.886 200H77.566C78.078 200 78.334 199.744 78.334 199.232V154.816C78.334 154.304 78.078 154.048 77.566 154.048H69.886C69.374 154.048 69.118 154.304 69.118 154.816V199.232ZM92.2715 199.232V177.984H93.2315L98.3515 199.296C98.4795 199.808 98.7355 200 99.1835 200H107.056C107.632 200 107.824 199.68 107.696 199.168L100.336 173.376L107.312 154.944C107.504 154.432 107.248 154.048 106.672 154.048H98.8635C98.4155 154.048 98.1595 154.24 98.0315 154.688L92.5275 170.752H92.2715V154.816C92.2715 154.304 92.0155 154.048 91.5035 154.048H83.8235C83.3115 154.048 83.0555 154.304 83.0555 154.816V199.232C83.0555 199.744 83.3115 200 83.8235 200H91.5035C92.0155 200 92.2715 199.744 92.2715 199.232ZM110.431 199.232C110.431 199.744 110.687 200 111.199 200H129.823C130.335 200 130.591 199.744 130.591 199.232V193.344C130.591 192.832 130.335 192.576 129.823 192.576H119.647V180.544H126.623C127.135 180.544 127.391 180.288 127.391 179.776V173.504C127.391 172.992 127.135 172.736 126.623 172.736H119.647V161.472H129.375C129.887 161.472 130.143 161.216 130.143 160.704V154.816C130.143 154.304 129.887 154.048 129.375 154.048H111.199C110.687 154.048 110.431 154.304 110.431 154.816V199.232Z" fill="#2B2B2B"/>
<path d="M218.895 299.016C218.79 298.799 218.351 298.325 217.888 297.923C217.437 297.546 216.642 296.768 216.121 296.185C215.612 295.626 214.77 294.812 214.271 294.397C213.772 293.983 212.668 293.057 211.812 292.338C209.484 290.425 204.912 287.451 204.549 287.627C204.356 287.72 204.246 287.863 204.281 287.935C204.352 288.08 205.898 289.18 207.684 290.342C209.922 291.823 210.898 292.543 212.702 294.114C214.401 295.587 216.37 297.436 218.326 299.381C218.67 299.722 219.106 299.451 218.895 299.016ZM181.025 310.595C181.008 310.067 181.022 307.942 181.036 305.878C181.05 303.814 181.326 300.876 181.646 299.32C182.542 294.83 182.688 293.716 182.437 293.629C182.078 293.504 181.299 296.327 180.916 299.107C180.72 300.425 180.537 301.647 180.462 301.862C180.274 302.46 180.225 310.237 180.407 311.044C180.623 312.042 180.999 311.771 181.025 310.595ZM231.773 280.848C233.276 279.643 233.993 278.967 235.04 277.744C235.357 277.352 235.746 276.985 235.891 276.915C236.398 276.669 241.156 270.487 241.039 270.245C240.969 270.1 241.066 269.993 241.222 270.007C241.402 270.009 241.487 269.939 241.417 269.794C241.346 269.649 241.53 269.351 241.822 269.09C242.125 268.854 242.308 268.556 242.25 268.436C242.191 268.315 242.241 268.171 242.386 268.101C242.507 268.043 242.923 267.424 243.279 266.744C243.672 266.077 244.285 265.004 244.653 264.349C245.34 263.181 245.673 262.513 247.226 259.195C247.731 258.145 248.211 257.227 248.308 257.18C248.404 257.134 248.601 256.74 248.751 256.31C248.912 255.844 249.271 254.984 249.567 254.363C249.839 253.755 249.978 253.18 249.859 253.119C249.728 253.033 249.753 252.901 249.898 252.831C250.043 252.761 250.161 251.958 250.137 251.046C250.117 249.713 249.967 249.219 249.378 248.371C248.612 247.222 246.713 245.458 246.067 245.293C245.864 245.243 245.03 244.752 244.244 244.238C240.267 241.632 235.578 240.386 233.525 241.38C232.824 241.72 232.69 241.934 232.741 242.655C232.771 243.147 233.061 243.931 233.438 244.524C234.144 245.613 237.091 248.002 238.286 248.437C238.705 248.563 238.872 248.601 238.682 248.454C238.444 248.271 238.445 248.211 238.697 248.238C238.888 248.265 239.03 248.435 239.028 248.615C239.002 248.806 239.562 249.101 240.22 249.29C241.464 249.641 242.88 250.655 243.277 251.476C243.898 252.756 243.786 254.003 242.852 256.752C242.304 258.33 241.808 259.584 241.748 259.583C241.676 259.558 241.37 260.095 241.049 260.787C240.332 262.446 239.253 264.281 238.142 265.804C234.137 271.263 232.48 273.199 230.419 274.854C228.564 276.319 227.903 276.371 225.818 275.145C224.377 274.262 224.377 274.262 221.659 275.609C219.945 276.44 219.098 276.969 219.313 277.044C219.492 277.106 219.717 277.325 219.834 277.567C220.209 278.339 223.351 280.515 225.273 281.343C227.04 282.097 229.244 282.461 230.016 282.147C230.161 282.076 230.948 281.486 231.773 280.848ZM211.182 288.021C211.112 287.876 210.945 287.778 210.789 287.764C210.633 287.75 209.823 287.308 208.964 286.829C208.13 286.339 207.282 286.004 207.089 286.098C206.582 286.344 206.831 286.611 208.047 287.214C208.644 287.522 209.454 287.964 209.86 288.185C210.551 288.566 211.393 288.456 211.182 288.021ZM204.085 287.285C204.099 287.129 203.897 286.958 203.658 286.895C203.12 286.769 202.909 287.318 203.373 287.6C203.707 287.796 204.057 287.656 204.085 287.285ZM175.139 300.415C174.916 299.956 176.298 295.977 177.057 294.834C177.79 293.763 177.931 293.068 177.375 293.337C177.255 293.396 177.192 293.575 177.263 293.72C177.321 293.841 177.224 293.948 177.068 293.934C176.384 293.877 175.027 296.861 174.512 299.615C174.282 300.741 174.374 301.054 174.882 300.808C175.075 300.715 175.197 300.536 175.139 300.415ZM195.541 288.114C196.258 287.379 196.196 286.634 195.24 284.354C194.761 283.244 194.1 281.387 193.742 280.278C193.326 278.989 192.964 278.18 192.749 278.105C192.211 277.918 189.791 285.294 189.693 287.369C189.644 288.377 190.608 289.073 192.108 289.092C194.16 289.141 194.738 288.981 195.541 288.114ZM224.308 272.089C224.903 271.532 225.489 270.711 225.663 270.269C225.812 269.839 226.068 269.506 226.176 269.544C226.308 269.569 226.32 269.533 226.213 269.496C226.118 269.423 226.174 268.739 226.364 267.962C226.554 267.184 226.659 266.417 226.577 266.248C226.507 266.103 226.451 265.742 226.455 265.442C226.486 263.906 226.231 262.21 225.658 260.043C225.406 259.091 225.406 259.091 224.662 260.078C224.235 260.613 223.903 261.221 223.865 261.389C223.826 261.616 223.754 261.651 223.684 261.507C223.602 261.337 223.529 261.373 223.49 261.6C223.464 261.792 223.105 262.652 222.71 263.559C222.106 264.836 221.752 265.275 221.028 265.626C219.192 266.516 213.053 267.94 209.772 268.247C208.775 268.342 207.969 268.464 207.992 268.513C208.016 268.561 207.031 268.621 205.794 268.653C202.756 268.724 202.623 268.818 203.349 270.315C203.676 270.992 203.86 271.678 203.738 271.857C203.64 272.023 203.681 272.54 203.831 273.034C203.981 273.528 204.006 274.381 203.904 274.907C203.736 275.854 203.736 275.854 204.705 276.13C205.243 276.256 206.069 276.483 206.535 276.585C207.708 276.911 212.267 277.028 212.823 276.759C213.064 276.642 213.401 276.598 213.616 276.673C214.261 276.897 218.13 275.649 220.702 274.373C222.49 273.507 223.579 272.8 224.308 272.089ZM56.8168 348.261C57.1704 347.821 57.4047 347.32 57.3228 347.151C57.2409 346.982 57.2688 346.67 57.391 346.491C58.1751 345.217 58.3946 340.13 57.7275 338.754C57.2478 337.763 55.6924 336.4 54.9731 336.331C54.733 336.328 54.3035 336.118 53.994 335.91C53.7087 335.691 53.1943 335.552 52.8577 335.596C52.5328 335.664 51.5976 335.58 50.7948 335.462C49.9804 335.32 48.7093 335.22 47.9534 335.199C47.1975 335.177 46.514 335.121 46.3948 335.059C46.1562 334.936 35.9187 334.857 31.8726 334.938C28.1867 335.024 27.7073 334.958 27.3657 334.438C26.8822 333.748 27.9434 333.353 30.1644 333.321C31.1486 333.321 32.6495 333.28 33.442 333.253C34.2587 333.216 35.1471 333.203 35.4471 333.206C37.5466 333.293 39.5392 333.282 39.7807 333.164C39.9256 333.094 40.1049 333.157 40.1634 333.277C40.2336 333.422 40.4253 333.449 40.6061 333.391C40.751 333.321 41.5077 333.282 42.2636 333.303C44.4472 333.379 45.6956 333.37 46.0689 333.279C46.2738 333.209 46.7172 333.263 47.0282 333.351C47.375 333.451 47.7226 333.492 47.7951 333.456C48.1815 333.269 50.8335 333.326 51.7189 333.553C52.2574 333.68 52.8333 333.699 53.0265 333.606C53.3405 333.454 53.6047 333.445 55.2248 333.465C56.2808 333.49 58.565 332.234 59.4551 331.117C60.5158 329.798 60.7516 329.177 61.0963 326.564C61.5884 322.718 61.311 319.929 60.3255 319.065C59.3518 318.225 54.5885 316.149 54.1296 316.371C53.9847 316.441 53.6012 316.389 53.3268 316.253C52.4803 315.798 50.0392 315.192 45.7527 314.346C44.6632 314.129 43.6336 313.912 43.4302 313.861C43.2626 313.823 42.5799 313.706 41.9689 313.615C41.3462 313.499 40.6759 313.347 40.4608 313.272C39.7679 313.011 36.4143 312.429 36.1969 312.535C36.0762 312.593 35.2383 312.403 34.3654 312.14C33.4683 311.888 31.9726 311.51 31.0389 311.306C27.8303 310.654 26.8505 310.294 26.7965 309.813C26.7149 308.66 27.7481 308.576 30.5213 309.499C31.155 309.699 32.2921 309.953 33.0831 310.047C33.85 310.153 34.7603 310.308 35.0713 310.396C35.7767 310.621 40.4576 311.604 41.452 311.748C43.681 312.04 44.1361 312.118 44.7698 312.317C45.6427 312.58 47.9169 313.089 49.0906 313.296C49.5816 313.386 50.4919 313.541 51.1147 313.657C51.7132 313.784 52.8986 314.015 53.7372 314.146C56.1681 314.608 58.7022 314.484 59.6823 313.86C61.8238 312.494 64.3576 305.66 63.732 302.891C63.1977 300.496 62.8511 299.412 62.4027 298.794C62.143 298.443 61.7656 297.91 61.5768 297.643C61.2345 297.183 60.5453 296.622 58.3328 295.01C56.7269 293.85 52.7822 292.54 49.9298 292.193C48.5395 292.031 47.2333 291.859 46.9941 291.796C46.7665 291.757 46.4906 291.742 46.394 291.789C45.6094 292.139 34.7953 289.207 34.8503 288.644C34.8526 288.464 34.8167 288.451 34.7069 288.594C34.6088 288.761 33.8785 288.608 33.078 288.31C32.2776 288.012 31.2971 287.711 30.8895 287.67C30.506 287.618 29.5131 287.353 28.7001 287.091C27.8872 286.829 25.8508 286.503 24.1845 286.326C22.53 286.174 21.0929 285.916 20.9993 285.723C20.9174 285.554 21.006 285.183 21.2256 284.897C21.5192 284.457 21.8558 284.413 23.3179 284.599C24.2523 284.743 25.1399 284.79 25.2365 284.743C25.3573 284.685 25.9925 284.765 26.6261 284.965C27.2722 285.129 27.8708 285.256 27.9674 285.209C28.1606 285.116 28.6392 285.242 34.7973 287.119C42.6538 289.485 44.3529 289.915 46.0089 289.947C46.7531 289.945 47.8917 290.079 48.5503 290.207C49.2088 290.335 49.8923 290.392 50.0372 290.322C50.3029 290.193 50.507 290.183 52.2472 290.205C53.279 290.242 55.6757 289.588 57.4015 288.841C58.0411 288.561 59.726 287.238 60.2019 286.619C60.8973 285.716 61.7215 282.185 61.5968 280.635C61.4721 279.085 60.1535 276.056 59.4723 275.82C59.2572 275.745 58.9843 275.489 58.879 275.272C58.4694 274.427 53.7494 271.763 52.0496 271.394C51.6069 271.28 51.1774 271.071 51.1072 270.926C51.0253 270.757 50.3214 270.412 49.5326 270.138C48.768 269.853 48.0758 269.532 47.9814 269.399C47.9229 269.278 47.1707 268.957 46.2861 268.669C45.4132 268.407 44.6727 268.109 44.6259 268.013C44.5791 267.916 43.6601 267.496 42.5969 267.087C40.4589 266.244 37.7962 265.119 35.8265 264.254C35.1344 263.933 33.63 263.29 32.5317 262.809C31.4093 262.338 30.0008 261.709 29.3445 261.401C27.6382 260.587 22.7138 258.917 21.9103 258.859C20.5309 258.782 15.0044 262.086 14.0014 263.586C13.9275 263.741 13.6969 263.942 13.5637 264.037C12.9826 264.437 12.139 266.635 12.1372 267.74C12.1414 268.364 12.1441 269.108 12.1521 269.432C12.1262 270.548 13.2831 275.952 13.8426 277.291C14.0174 277.714 14.1314 278.195 14.1174 278.351C14.091 278.543 14.4727 279.7 14.9495 280.93C15.4138 282.196 15.8906 283.426 15.9952 283.704C16.1341 284.114 16.5514 286.267 16.5922 286.844C16.6032 286.928 16.6353 287.241 16.6791 287.577C16.7784 288.275 15.3435 290.729 14.6431 291.069C14.1842 291.291 13.5144 292.063 12.305 293.752C11.5357 294.811 10.6166 297.284 10.5922 298.28C10.5738 298.796 10.458 299.419 10.3467 299.681C10.2229 299.98 10.206 300.376 10.3113 300.593C10.4166 300.81 10.4691 301.411 10.439 301.903C10.4183 302.599 10.7664 303.563 12.0177 306.208C13.9354 310.289 13.9996 310.914 12.8624 313.552C11.5393 316.668 11.1005 318.163 11.1067 319.592C11.0853 320.348 11.1129 321.02 11.1239 321.104C11.159 321.177 11.1918 321.429 11.213 321.658C11.4114 324.037 11.7916 325.314 13.5401 329.477C16.7001 336.922 17.7787 339.948 18.2507 342.522C18.4985 343.834 18.6628 345.096 18.5998 345.336C18.5492 345.539 18.6259 346.128 18.7633 346.658C19.1194 347.947 20.2007 348.824 22.0073 349.291C25.4889 350.199 27.6438 350.646 28.6281 350.646C29.1798 350.677 30.1984 350.809 30.857 350.938C31.5273 351.09 32.7025 351.177 33.4833 351.126C34.2758 351.1 34.9959 351.109 35.1152 351.171C35.2344 351.232 35.7262 351.262 36.2062 351.268C36.7104 351.263 37.6947 351.263 38.4389 351.26C40.3708 351.308 46.0399 351.007 46.5339 350.857C46.7871 350.764 47.1238 350.72 47.2913 350.758C47.4714 350.761 48.0488 350.66 48.6028 350.511C49.1326 350.373 49.6734 350.32 49.7927 350.382C49.9236 350.467 50.7052 350.357 51.5483 350.127C52.3789 349.934 53.2329 349.788 53.4005 349.826C53.6039 349.877 54.1454 349.764 54.6394 349.614C55.1217 349.44 55.664 349.266 55.8331 349.185C56.0138 349.127 56.4391 348.712 56.8168 348.261ZM324.65 218.402C326.192 216.969 328.548 214.754 329.034 214.28C329.181 214.09 329.435 213.877 329.533 213.77C329.666 213.675 330.238 213.07 330.81 212.405C331.394 211.765 332.076 211.017 332.343 210.768C332.574 210.507 332.964 210.08 333.219 209.807C333.45 209.546 333.779 209.178 333.937 209.012C334.095 208.845 334.352 208.513 334.486 208.298C334.621 208.084 335.646 206.752 336.756 205.35C337.854 203.923 338.734 202.602 338.712 202.433C338.703 202.229 338.813 202.087 338.969 202.1C339.124 202.114 339.479 201.615 339.763 200.97C340.023 200.337 340.342 199.765 340.487 199.695C340.632 199.625 341.234 198.528 341.838 197.251C342.442 195.974 342.995 194.901 343.068 194.866C343.164 194.819 343.499 193.971 343.799 192.99C344.524 190.671 344.296 189.708 342.693 188.307C339.892 185.788 337.908 183.171 335.964 179.281C332.954 173.314 330.505 169.491 328.689 167.836C328.499 167.689 328.309 167.483 328.274 167.411C327.908 166.902 325.383 165.382 324.319 165.033C321.497 164.133 321.151 164.033 320.885 164.162C320.74 164.232 320.549 164.145 320.455 163.952C320.362 163.759 320.099 163.648 319.871 163.669C319.642 163.69 318.999 163.286 318.417 162.823C317.526 162.091 317.208 161.559 316.133 159.217C315.444 157.732 314.694 156.247 314.434 155.955C312.766 153.99 310.409 152.388 308.4 151.811C307.216 151.46 302.464 151.317 301.885 151.598C301.74 151.668 301.02 151.659 300.265 151.578C298.934 151.417 298.803 151.331 296.752 149.313C296.42 148.997 296.149 148.562 294.445 145.66C293.822 144.56 292.844 143.095 292.265 142.392C291.71 141.676 290.457 140.136 289.523 138.949C287.585 136.488 285.496 134.637 284.276 134.274C282.41 133.747 278.827 134.23 275.776 135.44C273.014 136.51 272.282 137.401 271.01 141.238C270.462 142.876 270.06 144.263 270.119 144.384C270.224 144.601 270.023 145.355 268.886 148.918C268.411 150.46 268.046 151.8 268.093 151.897C268.139 151.993 267.988 152.604 267.8 153.261C267.587 153.931 267.173 155.354 266.871 156.455C266.606 157.568 266.179 159.087 265.965 159.876C265.751 160.666 265.596 161.516 265.641 161.793C265.661 162.081 265.551 162.284 265.37 162.281C265.215 162.267 265.141 162.423 265.234 162.616C265.34 162.833 265.325 163.049 265.18 163.119C264.938 163.236 263.85 167.76 264.002 168.074C264.049 168.17 263.897 168.781 263.65 169.378C262.968 171.11 262.621 172.978 262.544 175.281C262.472 177.225 262.539 177.55 263.44 179.47C264.317 181.281 264.577 181.632 265.803 182.5C267.682 183.856 268.97 184.544 269.356 184.357C269.525 184.275 269.789 184.326 269.955 184.484C270.323 184.813 272.607 184.541 273.814 184.016C274.284 183.818 275.034 183.395 275.446 183.076C275.87 182.781 276.742 182.12 277.384 181.66C278.438 180.881 281.01 177.696 281.517 176.526C281.628 176.263 281.934 175.847 282.164 175.646C282.407 175.409 282.8 174.742 283.023 174.156C283.235 173.547 283.456 173.141 283.491 173.214C283.538 173.31 283.672 173.156 283.783 172.893C283.894 172.631 283.874 172.342 283.707 172.244C283.54 172.146 283.613 172.051 283.866 172.018C284.154 171.998 284.586 171.043 285.175 169.058C285.675 167.444 286.172 166.07 286.342 165.988C286.486 165.917 287.029 164.76 287.538 163.41C289.287 158.835 290.579 156.33 292.508 153.725C293.265 152.703 293.313 152.679 293.838 152.962C294.637 153.38 294.67 153.572 294.062 154.225C293.746 154.557 293.379 155.093 293.23 155.463C293.082 155.833 292.677 156.536 292.335 157C291.993 157.464 291.525 158.406 291.277 159.063C291.017 159.696 290.685 160.304 290.541 160.375C290.371 160.456 290.284 160.767 290.34 161.068C290.396 161.369 290.271 161.788 290.052 162.013C289.638 162.452 287.683 167.217 286.289 171.172C285.879 172.295 285.483 173.263 285.386 173.31C285.289 173.356 285.068 173.762 284.882 174.239C284.4 175.398 282.917 177.876 281.769 179.446C281.207 180.195 280.245 182.272 279.561 184.184C278.529 187.039 278.313 188.009 278.324 190.002C278.335 192.054 278.46 192.62 279.138 194.081C280.518 196.931 281.856 198.4 283.851 199.193C284.15 199.317 285.344 199.812 286.478 200.306C288.508 201.171 289.585 201.425 291.29 201.374C292.442 201.352 292.974 201.035 294.227 199.742C295.358 198.568 295.848 197.794 297.436 194.609C297.977 193.511 298.801 191.949 299.267 191.127C299.71 190.316 300.055 189.552 299.997 189.432C299.938 189.311 300.011 189.216 300.179 189.254C300.359 189.256 300.481 189.078 300.508 188.826C300.551 188.298 301.917 185.579 302.231 185.426C302.352 185.368 302.475 185.129 302.49 184.914C302.504 184.698 302.789 184.053 303.095 183.517C303.671 182.552 304.374 181.048 305.29 178.875C305.55 178.242 305.905 177.682 306.074 177.6C306.243 177.519 306.365 177.34 306.367 177.22C306.356 177.076 306.739 176.204 307.244 175.214C308.806 172.161 308.66 172.351 309.234 172.491C310.215 172.731 310.199 173.067 308.885 175.463C308.529 176.143 308.356 176.525 307.702 177.945C307.628 178.1 306.951 179.472 306.188 180.975C305.437 182.442 304.832 183.778 304.831 183.898C304.841 184.043 304.743 184.209 304.598 184.28C304.453 184.35 304.135 184.862 303.863 185.471C303.604 186.044 303.198 186.867 302.964 187.308C302.73 187.749 302.384 188.573 302.149 189.134C301.938 189.684 301.533 190.447 301.264 190.816C300.971 191.196 300.479 192.15 300.109 192.926C299.775 193.714 299.171 195.051 298.776 195.898C297.961 197.724 296.058 203.03 296.3 202.913C296.396 202.866 296.356 203.214 296.194 203.68C295.895 204.6 296.306 206.31 296.903 206.557C297.105 206.668 297.533 207.057 297.816 207.457C298.111 207.821 298.587 208.187 298.862 208.262C299.125 208.313 299.399 208.509 299.493 208.702C299.574 208.871 300.133 209.286 300.717 209.63C301.301 209.973 302.099 210.511 302.538 210.865C303.061 211.267 303.887 211.494 305.242 211.583C306.897 211.675 307.415 211.574 308.827 210.919C310.433 210.171 310.554 210.052 313.008 206.746C316.695 201.799 321.623 195.475 325.817 190.282C327.486 188.25 328.37 187.673 328.721 188.397C328.885 188.735 328.662 189.261 328.015 190.141C327.49 190.843 326.967 191.424 326.858 191.447C326.774 191.458 326.627 191.708 326.576 191.972C326.5 192.247 326.244 192.58 325.978 192.708C325.737 192.825 324.994 193.692 324.346 194.632C323.698 195.573 322.735 196.785 322.176 197.354C321.64 197.912 321.105 198.529 321.042 198.708C320.944 198.875 319.857 200.386 318.624 202.027C316.196 205.201 314.985 207.071 314.918 207.61C314.904 207.766 314.673 208.027 314.431 208.144C313.924 208.39 312.856 211.233 312.706 212.708C312.607 213.919 313.647 216.128 314.741 216.97C315.645 217.666 317.706 218.904 318.781 219.337C321.276 220.425 321.575 220.488 322.396 220.09C322.831 219.88 323.861 219.112 324.65 218.402ZM253.778 250.683C254.095 250.291 254.402 249.754 254.489 249.503C254.6 249.241 254.907 248.704 255.2 248.324C255.481 247.919 255.666 247.502 255.608 247.381C255.537 247.236 255.611 247.081 255.78 246.999C255.925 246.929 256.354 246.214 256.712 245.414C257.07 244.614 257.562 243.66 257.795 243.279C258.028 242.898 258.546 241.752 258.943 240.725C259.34 239.697 259.796 238.791 259.916 238.732C260.412 238.463 261.431 234.718 261.414 233.206C261.386 231.609 261.145 230.682 260.807 230.846C260.638 230.927 259.874 231.566 258.503 232.737C258.272 232.938 257.51 233.457 256.82 233.881C255.671 234.586 254.939 235.538 255.161 235.996C255.313 236.31 254.195 239.357 253.646 240.071C253.378 240.439 253.033 241.083 252.932 241.49C252.807 241.909 252.598 242.278 252.453 242.348C252.309 242.419 251.941 243.014 251.597 243.658C251.277 244.29 250.691 245.111 250.326 245.467C249.645 246.154 249.645 246.154 250.628 248.183C251.681 250.357 251.868 251.787 251.341 253.593C251.128 254.323 251.225 254.216 252.166 252.895C252.752 252.074 253.497 251.087 253.778 250.683ZM74.9823 338.236C75.117 338.022 74.495 337.846 73.1156 337.769C70.8611 337.609 69.4862 337.172 69.1468 336.471C68.7958 335.747 69.5532 335.648 71.7916 336.144C72.9645 336.411 74.019 336.556 74.1397 336.498C74.2847 336.427 74.8372 336.398 75.4014 336.393C75.9773 336.412 76.6139 336.372 76.8188 336.303C77.2279 336.224 79.7937 335.488 80.4927 335.268C81.1433 335.072 83.5652 333.362 83.7621 332.969C83.8727 332.766 84.0666 332.612 84.2225 332.626C84.3784 332.64 84.6938 332.368 84.9625 331.999C85.2187 331.666 85.51 331.406 85.6176 331.443C85.7252 331.481 85.895 331.339 86.0055 331.136C86.1044 330.909 86.5055 330.506 86.8451 330.222C87.2089 329.927 87.7557 329.393 88.0485 329.013C88.7922 328.086 90.1427 326.627 90.2511 326.604C90.3111 326.605 90.5329 326.139 90.7438 325.59C90.9547 325.04 91.2 324.623 91.3317 324.649C91.4393 324.686 91.6838 324.329 91.8698 323.851C92.0558 323.374 92.3376 322.909 92.5067 322.827C93.352 322.417 95.7767 315.666 96.5492 311.475C96.9214 309.535 97.1326 308.001 97.0485 308.012C96.9884 308.011 96.6767 307.983 96.3291 307.943C95.9815 307.903 95.1656 307.88 94.4939 307.848C92.3937 307.822 90.4157 307.617 88.3917 307.256C85.5774 306.741 84.4187 305.334 84.3719 302.345C84.3289 299.055 85.7571 297.14 88.9135 296.208C90.4072 295.782 93.1953 295.505 95.3072 295.555C96.0032 295.576 96.0156 295.54 95.9001 295.178C95.8423 294.998 95.4716 293.925 95.0775 292.804C94.6834 291.682 94.287 290.741 94.2153 290.716C94.1436 290.691 93.4228 290.742 92.6536 290.817C90.0814 291.109 87.8153 289.94 86.4761 287.607C85.4301 285.818 85.9197 283.135 87.56 281.535C88.131 280.99 88.5336 280.467 88.4751 280.346C88.2762 279.936 86.0296 277.207 85.5782 276.829C85.3287 276.622 84.8437 276.052 84.5138 275.556C84.1597 275.071 83.5796 274.428 83.2116 274.099C82.8553 273.794 82.3213 273.308 82.085 273.005C80.4514 271.172 74.3693 267.051 72.0746 266.254C71.5727 266.08 70.7971 265.71 70.38 265.465C69.4508 264.901 65.3341 263.914 62.5176 263.578C60.0486 263.284 56.3642 263.25 56.277 263.501C56.2638 263.597 56.8492 263.82 57.6028 264.021C60.881 264.878 66.27 266.83 67.7355 267.701C68.0809 267.921 68.844 268.327 69.4644 268.622C70.0491 268.906 70.5729 269.248 70.6314 269.369C70.69 269.49 71.2138 269.832 71.8101 270.14C72.3947 270.423 73.0013 270.875 73.1783 271.117C73.3436 271.335 73.8777 271.822 74.3649 272.212C74.8405 272.578 75.3395 272.993 75.4221 273.102C75.5165 273.235 75.6943 273.417 75.8011 273.515C76.867 274.668 78.5764 277.15 79.1967 278.43C80.2615 280.628 81.0009 284.862 80.373 285.166C80.2281 285.237 80.2017 285.428 80.2836 285.597C80.3538 285.742 80.2101 286.677 79.9223 287.621C79.6461 288.59 79.4674 289.452 79.5259 289.573C79.5844 289.694 79.4429 290.448 79.229 291.238C78.2505 294.634 78.0413 296.972 78.6799 297.736C78.7509 297.821 78.7837 298.074 78.7449 298.301C78.6943 298.505 78.771 299.094 78.9209 299.588C79.9716 302.926 78.3269 312.58 76.2625 315.459C75.6519 316.291 75.5098 317.106 75.4343 320.274C75.3892 321.965 74.8354 324.023 74.4278 323.982C74.2961 323.956 74.1372 324.182 74.0742 324.422C73.9101 325.068 71.5512 326.539 70.5538 326.634C69.9771 326.675 69.8198 326.781 69.9251 326.999C70.2293 327.627 69.8941 330.443 69.3618 331.745C68.3469 334.205 66.4854 336.21 62.8412 338.721C61.8121 339.429 60.854 340.221 60.7186 340.495C60.4975 340.901 60.7126 340.975 62.3935 340.936C63.4619 340.926 64.8918 340.799 65.5417 340.663C66.1915 340.527 67.1897 340.372 67.7305 340.319C68.5955 340.257 71.6538 339.491 73.8588 338.811C74.2321 338.719 74.5695 338.615 74.6419 338.58C74.7261 338.569 74.8842 338.403 74.9823 338.236ZM75.8144 337.923C75.7793 337.85 75.7076 337.825 75.6351 337.861C75.5627 337.896 75.5378 337.967 75.5729 338.04C75.608 338.112 75.6797 338.137 75.7522 338.102C75.8246 338.067 75.8495 337.995 75.8144 337.923ZM306.051 225.624C306.997 224.868 308.101 223.945 308.489 223.578C308.89 223.235 309.581 222.631 310.006 222.277C310.673 221.685 311.586 220.676 313.013 218.881C313.44 218.346 313.44 218.346 312.779 218.398C312.406 218.43 310.469 218.861 308.482 219.377C304.412 220.394 302.659 220.469 300.232 219.646C299.408 219.36 298.167 218.708 297.526 218.184C296.325 217.245 296.325 217.245 295.14 217.998C294.341 218.504 293.762 218.725 293.439 218.613C293.176 218.562 292.875 218.618 292.79 218.749C292.704 218.88 292.343 218.936 292.008 218.859C291.673 218.783 291.205 218.801 290.987 218.907C290.456 219.164 289.31 218.646 287.919 217.56C285.875 215.926 284.326 215.007 283.737 215.083C282.847 215.216 277.816 213.449 275.778 212.26C272.966 210.64 270.543 208.593 268.069 205.766C266.696 204.224 264.527 202.949 259.954 201.019C255.083 198.966 252.788 196.261 251.413 191.023C250.852 188.819 250.491 185.058 250.67 183.211C250.738 182.552 250.746 181.952 250.687 181.831C250.629 181.71 250.731 181.244 250.917 180.766C251.103 180.288 251.204 179.821 251.146 179.7C251.087 179.58 251.079 179.315 251.142 179.076C252.116 175.055 253.461 171.123 254.655 168.785C255.11 167.879 255.48 167.103 255.457 167.055C255.129 166.379 250.33 172.909 249.558 175.131C249.446 175.454 249.088 176.254 248.768 176.886C248.214 178.019 247.032 182.35 246.692 184.542C246.589 185.129 246.654 185.694 246.833 185.816C246.999 185.914 246.999 185.974 246.855 185.924C246.508 185.824 246.283 187.514 246.342 189.543C246.369 190.275 246.369 191.2 246.364 191.62C246.266 193.695 247.91 202.382 248.515 202.953C248.646 203.099 249.174 203.082 249.68 202.956C250.607 202.715 253.36 203.35 253.749 203.907C253.855 204.064 254.116 204.296 254.306 204.442C254.949 204.846 255.647 206.655 255.688 208.156C255.766 209.609 254.812 212.01 253.916 212.623C252.73 213.437 252.714 213.772 253.784 215.55C254.348 216.469 255.009 217.402 255.246 217.645C255.708 218.107 255.708 218.107 257.219 216.361C258.059 215.387 259.48 214.013 260.414 213.292C262.05 211.992 262.171 211.934 263.637 211.76C264.647 211.629 265.343 211.709 265.687 211.99C265.96 212.245 266.343 212.358 266.536 212.264C266.705 212.182 266.932 212.281 267.025 212.474C267.131 212.692 267.57 213.045 267.987 213.291C269.823 214.31 270.773 217.07 269.794 218.618C269.548 219.036 269.229 219.608 269.118 219.87C268.537 221.195 267.947 222.316 267.778 222.398C267.681 222.445 267.315 222.981 266.995 223.553C266.652 224.137 266.249 224.72 266.043 224.849C265.837 224.979 265.531 225.455 265.334 225.909C265.136 226.362 264.952 226.66 264.905 226.564C264.87 226.491 264.798 226.526 264.76 226.634C264.711 226.777 265.139 227.107 265.699 227.402C266.272 227.661 266.832 228.016 266.938 228.173C267.068 228.319 267.784 228.688 268.536 229.009C269.312 229.319 269.98 229.652 270.027 229.748C270.144 229.99 275.342 231.855 275.583 231.738C275.68 231.691 276.111 231.781 276.553 231.954C278.035 232.489 279.773 232.69 283.336 232.783C285.292 232.819 286.913 232.839 286.937 232.828C287.022 232.757 287.875 232.671 289.065 232.542C290.435 232.415 290.555 232.357 289.899 232.048C288.944 231.616 286.924 230.031 286.095 229.06C285.457 228.296 285.34 228.055 285.465 227.636C285.726 226.943 286.554 226.929 286.893 227.63C287.046 227.944 287.365 228.356 287.602 228.539C287.828 228.698 288.316 229.088 288.684 229.417C289.42 230.014 290.53 230.58 291.523 230.844C291.894 230.933 292.382 231.203 292.655 231.459C292.928 231.714 293.323 231.791 293.637 231.639C294.169 231.381 294.169 231.381 293.511 231.193C292.721 230.979 291.453 229.655 290.903 228.52C290.623 227.94 290.637 227.725 291 227.549C291.507 227.303 292.379 227.626 292.338 228.034C292.324 228.19 292.644 228.542 293.024 228.835C293.429 229.116 293.749 229.408 293.784 229.48C293.889 229.698 295.67 230.356 295.887 230.251C296.322 230.04 296.184 229.57 295.67 229.372C294.785 229.085 294.149 228.14 294.55 227.737C294.757 227.488 295.225 227.53 296.036 227.912C297.182 228.43 299.196 228.647 299.872 228.32C300.089 228.214 300.46 228.303 300.722 228.474C301.15 228.804 301.379 228.723 302.77 227.9C303.629 227.394 305.094 226.356 306.051 225.624ZM241.883 255.492C242.248 255.076 242.421 252.786 242.117 252.158C241.918 251.747 241.239 251.331 240.14 250.909C234.918 248.995 231.207 245.336 231.306 242.217C231.345 241.005 231.948 238.864 232.31 238.688C232.431 238.63 232.701 238.141 232.912 237.592C233.422 236.182 234.308 234.38 235.202 232.963C236.195 231.319 238.707 228.133 239.166 227.911C239.359 227.817 239.482 227.639 239.411 227.494C239.224 227.108 244.234 224.769 244.808 224.969C245.561 225.23 246.797 225.258 246.404 225.001C246.226 224.878 246.478 224.845 246.922 224.899C247.628 225.004 248.111 224.83 249.477 224.019C250.432 223.466 251.389 222.794 251.573 222.496C251.951 221.985 251.951 221.985 250.64 221.248C249.913 220.855 249.138 220.426 248.899 220.303C247.743 219.64 243.784 218.546 243.122 218.718C242.953 218.74 242.413 218.793 241.92 218.823C240.503 218.914 238.45 219.908 236.739 221.363C235.878 222.109 234.968 222.878 234.726 223.055C234.495 223.256 234.324 223.518 234.346 223.686C234.367 223.854 234.246 223.973 234.09 223.959C233.958 223.933 233.57 224.24 233.265 224.657C232.972 225.037 232.693 225.322 232.658 225.249C232.611 225.153 232.5 225.355 232.377 225.654C232.289 225.965 232.032 226.298 231.839 226.391C231.646 226.485 231.548 226.652 231.618 226.797C231.677 226.918 231.48 227.251 231.153 227.499C230.595 227.948 228.543 230.851 228.441 231.318C228.415 231.45 228.133 231.915 227.803 232.403C227.461 232.866 227.068 233.594 226.931 233.988C226.559 234.944 225.537 237.02 225.318 237.245C225.221 237.352 225.195 237.543 225.265 237.688C225.335 237.833 225.221 238.276 225.012 238.705C224.803 239.135 224.677 239.553 224.736 239.674C224.783 239.771 224.692 240.322 224.528 240.908C223.965 242.761 224.182 246.533 224.955 248.127C225.423 249.093 227.676 251.282 228.287 251.373C228.443 251.387 228.812 251.596 229.145 251.852C230.025 252.499 231.636 253.3 236.184 255.301C237.855 256.042 238.285 256.191 240.284 256.684C241.265 256.925 241.325 256.925 241.501 256.303C241.601 255.956 241.774 255.575 241.883 255.492ZM221.332 262.377C221.824 261.423 222.829 259.803 223.561 258.792C224.306 257.805 225.173 256.64 225.454 256.235C225.759 255.819 226.454 254.975 227.014 254.346C227.902 253.349 228.128 252.584 227.48 252.6C227.131 252.619 225.053 250.853 224.475 250.03C224.192 249.63 223.92 249.314 223.895 249.326C223.823 249.361 221.821 252.061 220.953 253.286C220 254.643 218.023 258.195 217.454 259.604C217.306 259.915 216.961 260.619 216.69 261.167C215.843 262.681 214.712 265.764 214.927 265.899C215.177 266.046 216.489 265.738 218.262 265.088C219.021 264.809 219.72 264.59 219.804 264.639C220.079 264.714 220.421 264.191 221.332 262.377ZM167.205 288.841C167.892 287.614 168.604 284.466 168.311 283.862C168.299 283.838 167.431 284.139 166.346 284.546C165.285 284.941 164.033 285.249 163.577 285.231C163.097 285.225 162.133 285.513 161.348 285.924C160.587 286.322 159.37 286.703 158.648 286.814C157.915 286.901 157.049 287.022 156.712 287.126C155.195 287.503 154.858 287.547 153.945 287.572C153.417 287.589 152.275 287.695 151.446 287.829C150.616 287.963 149.679 287.999 149.38 287.935C149.093 287.836 148.709 287.843 148.564 287.913C148.274 288.053 144.914 287.951 142.985 287.723C142.337 287.679 141.725 287.648 141.605 287.706C141.484 287.765 141.089 287.688 140.718 287.539C140.348 287.39 139.905 287.337 139.712 287.431C139.543 287.512 139.362 287.51 139.316 287.414C139.257 287.293 138.479 287.103 137.605 286.96C135.688 286.636 133.891 285.449 133.224 284.073C132.955 283.517 132.83 282.952 132.928 282.785C133.221 282.344 130.242 277.734 128.889 276.541C128.259 275.981 128.259 275.981 127.75 278.315C127.482 279.608 127.177 280.949 127.101 281.284C126.155 284.993 127.188 288.727 129.594 290.245C130.439 290.82 133.01 291.572 133.373 291.396C133.542 291.315 133.757 291.329 133.853 291.402C133.948 291.476 135.505 291.735 137.327 291.926C139.161 292.141 141.006 292.38 141.461 292.458C141.905 292.511 142.481 292.53 142.71 292.449C142.975 292.38 143.466 292.411 143.813 292.511C144.148 292.647 145.503 292.736 146.823 292.752C148.131 292.745 149.427 292.773 149.667 292.776C149.919 292.803 150.459 292.81 150.868 292.791C151.276 292.772 152.273 292.736 153.077 292.734C155.178 292.701 158.388 292.248 161.06 291.67C165.501 290.681 166.383 290.284 167.205 288.841ZM60.6379 338.298C61.0602 338.123 63.3855 336.459 63.9682 335.939C64.0897 335.82 64.4776 335.513 64.8172 335.229C66.115 334.153 67.1428 332.581 67.7902 330.717C68.1154 329.665 68.344 328.659 68.2621 328.49C68.1685 328.297 68.2088 327.949 68.3201 327.687C68.5669 327.15 68.1615 326.929 66.7338 326.875C66.0138 326.866 65.5733 326.572 64.661 325.613C64.0217 324.909 63.4159 324.397 63.3193 324.444C63.2227 324.49 63.1529 325.27 63.1534 326.194C63.1404 328.198 62.1071 331.174 61.075 332.122C60.6864 332.489 60.2128 332.927 60.0664 333.117C59.9083 333.283 59.2188 333.707 58.5543 334.059C57.1644 334.822 56.775 335.249 57.2879 335.507C57.8367 335.778 58.6274 336.856 59.2352 338.172C59.6791 339.15 59.8093 339.296 59.9697 338.95C60.0927 338.711 60.3964 338.415 60.6379 338.298ZM311.664 215.42C311.302 214.611 310.966 213.61 310.959 213.226C310.852 212.145 310.604 211.817 310.168 212.148C309.284 212.785 306.023 213.441 304.453 213.277C302.918 213.126 300.924 212.273 299.272 211.016C298.38 210.345 298.245 210.559 298.549 212.171C298.728 213.218 298.2 215.144 297.556 215.784C297.252 216.08 300.265 217.99 300.7 217.779C300.869 217.698 301.227 217.822 301.477 218.029C301.916 218.383 304.039 218.577 305.997 218.434C306.405 218.415 307.706 218.083 308.923 217.702C310.14 217.321 311.259 217.047 311.463 217.097C312.252 217.311 312.306 216.868 311.664 215.42ZM173.171 279.121C173.463 278.861 174.299 278.247 175.025 277.716C175.764 277.209 176.637 276.488 176.93 276.108C177.259 275.74 177.854 275.183 178.266 274.864C178.678 274.545 179.127 274.118 179.286 273.892C179.421 273.678 180.138 272.943 180.867 272.232C182.094 271.071 182.691 270.394 184.652 268.042C185.36 267.162 186.065 266.403 186.307 266.226C186.974 265.694 189.787 261.528 190.282 260.334C190.89 258.757 190.89 258.757 189.392 259.483C187.895 260.208 187.895 260.208 187.316 259.445C186.844 258.779 186.665 258.716 186.061 259.009C185.361 259.348 185.361 259.348 184.647 257.875C184.261 257.078 183.884 256.485 183.811 256.58C183.714 256.687 183.421 257.068 183.104 257.46C182.811 257.84 182.468 258.364 182.381 258.615C182.294 258.866 182.05 259.163 181.857 259.257C181.664 259.35 181.225 259.861 180.87 260.421C180.54 260.969 179.833 261.788 179.323 262.274C178.813 262.76 178.241 263.365 178.057 263.662C177.385 264.674 173.45 268.37 171.256 270.059C168.917 271.819 163.867 274.444 161.337 275.193C160.109 275.55 158.549 275.47 158.267 275.011C157.867 274.369 154.696 273.61 153.947 273.973C153.85 274.019 153.857 274.464 153.995 274.933C154.097 275.391 154.15 275.992 154.087 276.231C153.934 276.961 155.668 280.296 156.62 281.028C158.022 282.137 161.149 283.605 161.632 283.371C161.752 283.312 162.196 283.366 162.614 283.491C163.463 283.766 164.065 283.653 165.946 282.98C166.657 282.725 167.248 282.528 167.283 282.541C167.415 282.567 172.71 279.524 173.171 279.121ZM129.324 298.428C130.848 297.511 132.433 296.474 132.833 296.131C133.234 295.788 133.901 295.256 134.324 294.961C136.541 293.32 136.515 293.512 134.634 293.261C133.699 293.117 132.119 292.749 131.091 292.412C129.501 291.9 129.19 291.872 128.656 292.31C126.921 293.777 122.577 296.627 121.588 296.987C120.949 297.207 119.829 297.481 119.084 297.604C117.749 297.803 117.749 297.803 116.937 299.39C116.494 300.26 116.017 300.999 115.908 301.021C115.776 301.056 115.413 301.291 115.097 301.563C114.041 302.522 115.487 303.969 117.456 303.969C119.604 303.972 121.645 303.013 129.324 298.428ZM219.602 252.898C220.152 252.124 220.569 251.385 220.522 251.289C220.382 250.999 215.255 249.218 213.005 248.698C211.796 248.419 210.455 248.114 210.037 247.989C209.594 247.876 209.102 247.845 208.933 247.927C208.764 248.009 208.176 247.966 207.626 247.815C206.669 247.563 206.115 247.712 206.337 248.171C206.396 248.292 206.448 248.893 206.441 249.493C206.455 250.261 206.258 250.715 205.809 251.081C205.166 251.601 205.117 252.669 205.689 253.048C205.844 253.122 205.769 253.337 205.587 253.515C205.284 253.751 205.391 253.789 205.957 253.664C206.378 253.609 206.749 253.638 206.808 253.758C206.866 253.879 207.058 253.905 207.251 253.812C207.445 253.718 207.685 253.721 207.791 253.819C207.887 253.892 209.168 254.136 210.666 254.335C214.057 254.809 214.463 254.91 216.144 255.855C217.479 256.64 217.479 256.64 218.033 255.507C218.329 254.886 219.04 253.707 219.602 252.898ZM71.8988 323.686C71.5478 322.962 70.7138 319.579 70.5845 318.389C70.351 315.937 70.5403 311.342 70.9462 309.595C71.1997 308.518 71.4305 307.332 71.4592 306.961C71.4995 306.613 71.6723 306.231 71.8414 306.149C72.0346 306.056 72.2799 305.639 72.3692 305.208C72.5201 304.657 72.7273 304.408 73.0998 304.377C73.5564 304.334 73.6983 304.504 74.1268 305.758C74.6372 307.18 74.6372 307.18 74.8277 306.343C74.9537 305.864 75.0483 305.013 75.0675 304.437C75.1108 303.849 75.2289 303.047 75.3417 302.664C75.4545 302.281 75.6223 301.335 75.7403 300.532C75.8342 299.741 76.0658 298.496 76.2314 297.73C76.397 296.964 76.5135 296.281 76.4667 296.184C76.3848 296.015 77.1233 292.616 77.5745 291.085C77.6998 290.666 77.7533 290.223 77.6948 290.102C77.6246 289.957 77.8128 289.3 78.0977 288.595C78.3584 287.902 78.5357 287.16 78.5021 286.968C78.4568 286.751 78.5088 286.427 78.6077 286.201C78.9291 285.448 79.1946 283.411 78.9794 283.337C78.8719 283.299 78.8273 283.023 78.9152 282.712C79.1812 281.599 75.1664 274.359 73.9972 273.792C73.8179 273.73 73.0811 273.133 72.381 272.488C69.1408 269.555 60.8192 265.982 55.2967 265.109C54.4223 264.966 53.6079 264.824 53.5003 264.786C52.9625 264.6 50.8419 264.285 49.7025 264.211C48.9708 264.178 47.7114 264.102 46.9321 264.032C46.1286 263.974 45.2768 263.94 45.0368 263.937C44.8085 263.958 44.3884 263.953 44.1367 263.926C43.885 263.898 43.129 263.877 42.469 263.869C41.8089 263.86 40.9337 263.778 40.5503 263.725C40.131 263.66 39.8544 263.704 39.9129 263.825C40.0533 264.115 41.2335 264.766 42.1298 265.077C42.5484 265.202 43.2764 265.535 43.7776 265.769C44.6725 266.201 46.798 267.079 52.6026 269.396C55.6004 270.598 57.3886 271.581 59.3618 273.13C60.4197 273.959 60.6786 274.37 62.1063 277.317C63.686 280.577 63.686 280.577 63.5334 282.232C63.438 283.143 63.3917 283.97 63.4385 284.067C63.6491 284.502 62.0055 287.326 60.8504 288.512C60.3644 288.986 59.7218 289.506 59.4078 289.658C58.8523 289.927 58.8267 290.059 58.9145 292.641C58.9108 292.941 59.1829 293.256 59.6241 293.49C60.0177 293.687 60.9206 294.442 61.6675 295.184C62.8051 296.362 63.135 296.858 64.1844 299.332C64.8375 300.865 65.4664 302.409 65.5578 302.782C65.8568 303.83 65.6329 306.384 65.0727 307.997C64.8105 308.81 64.4113 310.018 64.1989 310.687C63.999 311.321 63.1775 312.703 62.3965 313.737C60.969 315.592 60.969 315.592 62.3593 318.646C64.2176 322.666 65.7531 324.666 67.2378 324.961C68.7942 325.28 70.2717 325.191 71.2978 324.723C72.1065 324.361 72.168 324.242 71.8988 323.686ZM295.215 215.815C296.284 214.76 297.027 212.969 296.787 211.981C296.684 211.584 296.56 210.898 296.458 210.441C296.245 209.262 293.751 204.177 293.017 203.4C292.543 202.914 292.22 202.802 291.858 202.978C291.556 203.094 290.751 203.156 290.068 203.099C289.373 203.019 288.629 202.961 288.401 202.982C286.697 202.973 280.209 199.616 280.113 198.678C280.103 198.474 279.938 198.256 279.759 198.194C279.579 198.131 278.874 196.922 278.16 195.509C276.849 192.804 276.426 191.13 276.514 188.851C276.554 187.579 276.061 186.685 274.929 186.01C274.44 185.74 273.96 185.734 273.008 186.046C272.309 186.266 271.624 186.389 271.493 186.304C271.35 186.194 271.062 186.214 270.844 186.32C270.313 186.577 267.357 185.892 266.703 185.344C266.395 185.076 265.645 184.574 265.037 184.243C263.964 183.629 263.87 183.496 262.337 180.332C260.745 177.047 260.745 177.047 260.789 174.491C260.808 172.991 261.068 171.374 261.39 170.562C261.676 169.797 261.839 169.211 261.743 169.258C261.574 169.34 262.102 167.354 263.328 163.42C263.591 162.547 263.943 161.243 264.12 160.501C264.273 159.771 264.689 158.228 265.039 157.104C265.39 155.92 265.558 154.914 265.392 154.756C265.143 154.549 265.07 154.584 264.86 155.073C264.736 155.372 264.553 155.669 264.432 155.728C264.335 155.775 263.627 156.774 262.856 157.953C262.073 159.107 261.255 160.25 261.012 160.487C260.745 160.735 260.597 161.046 260.655 161.166C260.725 161.311 260.641 161.382 260.461 161.38C260.305 161.366 260.196 161.449 260.254 161.569C260.313 161.69 260.067 162.107 259.75 162.499C259.398 162.879 258.846 163.772 258.501 164.476C258.157 165.18 257.825 165.788 257.752 165.823C257.463 165.964 256.43 167.955 255.772 169.676C254.581 172.757 253.199 176.797 252.982 177.827C251.666 184.16 251.841 188.459 253.572 193.078C254.641 195.9 257.239 198.309 260.918 199.807C261.407 200.017 262.672 200.597 263.734 201.127C264.796 201.656 266.18 202.297 266.801 202.533C267.387 202.757 267.804 203.002 267.707 203.049C267.61 203.095 267.765 203.229 268.052 203.329C268.338 203.429 269.006 203.761 269.53 204.104C270.042 204.422 270.592 204.633 270.713 204.574C270.858 204.504 270.941 204.553 270.904 204.661C270.854 204.804 271.092 204.987 271.439 205.088C272.072 205.288 272.322 205.435 274.334 206.756C275.037 207.221 275.634 207.468 275.66 207.337C275.721 207.218 275.864 207.327 276.004 207.617C276.145 207.907 276.382 208.09 276.503 208.031C276.648 207.961 276.982 208.097 277.255 208.353C277.659 208.694 277.661 208.574 277.204 207.692C276.22 205.723 276.207 205.759 277.036 205.686C277.866 205.612 279.323 206.158 281.601 207.351C282.507 207.806 283.712 208.445 284.272 208.74C284.833 209.036 285.713 209.683 286.247 210.169C286.757 210.668 287.884 211.702 288.775 212.494C289.653 213.261 290.884 214.632 291.486 215.504C292.087 216.376 292.666 217.139 292.797 217.225C293.106 217.433 294.243 216.763 295.215 215.815ZM289.837 215.856C289.411 215.346 288.879 214.679 288.643 214.376C288.111 213.71 284.869 210.956 283.915 210.404C281.497 208.982 280.364 208.368 280.017 208.267C279.814 208.217 279.456 208.032 279.29 207.874C279.124 207.716 279.252 208.042 279.593 208.622C279.958 209.191 280.644 209.992 281.119 210.418C281.617 210.832 282.045 211.221 282.104 211.282C282.163 211.343 282.424 211.634 282.708 211.974C283.004 212.278 283.289 212.497 283.386 212.45C283.458 212.415 284.042 212.759 284.696 213.247C285.314 213.723 285.922 214.114 286.029 214.152C286.161 214.177 286.565 214.519 286.98 214.884C288.048 215.857 290.681 217.475 290.65 217.102C290.628 216.934 290.263 216.365 289.837 215.856ZM73.6655 320.624C73.599 320.179 73.6525 319.735 73.7733 319.677C73.894 319.618 73.9513 318.875 73.9376 318.046C73.9123 317.194 73.9748 316.03 74.0423 315.431C74.2768 313.946 73.4194 307.621 73.0088 307.82C72.7915 307.926 72.2526 311.676 72.1928 313.584C72.1654 314.819 72.0538 316.066 71.9908 316.306C71.9037 316.557 71.8992 316.917 71.9811 317.086C72.0747 317.279 72.2552 318.205 72.3874 319.155C72.5196 320.105 72.7352 321.104 72.8523 321.346C73.2033 322.07 73.7618 321.561 73.6655 320.624ZM111.628 302.528C112.536 301.939 113.543 301.064 113.886 300.54C114.24 300.04 114.642 299.577 114.787 299.507C115.342 299.238 117.46 294.007 117.214 293.5C117.156 293.379 117.258 292.912 117.444 292.434C117.617 291.992 117.779 290.542 117.82 289.21C117.859 287.014 117.803 286.713 116.914 284.878C116.212 283.429 115.705 282.69 114.933 282.02C114.35 281.557 113.791 281.202 113.694 281.249C113.308 281.436 111.117 284.853 110.499 286.226C110.117 287.038 109.987 287.876 110.112 288.382C110.329 289.321 109.597 292.18 109.066 292.438C108.872 292.531 108.786 292.722 108.844 292.843C108.915 292.988 108.696 293.213 108.358 293.377C108.02 293.541 107.789 293.742 107.847 293.863C107.894 293.96 107.144 294.442 106.201 294.959C104.353 295.944 100.945 296.85 98.7836 296.883C96.7185 296.929 95.5893 296.999 94.0269 297.16C93.2095 297.257 92.5011 297.273 92.466 297.2C92.3607 296.983 89.1605 297.579 88.0627 298.021C87.568 298.231 86.9736 298.728 86.6069 299.264C85.8733 300.335 85.7979 300.61 86.0501 301.561C86.129 301.97 86.1223 302.51 86.0234 302.737C85.6537 303.513 86.5841 304.941 87.6839 305.303C89.68 305.976 97.1264 306.573 98.0442 306.128C98.334 305.987 98.514 305.99 98.4884 306.121C98.402 306.312 99.8546 306.294 100.793 306.078C100.962 306.056 101.25 306.036 101.466 306.05C101.669 306.101 101.923 306.008 101.997 305.853C102.082 305.722 102.275 305.688 102.406 305.774C102.537 305.86 103.102 305.795 103.631 305.657C104.197 305.532 104.835 305.372 105.052 305.327C107.229 304.958 109.28 304.083 111.628 302.528ZM256.781 232.2C260.389 229.676 263.347 226.424 266.395 221.637C269.358 216.981 269.415 216.237 266.977 214.406C264.647 212.613 263.074 212.689 260.804 214.713C260.343 215.116 259.797 215.589 259.615 215.767C259.396 215.932 259.019 216.384 258.75 216.752C258.176 217.537 256.446 219.568 256.119 219.816C256.01 219.899 255.742 220.208 255.547 220.481C255.351 220.755 254.549 221.561 253.759 222.332C252.982 223.066 252.18 223.872 252.021 224.098C251.178 225.252 246.73 226.781 244.438 226.729C243.706 226.695 243.092 226.904 242.233 227.409C240.782 228.291 240.636 228.422 239.624 229.717C239.16 230.3 238.674 230.834 238.553 230.892C238.408 230.962 238.164 231.259 238.04 231.558C237.783 232.011 237.949 232.169 239.797 233.152C243.087 234.958 243.302 235.032 245.267 235.333C247.1 235.608 249.778 235.473 251.116 235.034C252.78 234.466 255.376 233.178 256.781 232.2ZM140.592 283.216C139.741 280.229 136.077 272.79 134.234 270.402C131.613 266.96 129.994 265.896 127.306 265.826C125.458 265.767 122.365 266.401 120.001 267.308C117.65 268.179 114.02 270.474 111.437 272.65C109.58 274.236 109.532 274.259 109.556 274.307C109.567 274.332 109.373 274.485 109.107 274.674C108.295 275.276 105.322 278.804 105.428 279.021C105.486 279.142 105.388 279.309 105.219 279.391C105.05 279.473 104.458 280.773 103.887 282.303C103.304 283.808 102.966 284.896 103.112 284.706C103.283 284.504 103.292 284.708 103.166 285.186C102.753 286.61 103.16 288.619 104.295 290.962C104.881 292.11 105.468 293.137 105.635 293.235C106.075 293.529 107.204 292.535 108.038 291.057C108.676 289.972 108.765 289.601 108.472 288.998C108.145 288.321 108.4 287.064 109.453 284.437C109.788 283.589 112.447 280.153 113.272 279.515C113.635 279.219 114.133 278.77 114.413 278.485C114.85 278.034 117.838 276.199 121.755 273.943C123.048 273.227 124.782 272.805 124.969 273.191C125.016 273.288 125.136 273.289 125.21 273.134C125.296 273.003 125.776 273.009 126.23 273.147C127.222 273.471 129.867 275.113 130.197 275.609C130.326 275.815 130.822 276.469 131.307 277.039C131.804 277.633 132.956 279.58 133.893 281.392C135.78 285.101 135.305 284.675 138.679 285.545C139.636 285.797 140.813 285.704 141.057 285.407C141.106 285.323 140.902 284.349 140.592 283.216ZM165.834 270.748C165.483 270.023 165.066 269.778 162.807 268.994C161.385 268.52 159.806 268.032 159.327 267.966C158.812 267.888 158.082 267.734 157.675 267.633C156.12 267.194 148.467 266.786 144.564 266.918C143.688 266.955 142.715 266.979 142.403 266.951C142.079 266.959 141.058 267.066 140.144 267.211C139.205 267.367 137.751 267.565 136.897 267.65C136.044 267.736 135.118 267.916 134.816 268.033C134.333 268.267 134.321 268.303 135.443 269.757C136.045 270.569 136.859 271.695 137.236 272.288C137.943 273.317 137.943 273.317 139.494 273.072C145.653 272.057 152.897 271.559 154.007 272.065C154.233 272.164 154.618 272.156 154.835 272.051C155.077 271.934 155.616 272.001 156.045 272.21C156.463 272.395 156.834 272.484 156.871 272.377C156.909 272.269 157.16 272.356 157.433 272.552C157.707 272.747 158.328 273.043 158.794 273.205C159.26 273.367 159.737 273.613 159.867 273.758C160.163 274.062 162.248 273.44 164.614 272.353C166.244 271.593 166.244 271.593 165.834 270.748ZM76.4772 308.824C76.4911 308.668 76.4568 308.535 76.3843 308.571C76.3119 308.606 76.2496 308.785 76.2357 308.941C76.2334 309.121 76.2561 309.229 76.3285 309.194C76.401 309.159 76.475 309.004 76.4772 308.824ZM278.566 211.058C278.531 210.985 278.459 210.961 278.387 210.996C278.314 211.031 278.289 211.103 278.324 211.175C278.359 211.247 278.431 211.272 278.504 211.237C278.576 211.202 278.601 211.13 278.566 211.058ZM163.819 265.79C164.126 265.253 164.614 264.599 164.857 264.362C165.124 264.113 165.454 263.685 165.553 263.399C165.689 263.124 166.532 261.97 167.458 260.866C168.396 259.725 169.554 258.299 170.018 257.657C170.506 257.003 170.969 256.48 171.077 256.518C171.184 256.555 171.574 256.128 171.917 255.544C172.272 254.984 172.771 254.414 173.013 254.297C173.254 254.18 173.497 253.943 173.595 253.776C173.669 253.621 174.254 252.92 174.899 252.22C175.556 251.544 176.286 250.713 176.542 250.38C176.799 250.047 177.407 249.395 177.929 248.933C178.451 248.472 178.913 247.949 179 247.758C179.074 247.603 179.317 247.366 179.558 247.249C180.138 246.968 179.868 246.473 178.925 246.065C178.507 245.88 178.126 245.647 178.067 245.526C178.009 245.405 177.901 245.428 177.791 245.571C177.705 245.702 177.561 245.712 177.479 245.543C177.397 245.374 176.848 245.103 176.25 244.975C175.221 244.698 175.138 244.649 175.123 243.881C175.12 243.197 175.073 243.1 174.901 243.422C174.802 243.649 174.194 244.301 173.586 244.894C171.837 246.577 167.153 251.56 167.079 251.775C167.041 251.882 166.871 252.084 166.701 252.226C166.071 252.71 164.583 254.624 164.676 254.817C164.723 254.914 164.577 255.104 164.335 255.221C163.925 255.42 159.899 260.591 159.151 261.878C158.93 262.284 158.392 263.081 157.928 263.664C157.501 264.258 156.987 265.044 156.778 265.414C156.457 266.106 156.457 266.106 157.741 266.17C159.06 266.246 159.216 266.26 161.237 266.862C162.649 267.251 163.047 267.088 163.819 265.79ZM278.09 210.692C278.055 210.619 277.984 210.595 277.911 210.63C277.839 210.665 277.814 210.736 277.849 210.809C277.884 210.881 277.956 210.906 278.028 210.871C278.101 210.836 278.125 210.764 278.09 210.692ZM77.2045 306.324C77.2618 305.581 77.3813 304.658 77.5175 304.324C77.6179 303.977 77.6473 303.545 77.542 303.328C77.2143 302.651 76.8679 303.475 76.7753 305.131C76.7516 306.066 76.6782 307.146 76.6495 307.518C76.5937 308.141 76.6288 308.213 76.8719 307.976C77.0175 307.846 77.159 307.092 77.2045 306.324ZM277.443 210.588C277.373 210.443 277.171 210.332 277.015 210.318C276.823 210.292 276.18 209.888 275.562 209.412C274.777 208.838 274.287 208.628 273.949 208.792C273.563 208.979 273.549 209.075 273.966 209.32C274.228 209.491 274.515 209.591 274.588 209.556C274.684 209.509 275.281 209.817 275.911 210.257C277.007 210.978 277.701 211.119 277.443 210.588ZM272.941 207.819C272.751 207.673 272.524 207.574 272.403 207.632C272.306 207.679 272.34 207.872 272.506 208.03C272.696 208.176 272.923 208.275 273.044 208.216C273.141 208.17 273.107 207.977 272.941 207.819ZM101.447 286.377C101.383 285.752 102.272 281.802 102.681 280.799C102.818 280.405 103.149 279.857 103.344 279.583C104.076 278.632 103.813 278.581 98.6355 278.912C97.218 279.003 95.0284 279.408 93.474 279.892C93.3415 279.927 93.0649 279.971 92.8973 279.933C92.7173 279.931 91.8852 280.245 91.0157 280.666C89.8564 281.228 89.2987 281.677 88.8463 282.343C88.5278 282.855 88.2109 283.248 88.1516 283.187C88.0923 283.126 87.8807 283.736 87.691 284.513C87.2632 286.092 87.5746 287.105 88.7401 287.971C89.632 288.643 91.1012 289.213 91.4635 289.038C91.6084 288.967 91.7643 288.981 91.8228 289.102C91.9164 289.295 92.949 289.272 94.5362 289.04C95.0895 288.951 96.6922 288.443 98.0915 287.884C99.4667 287.337 100.708 286.944 100.84 286.97C101.246 287.131 101.489 286.894 101.447 286.377ZM247.782 215.535C252.196 212.95 254.254 210.551 254.312 207.839C254.336 206.843 253.678 205.73 252.631 204.985C251.917 204.496 251.247 204.344 249.914 204.363C248.377 204.392 247.956 204.507 246.734 205.248C244.896 206.377 243.842 207.156 243.463 207.668C243.305 207.894 242.941 208.189 242.675 208.318C242.409 208.447 241.511 209.3 240.671 210.213C237.203 214.011 234.512 217.999 233.529 220.831C233.043 222.289 233.021 223.045 233.496 222.487C235.042 220.754 236.811 219.42 238.877 218.389C241.002 217.359 241.327 217.291 242.995 217.348C244.266 217.388 245.012 217.265 245.484 216.947C245.86 216.676 246.9 216.053 247.782 215.535ZM203.429 235.952C203.515 235.761 203.697 235.643 203.816 235.704C203.948 235.73 203.997 235.647 203.927 235.502C203.845 235.333 204.052 235.083 204.342 234.943C204.656 234.791 205.397 234.044 206.019 233.295C206.604 232.534 207.47 231.489 207.932 230.967C208.565 230.242 208.677 229.92 208.455 229.461C207.812 228.132 205.02 226.741 203.66 227.072C202.504 227.334 202.194 228.11 201.825 231.719C201.623 233.517 201.41 235.17 201.371 235.398C201.032 236.606 201.005 236.858 201.181 237.22C201.344 237.558 201.537 237.525 202.336 236.958C202.845 236.593 203.343 236.143 203.429 235.952ZM193.755 231.066C195.934 226.7 196.304 225.924 196.211 225.731C195.953 225.2 195.551 225.663 194.591 227.619C194 228.8 193.261 230.292 192.929 230.96C192.596 231.628 192.299 232.368 192.296 232.608C192.25 233.436 192.894 232.736 193.755 231.066ZM188.778 231.688C188.868 231.257 189.156 230.312 189.393 229.571C189.755 228.471 189.734 228.243 189.35 228.19C189.003 228.15 188.82 228.328 188.681 228.902C188.58 229.309 188.341 230.23 188.139 230.984C187.926 231.713 187.821 232.42 187.868 232.517C188.067 232.928 188.601 232.43 188.778 231.688ZM166.602 239.958C166.063 239.831 165.272 239.737 164.852 239.732C164.432 239.727 163.833 239.659 163.569 239.608C162.121 239.266 158.424 239.328 158.011 239.707C157.695 239.979 157.491 239.988 157.374 239.747C157.21 239.409 152.19 239.634 151.393 240.02C150.669 240.371 151.266 240.619 152.6 240.479C155.1 240.222 159.589 240.194 162.611 240.4C163.631 240.473 164.986 240.562 165.598 240.593C166.209 240.625 166.856 240.729 166.999 240.839C167.213 240.974 167.322 240.891 167.446 240.592C167.534 240.281 167.344 240.135 166.602 239.958ZM190.133 226.052C189.618 225.973 189.913 225.413 190.478 225.348C190.706 225.327 191.061 224.767 191.262 224.073C191.499 223.392 192.154 221.852 192.709 220.658C193.288 219.453 193.757 218.391 193.795 218.283C193.832 218.176 194.274 217.365 194.789 216.519C195.758 214.887 195.944 214.349 195.586 214.225C195.359 214.126 194.519 215.039 194.235 215.684C194.136 215.911 193.521 217.164 192.844 218.475C192.168 219.787 191.031 222.366 190.288 224.217C189.184 227.048 189.082 227.575 189.514 227.544C190.223 227.469 190.792 226.12 190.133 226.052ZM165.225 237.792C165.266 237.324 161.984 235.843 160.725 235.767C159.525 235.693 159.986 236.274 161.564 236.822C162.508 237.17 163.594 237.628 164.011 237.873C164.809 238.351 165.182 238.32 165.225 237.792ZM171.265 232.718C170.966 231.67 170.531 230.032 170.314 229.093C169.915 227.408 167.007 220.974 166.576 220.825C166.469 220.787 166.202 221.036 165.993 221.406C165.773 221.751 165.285 222.345 164.885 222.688C163.282 224.18 161.855 225.975 161.872 226.563C161.891 226.912 161.803 227.223 161.731 227.258C161.441 227.398 163.484 229.152 166.386 231.265C167.945 232.389 169.312 233.426 169.419 233.523C170.223 234.446 171.069 234.96 171.407 234.796C171.746 234.633 171.703 234.176 171.265 232.718Z" fill="#2B2B2B"/>
<path d="M24.278 347.748C22.3571 347.019 20.4993 345.449 19.556 343.726C18.7918 342.305 18.7799 342.281 19.4303 341.958C19.9603 341.696 20.0684 341.732 20.1988 342.238C20.3282 342.984 21.7041 344.792 22.7351 345.602C23.1786 345.952 24.1747 346.449 24.9551 346.752C25.7354 347.056 26.3593 347.407 26.3467 347.563C26.2965 348.128 25.5267 348.209 24.278 347.748Z" fill="#FFED9C"/>
<path d="M26.352 346.12C25.3555 345.744 23.9524 344.789 23.7257 344.331C23.666 344.211 23.8231 343.983 24.0881 343.852C24.4013 343.696 24.8336 343.842 25.313 344.265C26.008 344.881 26.8492 345.004 28.5333 344.77C28.7859 344.735 29.086 344.856 29.1934 345.073C29.3247 345.338 29.1074 345.566 28.3365 345.947C27.5174 346.353 27.0844 346.388 26.352 346.12V346.12Z" fill="#FFED9C"/>
<path d="M19.4311 328.877C17.9771 328.667 15.2696 326.048 14.1241 323.735C13.5035 322.483 13.504 322.362 14.0216 322.196C14.491 322.054 14.6469 322.186 15.2919 323.307C16.0203 324.656 17.948 326.792 18.9797 327.421C19.3156 327.614 19.7722 327.688 19.989 327.581C20.3022 327.426 20.5181 327.559 20.721 327.968C21.067 328.667 20.5366 329.05 19.4311 328.877Z" fill="#FFED9C"/>
<path d="M23.3602 326.331C22.1115 325.87 20.9844 325.048 21.0339 324.663C21.1086 323.966 21.9741 324.017 23.2937 324.804C24.5294 325.542 24.673 325.711 24.5149 326.179C24.3569 326.647 24.2126 326.659 23.3602 326.331V326.331Z" fill="#FFED9C"/>
<path d="M19.6911 326.858C18.3715 326.072 17.5587 324.794 18.1013 324.376C18.3666 324.184 18.6786 324.33 19.2294 324.957C19.6484 325.439 20.3078 325.923 20.6681 326.044C21.4246 326.3 21.6743 327.046 21.1202 327.321C20.9274 327.416 20.3031 327.185 19.6911 326.858Z" fill="#FFED9C"/>
<path d="M16.9519 303.824C15.2854 302.579 13.4772 300.625 12.8686 299.396C12.5583 298.77 12.5712 298.553 12.9566 298.362C13.2698 298.207 13.522 298.292 13.6771 298.605C13.9993 299.256 13.9036 299.123 15.2806 300.631C15.9392 301.355 17.0535 302.393 17.7249 302.901C19.1996 304 19.4745 304.434 18.8722 304.733C18.6072 304.864 17.9471 304.561 16.9519 303.824Z" fill="#FFED9C"/>
<path d="M20.0819 302.753C17.9925 302.048 16.4592 300.528 17.3747 300.074C17.6879 299.919 18.0601 300.065 18.5272 300.523C18.8866 300.885 19.5823 301.321 20.0747 301.467C21.4078 301.857 21.8392 302.243 21.6089 302.747C21.4632 303.119 21.1266 303.106 20.0819 302.753Z" fill="#FFED9C"/>
<path d="M10.747 294.507C10.7111 294.434 10.7354 294.362 10.8079 294.326C10.8804 294.29 10.9526 294.315 10.9885 294.387C11.0244 294.46 11 294.532 10.9276 294.568C10.8551 294.604 10.7829 294.579 10.747 294.507Z" fill="#FFED9C"/>
<path d="M21.0023 272.086C20.7742 271.989 20.1866 271.59 19.7552 271.203C19.0122 270.551 18.9645 270.455 19.2421 270.167C19.6647 269.688 20.3971 269.955 21.0791 270.848C21.725 271.728 21.6985 272.401 21.0023 272.086Z" fill="#FFED9C"/>
<path d="M17.9454 272.88C17.8135 272.795 17.1673 271.975 16.4975 271.047C15.5048 269.648 15.3139 269.263 15.3997 268.831C15.6194 267.942 16.3755 268.317 17.0437 269.666C17.354 270.293 17.8441 271.04 18.1557 271.306C18.4433 271.583 18.7182 272.017 18.7413 272.246C18.7877 272.703 18.2573 273.085 17.9454 272.88V272.88Z" fill="#FFED9C"/>
<path d="M14.7463 273.144C13.6935 271.746 12.6566 269.289 12.6253 268.015C12.5695 266.872 12.8842 266.296 13.4365 266.503C13.5446 266.539 13.6984 267.213 13.7795 268.043C13.883 269.282 14.1093 269.86 15.0531 271.462C16.1046 273.222 16.1521 273.378 15.7185 273.593C15.4053 273.748 15.1173 273.591 14.7463 273.144V273.144Z" fill="#FFED9C"/>
<path d="M339.248 190.653C338.733 190.159 338.055 188.244 338.32 187.993C338.574 187.717 339.053 188.2 339.841 189.549C340.2 190.152 340.235 190.405 339.933 190.644C339.74 190.8 339.416 190.81 339.248 190.653Z" fill="#FFED9C"/>
<path d="M340.598 189.564C340.287 189.359 339.286 186.974 339.49 186.963C339.598 186.939 339.851 186.844 340.044 186.749C340.622 186.462 341.576 188.57 341.141 189.206C340.936 189.457 340.694 189.637 340.598 189.564V189.564Z" fill="#FFED9C"/>
<path d="M327.236 181.122C326.888 181.085 326.733 180.591 326.321 178.365C325.909 176.08 325.934 175.587 326.32 175.396C326.922 175.097 327.125 175.627 327.642 178.731C328.03 181.029 327.993 181.197 327.236 181.122V181.122Z" fill="#FFED9C"/>
<path d="M328.789 177.353C328.645 177.244 328.36 176.485 328.17 175.679C327.898 174.584 327.924 174.151 328.237 173.996C328.574 173.829 328.766 173.974 329.124 174.697C329.816 176.094 329.593 177.825 328.789 177.353V177.353Z" fill="#FFED9C"/>
<path d="M330.349 175.05C330.217 174.965 329.954 174.435 329.788 173.918C329.301 172.269 329.301 172.209 330.035 172.235C330.576 172.237 330.719 172.406 330.969 173.153C331.349 174.465 331.045 175.485 330.349 175.05V175.05Z" fill="#FFED9C"/>
<path d="M308.302 164.399C308.182 164.339 307.981 163.568 307.876 162.69C307.771 161.812 307.487 160.693 307.236 160.187C306.424 158.549 307.004 157.782 308.034 159.072C309.218 160.555 309.442 165.125 308.302 164.399V164.399Z" fill="#FFED9C"/>
<path d="M309.811 162.962C309.727 162.793 309.669 162.252 309.671 161.771C309.685 161.314 309.471 160.46 309.197 159.906C308.779 159.063 308.768 158.858 309.166 158.631C310.118 158.07 311.525 160.973 310.896 162.245C310.496 163.073 310.014 163.372 309.811 162.962Z" fill="#FFED9C"/>
<path d="M311.642 158.785C311.129 157.749 311.117 157.545 311.515 157.438C311.852 157.331 312.127 157.584 312.605 158.428C313.178 159.404 313.19 159.548 312.756 159.763C312.323 159.978 312.179 159.869 311.642 158.785Z" fill="#FFED9C"/>
<path d="M281.82 143.764C281.653 143.607 281.487 142.849 281.49 142.068C281.446 140.889 281.28 140.372 280.491 139.082C279.631 137.648 279.583 137.492 279.993 137.289C280.571 137.003 281.649 138.149 282.065 139.473C282.279 140.147 282.398 140.328 282.531 140.112C282.652 139.932 282.546 139.415 282.319 138.957C281.997 138.307 282.01 138.09 282.371 137.911C282.998 137.601 283.656 138.445 283.807 139.78C283.924 140.622 283.815 140.946 283.405 141.149C283.068 141.316 282.886 141.736 282.872 142.313C282.843 143.648 282.383 144.295 281.82 143.764V143.764Z" fill="#FFED9C"/>
<path d="M72.6507 285.805C72.483 285.648 72.2929 285.022 72.211 284.433C72.1412 283.807 71.7965 282.748 71.4745 282.037C70.8778 280.833 70.8902 280.737 71.4319 280.558C71.9496 280.392 72.0574 280.489 72.6655 281.838C73.0352 282.644 73.4036 283.812 73.4734 284.438C73.6254 285.592 73.1899 286.288 72.6507 285.805Z" fill="#FFED9C"/>
<path d="M74.2239 283.046C74.0801 282.937 73.9731 282.6 73.9623 282.275C74.0013 281.506 73.5721 280.518 72.6035 279.108C71.8979 278.107 71.8265 277.903 72.1638 277.736C72.9829 277.33 74.6578 279.561 74.9874 281.437C75.2115 282.616 74.8237 283.409 74.2239 283.046V283.046Z" fill="#FFED9C"/>
<path d="M254.226 192.175C252.788 190.907 251.801 188.006 252.752 187.745C253.101 187.662 253.34 187.963 254.068 189.433C254.557 190.421 255.203 191.481 255.514 191.807C255.957 192.277 255.957 192.398 255.523 192.612C255.186 192.779 254.79 192.646 254.226 192.175V192.175Z" fill="#FFED9C"/>
<path d="M256.428 191.654C256.296 191.569 255.782 190.834 255.244 189.99C254.324 188.556 254.288 188.424 254.722 188.209C255.107 188.018 255.347 188.199 256.053 189.14C257.07 190.526 257.379 191.393 256.946 191.608C256.753 191.703 256.524 191.726 256.428 191.654V191.654Z" fill="#FFED9C"/>
</svg>
