<svg width="373" height="338" viewBox="0 0 373 338" fill="none" xmlns="http://www.w3.org/2000/svg">
<circle cx="169" cy="169" r="169" fill="#FFED9C"/>
<path d="M34.616 14.816C34.616 14.304 34.36 14.048 33.848 14.048H26.168C25.656 14.048 25.4 14.304 25.4 14.816V48.8C25.4 51.296 24.888 52.576 22.584 52.576H20.408C19.896 52.576 19.64 52.768 19.64 53.28V59.232C19.64 59.68 19.896 60 20.344 60.064C21.56 60.192 23.224 60.32 24.824 60.32C31.672 60.32 34.616 57.888 34.616 50.848V14.816ZM50.6425 60.896C58.2585 60.896 63.2505 55.008 63.2505 37.024C63.2505 19.04 58.2585 13.152 50.6425 13.152C43.0265 13.152 38.0345 19.04 38.0345 37.024C38.0345 55.008 43.0265 60.896 50.6425 60.896ZM48.0185 32.224C48.0185 22.496 49.1705 20.576 50.6425 20.576C52.1145 20.576 53.2665 22.496 53.2665 32.224V41.824C53.2665 51.552 52.1145 53.472 50.6425 53.472C49.1705 53.472 48.0185 51.552 48.0185 41.824V32.224ZM67.118 59.232C67.118 59.744 67.374 60 67.886 60H75.566C76.078 60 76.334 59.744 76.334 59.232V14.816C76.334 14.304 76.078 14.048 75.566 14.048H67.886C67.374 14.048 67.118 14.304 67.118 14.816V59.232ZM89.6315 59.232V34.4H89.9515L97.8875 59.36C98.0155 59.808 98.2715 60 98.7195 60H105.376C105.888 60 106.144 59.744 106.144 59.232V14.816C106.144 14.304 105.888 14.048 105.376 14.048H98.3355C97.8235 14.048 97.5675 14.304 97.5675 14.816V35.552H97.3115L90.5915 14.688C90.4635 14.24 90.2075 14.048 89.7595 14.048H81.8235C81.3115 14.048 81.0555 14.304 81.0555 14.816V59.232C81.0555 59.744 81.3115 60 81.8235 60H88.8635C89.3755 60 89.6315 59.744 89.6315 59.232ZM127.859 59.232C127.859 59.744 128.115 60 128.627 60H136.307C136.819 60 137.075 59.744 137.075 59.232V21.472H143.475C143.987 21.472 144.243 21.216 144.243 20.704V14.816C144.243 14.304 143.987 14.048 143.475 14.048H121.459C120.947 14.048 120.691 14.304 120.691 14.816V20.704C120.691 21.216 120.947 21.472 121.459 21.472H127.859V59.232ZM146.743 59.232C146.743 59.744 146.999 60 147.511 60H155.191C155.703 60 155.959 59.744 155.959 59.232V40.608H160.695V59.232C160.695 59.744 160.951 60 161.463 60H169.143C169.655 60 169.911 59.744 169.911 59.232V14.816C169.911 14.304 169.655 14.048 169.143 14.048H161.463C160.951 14.048 160.695 14.304 160.695 14.816V32.544H155.959V14.816C155.959 14.304 155.703 14.048 155.191 14.048H147.511C146.999 14.048 146.743 14.304 146.743 14.816V59.232ZM174.618 59.232C174.618 59.744 174.874 60 175.386 60H194.01C194.522 60 194.778 59.744 194.778 59.232V53.344C194.778 52.832 194.522 52.576 194.01 52.576H183.834V40.544H190.81C191.322 40.544 191.578 40.288 191.578 39.776V33.504C191.578 32.992 191.322 32.736 190.81 32.736H183.834V21.472H193.562C194.074 21.472 194.33 21.216 194.33 20.704V14.816C194.33 14.304 194.074 14.048 193.562 14.048H175.386C174.874 14.048 174.618 14.304 174.618 14.816V59.232ZM20.408 115.216C19.896 115.216 19.64 115.472 19.64 115.984C19.64 124.24 23.352 130.896 31.416 130.896C39.352 130.896 43 125.456 43 118.352C43 110.8 38.2 106.704 33.016 102.096C30.52 99.856 28.6 97.36 28.6 94.288C28.6 92.112 29.432 90.576 31.032 90.576C33.528 90.576 33.784 93.584 33.848 96.912C33.848 97.424 34.104 97.68 34.616 97.68H41.656C42.168 97.68 42.424 97.424 42.424 96.912C42.424 89.232 38.968 83.152 31.16 83.152C24.12 83.152 20.024 87.888 20.024 95.056C20.024 101.2 22.648 104.784 28.088 109.776C30.392 111.888 34.488 114.832 34.488 119.44C34.488 121.936 33.464 123.472 31.544 123.472C29.048 123.472 28.152 120.4 28.088 115.984C28.088 115.472 27.832 115.216 27.32 115.216H20.408ZM50.2335 129.232C50.2335 129.744 50.4895 130 51.0015 130H58.6815C59.1935 130 59.4495 129.744 59.4495 129.232V91.472H65.8495C66.3615 91.472 66.6175 91.216 66.6175 90.704V84.816C66.6175 84.304 66.3615 84.048 65.8495 84.048H43.8335C43.3215 84.048 43.0655 84.304 43.0655 84.816V90.704C43.0655 91.216 43.3215 91.472 43.8335 91.472H50.2335V129.232ZM83.518 84.048C83.006 84.048 82.75 84.304 82.75 84.816V117.84C82.75 121.04 82.366 123.472 80.318 123.472C78.27 123.472 77.886 121.04 77.886 117.84V84.816C77.886 84.304 77.63 84.048 77.118 84.048H69.438C68.926 84.048 68.67 84.304 68.67 84.816V118.416C68.67 127.376 73.726 130.896 80.318 130.896C86.91 130.896 91.966 127.376 91.966 118.416V84.816C91.966 84.304 91.71 84.048 91.198 84.048H83.518ZM96.243 129.232C96.243 129.744 96.499 130 97.011 130H105.267C118.579 130 119.667 120.208 119.667 107.024C119.667 93.2 118.323 84.048 103.923 84.048H97.011C96.499 84.048 96.243 84.304 96.243 84.816V129.232ZM105.459 91.472C109.875 91.472 110.067 93.008 110.067 106.96C110.067 120.976 109.875 122.576 105.459 122.576V91.472ZM123.493 129.232C123.493 129.744 123.749 130 124.261 130H142.885C143.397 130 143.653 129.744 143.653 129.232V123.344C143.653 122.832 143.397 122.576 142.885 122.576H132.709V110.544H139.685C140.197 110.544 140.453 110.288 140.453 109.776V103.504C140.453 102.992 140.197 102.736 139.685 102.736H132.709V91.472H142.437C142.949 91.472 143.205 91.216 143.205 90.704V84.816C143.205 84.304 142.949 84.048 142.437 84.048H124.261C123.749 84.048 123.493 84.304 123.493 84.816V129.232ZM155.194 129.232V104.4H155.514L163.45 129.36C163.578 129.808 163.834 130 164.282 130H170.938C171.45 130 171.706 129.744 171.706 129.232V84.816C171.706 84.304 171.45 84.048 170.938 84.048H163.898C163.386 84.048 163.13 84.304 163.13 84.816V105.552H162.874L156.154 84.688C156.026 84.24 155.77 84.048 155.322 84.048H147.386C146.874 84.048 146.618 84.304 146.618 84.816V129.232C146.618 129.744 146.874 130 147.386 130H154.426C154.938 130 155.194 129.744 155.194 129.232ZM181.359 129.232C181.359 129.744 181.615 130 182.127 130H189.807C190.319 130 190.575 129.744 190.575 129.232V91.472H196.975C197.487 91.472 197.743 91.216 197.743 90.704V84.816C197.743 84.304 197.487 84.048 196.975 84.048H174.959C174.447 84.048 174.191 84.304 174.191 84.816V90.704C174.191 91.216 174.447 91.472 174.959 91.472H181.359V129.232ZM212.306 129.232C212.306 129.744 212.562 130 213.074 130H221.33C234.642 130 235.73 120.208 235.73 107.024C235.73 93.2 234.386 84.048 219.986 84.048H213.074C212.562 84.048 212.306 84.304 212.306 84.816V129.232ZM221.522 91.472C225.938 91.472 226.13 93.008 226.13 106.96C226.13 120.976 225.938 122.576 221.522 122.576V91.472ZM239.556 129.232C239.556 129.744 239.812 130 240.324 130H258.948C259.46 130 259.716 129.744 259.716 129.232V123.344C259.716 122.832 259.46 122.576 258.948 122.576H248.772V110.544H255.748C256.26 110.544 256.516 110.288 256.516 109.776V103.504C256.516 102.992 256.26 102.736 255.748 102.736H248.772V91.472H258.5C259.012 91.472 259.268 91.216 259.268 90.704V84.816C259.268 84.304 259.012 84.048 258.5 84.048H240.324C239.812 84.048 239.556 84.304 239.556 84.816V129.232ZM273.753 130C281.433 130 285.977 125.2 285.977 117.136C285.977 111.76 283.417 107.856 278.937 106.064C282.841 104.336 285.081 100.816 285.081 96.144C285.081 88.528 280.537 84.048 272.857 84.048H263.449C262.937 84.048 262.681 84.304 262.681 84.816V129.232C262.681 129.744 262.937 130 263.449 130H273.753ZM271.897 91.088C275.417 91.088 276.249 92.688 276.249 96.912C276.249 101.264 275.353 102.608 271.897 102.736V91.088ZM271.897 110.16C275.865 110.224 276.76 112.08 276.76 116.432C276.76 120.144 276.121 122.832 271.897 122.96V110.16ZM293.609 129.232C293.609 129.744 293.865 130 294.377 130H302.057C302.569 130 302.825 129.744 302.825 129.232V91.472H309.225C309.737 91.472 309.993 91.216 309.993 90.704V84.816C309.993 84.304 309.737 84.048 309.225 84.048H287.209C286.697 84.048 286.441 84.304 286.441 84.816V90.704C286.441 91.216 286.697 91.472 287.209 91.472H293.609V129.232ZM20.408 185.216C19.896 185.216 19.64 185.472 19.64 185.984C19.64 194.24 23.352 200.896 31.416 200.896C39.352 200.896 43 195.456 43 188.352C43 180.8 38.2 176.704 33.016 172.096C30.52 169.856 28.6 167.36 28.6 164.288C28.6 162.112 29.432 160.576 31.032 160.576C33.528 160.576 33.784 163.584 33.848 166.912C33.848 167.424 34.104 167.68 34.616 167.68H41.656C42.168 167.68 42.424 167.424 42.424 166.912C42.424 159.232 38.968 153.152 31.16 153.152C24.12 153.152 20.024 157.888 20.024 165.056C20.024 171.2 22.648 174.784 28.088 179.776C30.392 181.888 34.488 184.832 34.488 189.44C34.488 191.936 33.464 193.472 31.544 193.472C29.048 193.472 28.152 190.4 28.088 185.984C28.088 185.472 27.832 185.216 27.32 185.216H20.408ZM50.2335 199.232C50.2335 199.744 50.4895 200 51.0015 200H58.6815C59.1935 200 59.4495 199.744 59.4495 199.232V161.472H65.8495C66.3615 161.472 66.6175 161.216 66.6175 160.704V154.816C66.6175 154.304 66.3615 154.048 65.8495 154.048H43.8335C43.3215 154.048 43.0655 154.304 43.0655 154.816V160.704C43.0655 161.216 43.3215 161.472 43.8335 161.472H50.2335V199.232ZM69.118 199.232C69.118 199.744 69.374 200 69.886 200H77.566C78.078 200 78.334 199.744 78.334 199.232V154.816C78.334 154.304 78.078 154.048 77.566 154.048H69.886C69.374 154.048 69.118 154.304 69.118 154.816V199.232ZM92.2715 199.232V177.984H93.2315L98.3515 199.296C98.4795 199.808 98.7355 200 99.1835 200H107.056C107.632 200 107.824 199.68 107.696 199.168L100.336 173.376L107.312 154.944C107.504 154.432 107.248 154.048 106.672 154.048H98.8635C98.4155 154.048 98.1595 154.24 98.0315 154.688L92.5275 170.752H92.2715V154.816C92.2715 154.304 92.0155 154.048 91.5035 154.048H83.8235C83.3115 154.048 83.0555 154.304 83.0555 154.816V199.232C83.0555 199.744 83.3115 200 83.8235 200H91.5035C92.0155 200 92.2715 199.744 92.2715 199.232ZM110.431 199.232C110.431 199.744 110.687 200 111.199 200H129.823C130.335 200 130.591 199.744 130.591 199.232V193.344C130.591 192.832 130.335 192.576 129.823 192.576H119.647V180.544H126.623C127.135 180.544 127.391 180.288 127.391 179.776V173.504C127.391 172.992 127.135 172.736 126.623 172.736H119.647V161.472H129.375C129.887 161.472 130.143 161.216 130.143 160.704V154.816C130.143 154.304 129.887 154.048 129.375 154.048H111.199C110.687 154.048 110.431 154.304 110.431 154.816V199.232Z" fill="#2B2B2B"/>
</svg>
