<svg width="1777" height="572" viewBox="0 0 1777 572" fill="none" xmlns="http://www.w3.org/2000/svg">
<path d="M722.908 225.105C732.33 225.105 740.844 226.807 748.449 230.211C756.055 233.501 762.298 238.096 767.18 243.996C772.061 249.896 775.239 256.647 776.715 264.248C777.056 265.61 777.226 266.688 777.226 267.482C777.226 268.503 776.999 269.184 776.545 269.524C776.204 269.865 775.523 270.092 774.501 270.205L744.703 272.077C743.568 272.077 742.83 271.907 742.49 271.567C742.149 271.113 741.808 270.205 741.468 268.844C740.446 263.398 738.573 259.143 735.849 256.079C733.124 252.903 729.151 251.314 723.929 251.314C717.232 251.314 712.067 254.264 708.434 260.164C704.802 266.064 702.986 275.651 702.986 288.926C702.986 302.654 704.632 312.412 707.924 318.198C711.329 323.984 716.608 326.878 723.759 326.878C729.776 326.878 734.884 325.346 739.084 322.282C743.398 319.219 746.973 314.113 749.811 306.966C750.152 305.944 751.117 305.434 752.706 305.434C753.501 305.434 754.125 305.491 754.579 305.604L775.864 309.859C777.566 310.426 778.418 311.731 778.418 313.773C778.418 316.95 776.431 321.885 772.458 328.579C768.598 335.16 762.469 341.173 754.068 346.619C745.782 352.065 735.281 354.788 722.567 354.788C710.534 354.788 699.977 351.952 690.896 346.279C681.815 340.493 674.777 332.607 669.782 322.623C664.901 312.525 662.46 301.066 662.46 288.245C662.46 275.538 664.901 264.419 669.782 254.888C674.777 245.358 681.815 238.04 690.896 232.934C700.091 227.715 710.761 225.105 722.908 225.105Z" fill="black"/>
<path d="M849.475 354.788C837.101 354.788 826.26 352.179 816.952 346.96C807.757 341.627 800.662 334.139 795.667 324.495C790.673 314.737 788.175 303.335 788.175 290.287C788.175 277.239 790.673 265.837 795.667 256.079C800.776 246.209 807.927 238.607 817.122 233.274C826.431 227.828 837.215 225.105 849.475 225.105C861.621 225.105 872.292 227.828 881.486 233.274C890.681 238.607 897.776 246.209 902.771 256.079C907.879 265.837 910.433 277.239 910.433 290.287C910.433 303.221 907.936 314.567 902.941 324.325C897.946 334.082 890.852 341.627 881.657 346.96C872.462 352.179 861.734 354.788 849.475 354.788ZM849.475 328.239C854.469 328.239 858.442 327.048 861.394 324.665C864.345 322.169 866.502 318.198 867.864 312.752C869.227 307.306 869.908 299.988 869.908 290.798C869.908 276.729 868.318 266.631 865.14 260.504C861.961 254.378 856.74 251.314 849.475 251.314C842.096 251.314 836.761 254.378 833.469 260.504C830.29 266.631 828.701 276.729 828.701 290.798C828.701 299.988 829.382 307.306 830.744 312.752C832.106 318.198 834.263 322.169 837.215 324.665C840.28 327.048 844.366 328.239 849.475 328.239Z" fill="black"/>
<path d="M924.613 230.721C924.613 229.473 924.897 228.509 925.464 227.828C926.032 227.148 926.826 226.807 927.848 226.807H960.2C962.244 226.807 963.265 227.998 963.265 230.381V322.793C963.265 323.701 963.379 324.325 963.606 324.665C963.947 325.005 964.514 325.176 965.309 325.176H1016.56C1019.17 325.176 1020.48 326.254 1020.48 328.409V349.342C1020.48 350.477 1020.08 351.385 1019.29 352.065C1018.61 352.746 1017.58 353.086 1016.22 353.086H929.21C927.507 353.086 926.316 352.746 925.634 352.065C924.953 351.385 924.613 350.307 924.613 348.832V230.721Z" fill="black"/>
<path d="M1034.03 230.721C1034.03 229.473 1034.31 228.509 1034.88 227.828C1035.45 227.148 1036.24 226.807 1037.26 226.807H1069.62C1071.66 226.807 1072.68 227.998 1072.68 230.381V322.793C1072.68 323.701 1072.79 324.325 1073.02 324.665C1073.36 325.005 1073.93 325.176 1074.72 325.176H1125.98C1128.59 325.176 1129.89 326.254 1129.89 328.409V349.342C1129.89 350.477 1129.5 351.385 1128.7 352.065C1128.02 352.746 1127 353.086 1125.64 353.086H1038.63C1036.92 353.086 1035.73 352.746 1035.05 352.065C1034.37 351.385 1034.03 350.307 1034.03 348.832V230.721Z" fill="black"/>
<path d="M1143.44 230.721C1143.44 228.112 1144.52 226.807 1146.68 226.807H1238.63C1240.67 226.807 1241.69 227.998 1241.69 230.381L1241.52 250.123C1241.52 253.186 1240.05 254.718 1237.1 254.718H1186.01C1183.4 254.718 1182.1 255.796 1182.1 257.952V272.417C1182.1 273.552 1182.38 274.46 1182.95 275.14C1183.52 275.708 1184.25 275.991 1185.16 275.991H1215.81C1218.19 275.991 1219.39 277.126 1219.39 279.395V300.498C1219.39 302.427 1218.37 303.392 1216.32 303.392H1184.82C1184.03 303.392 1183.35 303.619 1182.78 304.072C1182.32 304.526 1182.1 305.094 1182.1 305.774V322.793C1182.1 323.701 1182.21 324.325 1182.44 324.665C1182.78 325.005 1183.35 325.176 1184.14 325.176H1239.48C1241.98 325.176 1243.23 326.254 1243.23 328.409V349.342C1243.23 350.477 1242.88 351.385 1242.2 352.065C1241.52 352.746 1240.5 353.086 1239.14 353.086H1148.04C1146.34 353.086 1145.15 352.746 1144.47 352.065C1143.78 351.385 1143.44 350.307 1143.44 348.832V230.721Z" fill="black"/>
<path d="M1304.24 225.105C1313.66 225.105 1322.18 226.807 1329.78 230.211C1337.39 233.501 1343.63 238.096 1348.51 243.996C1353.39 249.896 1356.57 256.647 1358.05 264.248C1358.39 265.61 1358.56 266.688 1358.56 267.482C1358.56 268.503 1358.33 269.184 1357.88 269.524C1357.54 269.865 1356.86 270.092 1355.83 270.205L1326.04 272.077C1324.9 272.077 1324.16 271.907 1323.82 271.567C1323.48 271.113 1323.14 270.205 1322.8 268.844C1321.78 263.398 1319.91 259.143 1317.18 256.079C1314.46 252.903 1310.48 251.314 1305.26 251.314C1298.56 251.314 1293.4 254.264 1289.77 260.164C1286.13 266.064 1284.32 275.651 1284.32 288.926C1284.32 302.654 1285.96 312.412 1289.26 318.198C1292.66 323.984 1297.94 326.878 1305.09 326.878C1311.11 326.878 1316.22 325.346 1320.42 322.282C1324.73 319.219 1328.31 314.113 1331.14 306.966C1331.48 305.944 1332.45 305.434 1334.04 305.434C1334.83 305.434 1335.46 305.491 1335.91 305.604L1357.2 309.859C1358.9 310.426 1359.75 311.731 1359.75 313.773C1359.75 316.95 1357.76 321.885 1353.79 328.579C1349.93 335.16 1343.8 341.173 1335.4 346.619C1327.11 352.065 1316.61 354.788 1303.9 354.788C1291.87 354.788 1281.31 351.952 1272.23 346.279C1263.15 340.493 1256.11 332.607 1251.11 322.623C1246.23 312.525 1243.79 301.066 1243.79 288.245C1243.79 275.538 1246.23 264.419 1251.11 254.888C1256.11 245.358 1263.15 238.04 1272.23 232.934C1281.42 227.715 1292.09 225.105 1304.24 225.105Z" fill="black"/>
<path d="M1369 230.721C1369 229.587 1369.34 228.679 1370.02 227.998C1370.81 227.204 1371.89 226.807 1373.25 226.807H1475.08C1476.44 226.807 1477.46 227.204 1478.14 227.998C1478.94 228.679 1479.34 229.587 1479.34 230.721V250.974C1479.34 253.13 1478.09 254.207 1475.59 254.207H1445.45C1444.09 254.207 1443.41 254.775 1443.41 255.909V349.342C1443.41 350.59 1443.12 351.555 1442.56 352.235C1441.99 352.803 1441.19 353.086 1440.17 353.086H1407.82C1405.78 353.086 1404.75 351.952 1404.75 349.683V256.59C1404.75 255.002 1404.13 254.207 1402.88 254.207H1372.91C1370.3 254.207 1369 253.13 1369 250.974V230.721Z" fill="black"/>
<path d="M1528.56 226.807C1530.61 226.807 1531.63 227.998 1531.63 230.381V348.151C1531.63 349.966 1531.17 351.271 1530.27 352.065C1529.36 352.746 1527.94 353.086 1526.01 353.086H1497.57C1495.87 353.086 1494.68 352.746 1494 352.065C1493.32 351.385 1492.97 350.307 1492.97 348.832V230.721C1492.97 229.473 1493.26 228.509 1493.83 227.828C1494.39 227.148 1495.19 226.807 1496.21 226.807H1528.56Z" fill="black"/>
<path d="M1660.88 226.807C1661.9 226.807 1662.69 227.148 1663.26 227.828C1663.94 228.396 1664.28 229.19 1664.28 230.211C1664.28 230.892 1664.22 231.402 1664.11 231.743L1624.61 348.832C1623.81 351.668 1621.71 353.086 1618.31 353.086H1590.72C1587.32 353.086 1585.22 351.668 1584.42 348.832L1544.92 231.743C1544.69 231.062 1544.58 230.551 1544.58 230.211C1544.58 229.19 1544.92 228.396 1545.6 227.828C1546.28 227.148 1547.13 226.807 1548.15 226.807H1581.02C1583.17 226.807 1584.59 227.998 1585.27 230.381L1608.09 305.094C1608.32 305.888 1608.6 306.285 1608.94 306.285C1609.17 306.285 1609.45 305.831 1609.79 304.923L1631.08 230.381C1631.3 229.247 1631.82 228.396 1632.61 227.828C1633.52 227.148 1634.48 226.807 1635.5 226.807H1660.88Z" fill="black"/>
<path d="M1677.22 230.721C1677.22 228.112 1678.3 226.807 1680.45 226.807H1772.4C1774.45 226.807 1775.47 227.998 1775.47 230.381L1775.3 250.123C1775.3 253.186 1773.82 254.718 1770.87 254.718H1719.79C1717.18 254.718 1715.87 255.796 1715.87 257.952V272.417C1715.87 273.552 1716.15 274.46 1716.72 275.14C1717.29 275.708 1718.03 275.991 1718.94 275.991H1749.59C1751.97 275.991 1753.16 277.126 1753.16 279.395V300.498C1753.16 302.427 1752.14 303.392 1750.1 303.392H1718.6C1717.8 303.392 1717.12 303.619 1716.55 304.072C1716.1 304.526 1715.87 305.094 1715.87 305.774V322.793C1715.87 323.701 1715.98 324.325 1716.21 324.665C1716.55 325.005 1717.12 325.176 1717.91 325.176H1773.25C1775.75 325.176 1777 326.254 1777 328.409V349.342C1777 350.477 1776.66 351.385 1775.98 352.065C1775.3 352.746 1774.28 353.086 1772.91 353.086H1681.82C1680.11 353.086 1678.92 352.746 1678.24 352.065C1677.56 351.385 1677.22 350.307 1677.22 348.832V230.721Z" fill="black"/>
<path d="M257.664 571.622C255.709 571.343 251.976 570.896 249.369 570.56C246.761 570.225 243.147 569.722 241.369 569.498C235.918 568.659 227.385 567.877 215.89 567.206C202.083 566.367 187.507 566.703 145.673 568.939C139.806 569.218 130.859 569.61 125.822 569.777C120.786 569.945 108.224 570.336 97.9133 570.672C70.9524 571.566 43.9914 570.169 29.8295 567.206C11.5198 563.293 5.65355 558.541 3.40187 545.572C2.69081 541.547 2.5723 531.82 2.69081 487.321C2.80932 451.655 2.63155 428.735 2.09826 418.282C0.142852 376.075 0.0835967 369.199 0.439126 287.19C0.61689 241.853 1.03167 192.771 1.32795 178.18C1.62422 163.59 2.03901 125.855 2.27603 94.3263C2.45379 61.5115 2.86857 35.1255 3.2241 32.554C4.52771 22.827 8.61629 16.4541 17.0897 11.1992C23.3115 7.34197 28.8814 5.55309 40.4954 3.7083C45.7098 2.86977 97.143 2.36664 138.858 2.64615C153.672 2.81386 213.045 2.86977 270.7 2.92567C372.441 2.92567 392.588 2.70206 449.057 0.913176C476.433 0.0187352 546.176 -0.31668 552.753 0.354151C556.012 0.689566 561.227 1.24859 564.308 1.58401C569.523 2.14303 571.596 2.47845 578.529 3.87601C589.491 6.05621 589.965 6.39162 592.454 13.5472C596.365 24.6718 597.135 36.579 595.121 54.1883C593.817 65.5365 593.758 66.7105 594.469 79.5122C594.824 86.8913 595.417 95.8357 595.713 99.3576C596.009 102.879 596.543 109.085 596.898 113.054C597.254 117.079 597.906 124.346 598.38 129.265C599.742 143.353 600.987 161.857 601.342 173.149C601.52 178.851 601.757 187.013 601.935 191.317C602.113 195.622 602.468 207.585 602.824 217.871C603.179 228.157 603.713 242.803 604.009 250.406C604.779 268.239 604.779 328.614 604.009 340.745C603.713 345.888 603.179 355.894 602.824 362.938C602.527 370.038 602.113 378.423 601.935 381.665C601.52 389.156 601.52 433.599 601.935 440.81C602.053 443.773 602.468 453.556 602.824 462.445C603.179 471.389 603.713 483.184 604.009 488.663C604.957 504.819 604.779 539.199 603.772 542.832C600.276 555.466 590.795 562.342 572.9 565.082C568.337 565.753 542.739 565.473 528.755 564.523C518.445 563.852 400.172 563.796 386.544 564.467C375.937 565.026 366.634 565.697 357.212 566.703C354.309 566.982 349.332 567.486 346.25 567.765C343.169 568.1 338.073 568.604 334.992 568.939C328.296 569.666 320.06 570.448 310.401 571.231C301.335 572.014 262.345 572.293 257.664 571.622Z" fill="#FF3E2A"/>
<path fill-rule="evenodd" clip-rule="evenodd" d="M115.81 226.977C112.518 226.864 104.117 226.807 90.6087 226.807H70.5162C68.8134 226.807 67.6215 227.148 66.9404 227.828C66.2593 228.396 65.9187 229.473 65.9187 231.062V280.908C64.0221 280.705 62.1998 280.49 60.4548 280.263C51.1865 279.06 44.7309 277.599 40.9786 276.065C36.4641 274.219 31.3073 276.38 29.4604 280.892C27.6136 285.404 29.7762 290.559 34.2906 292.404C40.2532 294.842 48.5907 296.526 58.1796 297.771C60.6379 298.09 63.2207 298.385 65.9187 298.658V347.981C65.9187 349.796 66.3161 351.101 67.1107 351.895C67.9053 352.689 69.154 353.086 70.8567 353.086H115.639C130.169 353.086 142.486 350.42 152.589 345.088C162.692 339.642 170.298 332.153 175.406 322.623C178.859 316.181 181.145 309.065 182.264 301.276C183.337 301.26 184.411 301.243 185.488 301.226C189.395 301.163 193.329 301.091 197.284 301.013V348.832C197.284 350.307 197.624 351.385 198.305 352.065C198.987 352.746 200.179 353.086 201.881 353.086H292.979C294.341 353.086 295.363 352.746 296.044 352.065C296.725 351.385 297.065 350.477 297.065 349.342V328.409C297.065 326.253 295.817 325.176 293.319 325.176H237.98C237.185 325.176 236.618 325.005 236.277 324.665C236.05 324.325 235.936 323.701 235.936 322.793V305.774C235.936 305.093 236.163 304.526 236.618 304.072C237.185 303.619 237.866 303.392 238.661 303.392H270.162C272.205 303.392 273.227 302.427 273.227 300.498V298.868C286.258 298.417 299.095 297.943 311.522 297.472V349.342C311.522 350.363 311.862 351.271 312.543 352.065C313.338 352.746 314.303 353.086 315.438 353.086H369.245C387.635 353.086 401.257 350.307 410.111 344.747C419.079 339.074 423.563 330.395 423.563 318.709C423.563 311.334 421.633 305.32 417.774 300.669C415.822 298.317 413.189 296.125 409.875 294.092C429.787 293.704 448.606 293.63 465.745 293.713V349.683C465.745 351.952 466.767 353.086 468.81 353.086H501.162C502.184 353.086 502.979 352.803 503.546 352.235C504.114 351.555 504.398 350.59 504.398 349.342V294.146C510.519 294.248 516.225 294.354 521.465 294.452H521.469L521.5 294.452C532.633 294.659 541.661 294.827 548.109 294.827C552.986 294.827 556.94 290.875 556.94 286C556.94 281.125 552.986 277.173 548.109 277.173C542.02 277.173 533.288 277.01 522.42 276.808L522.395 276.808C516.917 276.706 510.896 276.593 504.398 276.487V255.909C504.398 254.775 505.079 254.207 506.441 254.207H536.58C539.077 254.207 540.326 253.129 540.326 250.974V230.722C540.326 229.587 539.928 228.679 539.134 227.998C538.453 227.204 537.431 226.807 536.069 226.807H434.244C432.882 226.807 431.803 227.204 431.009 227.998C430.328 228.679 429.987 229.587 429.987 230.722V250.974C429.987 253.129 431.292 254.207 433.903 254.207H463.872C465.121 254.207 465.745 255.002 465.745 256.59V276.061C450.016 275.987 432.878 276.042 414.824 276.346C415.082 276.058 415.327 275.77 415.56 275.481C418.852 271.283 420.498 266.177 420.498 260.164C420.498 249.158 415.901 240.876 406.706 235.317C397.624 229.644 384.229 226.807 366.521 226.807H315.779C314.53 226.807 313.508 227.261 312.714 228.169C311.919 228.963 311.522 229.984 311.522 231.232V279.805C299.09 280.276 286.255 280.751 273.227 281.203V279.395C273.227 277.126 272.035 275.991 269.651 275.991H239.001C238.093 275.991 237.355 275.708 236.788 275.14C236.22 274.46 235.936 273.552 235.936 272.417V257.951C235.936 255.796 237.242 254.718 239.853 254.718H290.936C293.887 254.718 295.363 253.186 295.363 250.123L295.533 230.381C295.533 227.998 294.511 226.807 292.468 226.807H200.519C198.362 226.807 197.284 228.112 197.284 230.722V283.355C193.233 283.436 189.204 283.509 185.202 283.574C184.422 283.586 183.642 283.599 182.863 283.611C181.753 267.779 176.146 254.915 166.041 245.017C154.689 233.785 137.945 227.772 115.81 226.977ZM142.375 283.905C141.783 275.136 139.626 268.414 135.902 263.738C131.475 258.178 125.004 255.002 116.491 254.207L106.274 253.527C105.706 253.527 105.252 253.697 104.912 254.037C104.685 254.378 104.571 255.002 104.571 255.909V283.315C116.251 283.69 128.955 283.873 142.375 283.905ZM104.571 300.979V323.814C104.571 324.835 104.742 325.516 105.082 325.856C105.423 326.197 106.047 326.367 106.955 326.367H108.147C119.385 326.367 127.899 323.474 133.689 317.687C137.53 313.848 140.121 308.471 141.463 301.557C128.438 301.52 116.045 301.339 104.571 300.979ZM369.245 276.162C373.218 276.162 376.397 275.084 378.781 272.928C381.164 270.772 382.356 267.993 382.356 264.589C382.356 260.958 380.994 258.008 378.27 255.739C375.545 253.47 372.14 252.335 368.053 252.335H354.091C352.615 252.335 351.593 252.619 351.026 253.186C350.458 253.64 350.174 254.491 350.174 255.739V272.417C350.174 273.779 350.401 274.743 350.855 275.311C351.309 275.878 352.047 276.162 353.069 276.162H369.245ZM368.394 327.558C373.048 327.558 376.681 326.253 379.291 323.644C382.016 321.034 383.378 317.971 383.378 314.454C383.378 310.937 382.073 308.043 379.462 305.774C376.851 303.505 373.445 302.371 369.245 302.371H354.091C352.615 302.371 351.593 302.654 351.026 303.221C350.458 303.789 350.174 304.696 350.174 305.944V323.814C350.174 325.176 350.401 326.14 350.855 326.707C351.309 327.275 352.047 327.558 353.069 327.558H368.394Z" fill="white"/>
</svg>
